<svg width="471" height="178" viewBox="0 0 471 178" fill="none" xmlns="http://www.w3.org/2000/svg">
<path d="M293.127 73.7053C294.682 70.1498 296.137 66.8133 297.606 63.4818C298.1 62.3569 298.519 61.1811 299.174 60.1554C299.505 59.6363 300.272 59.1043 300.861 59.084C304.797 58.9491 308.762 58.6462 312.67 58.972C321.087 59.6719 329.477 60.7128 337.875 61.6265C338.927 61.741 339.973 61.9472 341.023 62.0999C343.559 62.4689 344.319 63.6549 343.761 66.1745C342.726 70.8497 341.665 75.5199 340.765 80.2206C339.177 88.5047 337.796 96.827 336.144 105.096C335.081 110.407 333.686 115.655 332.447 120.901C342.93 125.853 354.035 129.022 365.144 132.758C364.971 131.849 364.831 130.999 364.64 130.162C364.415 129.169 364.494 128.172 365.435 127.709C366.391 127.238 367.291 127.655 368.02 128.487C370.697 131.554 373.404 134.595 376.114 137.634C376.479 138.041 376.986 138.332 377.305 138.767C377.669 139.263 378.207 139.937 378.097 140.396C377.978 140.894 377.246 141.485 376.695 141.594C375.076 141.915 373.412 141.986 371.77 142.208C368.448 142.658 365.137 143.193 361.807 143.59C360.818 143.707 359.776 143.556 358.784 143.376C358.274 143.282 357.415 142.831 357.428 142.577C357.461 141.94 357.751 141.164 358.21 140.737C358.835 140.154 359.714 139.843 360.586 139.36C350.534 135.542 340.597 131.768 330.54 127.948C330.01 129.854 329.362 132.027 328.802 134.221C326.933 141.531 325.253 148.893 323.196 156.149C321.755 161.232 321.126 166.439 320.116 171.585C319.856 172.911 319.502 174.229 319.066 175.509C318.439 177.344 317.044 178.083 315.081 177.818C298.419 175.573 281.749 173.372 265.095 171.081C258.112 170.122 251.173 168.862 244.185 167.951C239.604 167.353 234.972 167.124 230.363 166.747C228.757 166.617 227.143 166.566 225.535 166.436C224.265 166.335 223.653 165.688 223.534 164.24C223.09 158.959 222.644 153.678 222.264 148.392C221.494 137.69 220.768 126.986 220.021 116.281C219.48 108.539 218.884 100.8 218.438 93.0527C218.315 90.9174 217.851 89.8077 215.496 88.8966C206.593 85.4557 197.872 81.5567 189.098 77.7926C188.142 77.3828 187.407 77.3014 186.406 77.8409C184.963 78.6172 183.341 79.0727 181.784 79.6327C180.425 80.1213 178.954 80.3834 177.702 81.0604C174.449 82.819 171.202 82.3126 168.132 80.9434C164.655 79.3934 161.323 77.4923 158.034 75.5631C157.277 75.1178 156.877 73.9725 156.479 73.0741C156.37 72.8272 156.77 72.191 157.096 71.9466C157.836 71.3893 158.644 70.9006 159.48 70.496C163.225 68.6864 166.972 66.8794 170.758 65.1565C171.65 64.7492 171.803 64.3293 171.597 63.4182C170.712 59.5345 169.912 55.6329 169.081 51.7365C169.037 51.5303 168.94 51.3114 168.971 51.1129C169.111 50.2323 169.292 49.3594 169.455 48.4839C170.274 48.6773 171.115 48.8096 171.908 49.0769C173.07 49.4688 174.21 49.9371 175.342 50.4105C177.177 51.1816 179.043 51.8942 180.818 52.7926C184.588 54.6989 187.132 57.6155 188.348 61.7639C189.166 64.5584 190.385 67.2383 191.466 69.9513C191.588 70.2542 191.953 70.5367 192.272 70.6766C200.241 74.171 208.217 77.645 216.197 81.1164C216.459 81.2309 216.747 81.2844 217.242 81.432C217.071 79.7523 216.89 78.2202 216.765 76.683C216.523 73.6824 216.273 70.6843 216.11 67.6786C216.023 66.0701 216.378 65.7851 217.912 65.4746C221.82 64.6805 225.685 63.5734 229.626 63.0746C241.167 61.6138 252.731 60.3412 264.294 59.0891C269.487 58.5266 274.7 58.1449 279.909 57.758C281.895 57.6104 283.896 57.674 285.892 57.6359C287.674 57.6002 288.811 58.5164 289.295 60.1453C290.516 64.2453 291.663 68.3683 292.836 72.4836C292.925 72.8069 292.992 73.1352 293.127 73.7053ZM251.545 165.278C251.887 165.339 252.228 165.403 252.57 165.464C252.973 165.464 253.376 165.464 253.684 165.464C253.939 164.273 254.174 163.176 254.408 162.077C254.576 162.095 254.742 162.112 254.91 162.13C254.91 163.291 254.91 164.451 254.91 165.698C255.247 165.785 255.596 165.874 256.001 165.978C256.129 165.098 256.2 164.299 256.374 163.522C256.453 163.163 256.723 162.848 256.906 162.512C257.128 162.912 257.518 163.301 257.539 163.711C257.582 164.492 257.414 165.286 257.324 166.151C258.025 166.263 258.589 166.352 259.147 166.444C259.448 164.841 259.723 163.357 260.001 161.876C260.19 161.899 260.376 161.922 260.565 161.942C261.301 163.451 260.348 165.049 260.577 166.668C261.072 166.727 261.556 166.785 262.053 166.844C262.204 165.212 261.806 163.586 262.607 162.168C262.754 162.179 262.9 162.191 263.048 162.201C263.048 163.769 263.048 165.334 263.048 167.004C263.578 167.083 264.085 167.159 264.651 167.243C264.924 165.179 264.638 163.156 265.972 161.44C266.229 162.166 266.257 162.881 266.221 163.594C266.168 164.65 266.03 165.706 266.023 166.762C266.02 167.012 266.392 167.266 266.594 167.518C266.826 167.292 267.144 167.103 267.269 166.828C267.402 166.538 267.323 166.156 267.384 165.826C267.555 164.93 267.751 164.036 267.937 163.143C268.103 163.163 268.271 163.186 268.437 163.207C268.437 164.708 268.437 166.21 268.437 167.747C269.242 167.864 269.954 167.969 270.665 168.073C271.004 168.136 271.343 168.2 271.685 168.264C272.057 168.264 272.429 168.264 272.839 168.264C273.028 166.935 273.204 165.681 273.382 164.426C274.879 165.63 273.714 167.106 274.063 168.467C274.736 168.536 275.384 168.6 276.064 168.668C276.233 167.411 276.342 166.319 276.546 165.248C276.605 164.948 276.946 164.698 277.158 164.428C277.298 164.739 277.566 165.054 277.553 165.357C277.502 166.485 277.359 167.61 277.245 168.816C278.012 168.92 278.677 169.012 279.34 169.101C279.677 169.162 280.011 169.223 280.347 169.282C280.758 169.282 281.165 169.282 281.499 169.282C282.068 168.121 281.568 166.737 282.889 165.563C282.889 167.096 282.889 168.269 282.889 169.399C284.051 169.842 284.668 169.648 284.714 168.35C284.74 167.617 285.005 166.892 285.16 166.162C285.295 166.179 285.43 166.2 285.563 166.218C285.563 167.386 285.563 168.554 285.563 169.824C287.019 170.012 288.49 170.18 289.95 170.391C298.269 171.598 306.587 172.804 314.903 174.044C315.657 174.156 315.989 173.965 316.152 173.234C316.506 171.664 316.983 170.119 317.297 168.544C318.089 164.556 318.808 160.555 319.576 156.562C319.925 154.742 320.315 152.927 320.756 150.769C289.129 148.888 257.681 146.768 226.055 146.534C226.407 152.131 226.751 157.613 227.103 163.225C235.492 162.97 243.525 164.044 251.545 165.278ZM225.996 144.244C229.104 144.111 232.061 143.877 235.018 143.885C241.644 143.905 248.269 144.009 254.892 144.157C259.007 144.249 263.122 144.452 267.234 144.661C276.556 145.134 285.877 145.638 295.199 146.142C299.011 146.348 302.824 146.547 306.633 146.822C311.201 147.15 315.762 147.545 320.325 147.934C321.054 147.995 321.455 147.888 321.674 147.046C324.417 136.509 327.392 126.026 329.926 115.441C332.113 106.305 333.839 97.056 335.715 87.8455C337.168 80.7118 338.535 73.5627 339.932 66.4188C339.985 66.149 339.939 65.8589 339.939 65.5204C337.834 65.2328 335.784 64.9172 333.727 64.6805C328.84 64.1181 323.955 63.5174 319.058 63.0746C313.949 62.6114 308.825 62.334 303.711 61.9217C302.539 61.8275 301.907 62.1966 301.59 63.352C301.394 64.0748 300.902 64.7111 300.599 65.411C298.411 70.4196 296.214 75.4231 294.08 80.4547C293.683 81.3913 293.405 82.3864 292.217 82.4118C290.95 82.4373 290.98 81.2208 290.585 80.4318C290.549 80.358 290.552 80.2664 290.539 80.1824C289.695 74.1532 287.949 68.3581 286.037 62.6012C285.764 61.7817 285.39 61.5298 284.599 61.5629C283.496 61.6112 282.387 61.517 281.288 61.6036C275.916 62.0159 270.548 62.4511 265.179 62.9117C260.32 63.3266 255.451 63.6803 250.607 64.2402C242.689 65.1565 234.781 66.1847 226.878 67.2358C224.377 67.5692 221.907 68.1316 219.256 68.6203C223.248 93.8034 223.827 119.109 225.996 144.244ZM217.619 85.0663C216.263 84.6337 215.009 84.3792 213.884 83.8523C204.618 79.5359 195.364 75.189 186.133 70.7963C184.453 69.9971 182.854 69.0096 181.299 67.9891C180.942 67.7549 180.912 67.0245 180.733 66.5231C181.231 66.4722 181.776 66.2661 182.215 66.401C183.099 66.6733 183.92 67.1441 184.779 67.5081C185.908 67.984 187.048 68.437 188.182 68.9002C188.251 68.801 188.32 68.7042 188.389 68.605C187.175 66.3297 185.756 64.1359 184.81 61.7537C183.808 59.2291 182.123 57.5035 179.905 56.1317C178.281 55.129 176.665 54.1135 175.066 53.07C173.98 52.3625 172.93 51.5965 171.683 50.7312C171.752 51.2707 171.752 51.5659 171.829 51.8408C172.464 54.1262 173.111 56.4091 173.759 58.692C174.312 60.6415 174.771 62.6292 175.464 64.5278C175.976 65.9352 175.839 66.7751 174.447 67.4165C173.022 68.0731 171.561 68.6508 170.118 69.2743C167.171 70.5519 164.227 71.8372 161.28 73.1174C161.239 73.2446 161.201 73.3719 161.16 73.4991C164.678 75.2526 168.176 77.0418 171.729 78.7241C172.367 79.0244 173.287 79.088 173.962 78.8844C177.233 77.902 180.466 76.7898 183.828 75.6853C182.079 74.8251 180.384 74.0641 178.765 73.1657C178.092 72.7916 177.424 72.2266 177.034 71.5776C176.395 70.5138 176.917 69.679 178.156 69.7706C178.969 69.8317 179.798 70.1498 180.55 70.4985C183.204 71.7303 185.804 73.0817 188.468 74.2881C197.936 78.5714 207.422 82.8114 216.903 87.0667C217.165 87.1838 217.443 87.2703 217.887 87.4383C217.782 86.489 217.688 85.6746 217.619 85.0663ZM368.53 133.318C368.443 133.361 368.354 133.407 368.267 133.45C368.415 133.878 368.713 134.321 368.673 134.73C368.604 135.425 368.497 136.267 368.063 136.718C367.773 137.018 366.878 136.799 366.271 136.705C365.914 136.652 365.601 136.351 365.244 136.227C361.127 134.774 356.994 133.361 352.887 131.88C348.304 130.228 343.718 128.574 339.177 126.808C336.664 125.83 334.239 124.621 331.728 123.494C331.631 123.799 331.54 124.036 331.483 124.278C331.43 124.509 331.417 124.751 331.353 125.237C338.333 127.8 345.301 130.338 352.253 132.918C355.868 134.262 359.513 135.55 363.018 137.146C364.283 137.721 366.353 137.871 366.154 140.149C368.52 139.757 370.771 139.383 373.195 138.98C371.571 137.013 370.052 135.165 368.53 133.318Z" fill="#352F4E"/>
<path d="M126.084 147.995C125.166 135.02 124.254 122.071 123.316 108.814C122.806 109.226 122.574 109.374 122.393 109.567C119.78 112.377 116.891 114.846 113.491 116.673C112.524 117.192 111.619 116.915 110.918 116.241C109.667 115.037 108.461 113.774 107.342 112.448C106.276 111.184 106.406 110.552 107.599 109.425C110.592 106.602 113.608 103.8 116.547 100.925C120.086 97.4633 122.546 93.2716 124.575 88.7974C125.452 86.8632 126.793 85.6085 129.169 85.7332C130.594 85.8095 132.042 85.5474 133.477 85.3998C134.984 85.2445 135.598 86.0793 135.603 87.591C135.611 89.9528 135.838 92.3223 136.108 94.6713C137.574 107.397 138.578 120.155 139.108 132.954C139.266 136.764 139.603 140.569 139.868 144.376C139.894 144.74 139.998 145.099 140.08 145.529C142.066 145.246 143.95 145.002 145.826 144.704C148.189 144.33 149.109 144.796 149.464 147.114C149.864 149.738 149.971 152.408 150.2 155.058C150.208 155.139 150.167 155.226 150.17 155.31C150.267 157.676 150.098 157.911 147.717 158.173C139.493 159.081 131.269 159.982 123.043 160.853C119.961 161.178 119.045 160.473 118.63 157.404C118.385 155.602 118.248 153.777 118.225 151.96C118.197 149.667 118.921 148.955 121.187 148.664C122.78 148.463 124.368 148.232 126.084 147.995ZM110.075 111.082C110.89 111.787 111.742 112.616 112.698 113.291C112.981 113.489 113.728 113.436 113.988 113.199C116.364 111.031 118.689 108.809 121.006 106.58C121.735 105.877 122.352 105.05 123.107 104.381C124.119 103.482 124.835 103.76 125.128 105.121C125.296 105.905 125.388 106.707 125.477 107.503C126.122 113.22 126.806 118.933 127.377 124.657C127.695 127.856 127.79 131.078 128.037 134.287C128.394 138.93 128.822 143.567 129.156 148.211C129.215 149.033 129.08 149.917 128.804 150.69C128.682 151.036 127.999 151.339 127.545 151.383C125.391 151.576 123.226 151.673 120.845 151.818C121.233 153.841 121.521 155.495 121.903 157.129C121.952 157.333 122.505 157.57 122.806 157.544C125.763 157.297 128.715 157.005 131.667 156.709C135.42 156.333 139.172 155.969 142.92 155.544C144.505 155.363 146.073 155.042 147.771 154.762C147.386 152.792 147.024 150.975 146.677 149.153C146.537 148.423 146.185 148.079 145.372 148.15C143.18 148.344 140.977 148.438 138.785 148.639C137.62 148.746 136.903 148.283 136.562 147.211C136.421 146.771 136.325 146.305 136.291 145.845C135.868 140.146 135.427 134.448 135.06 128.744C134.726 123.545 134.55 118.335 134.176 113.138C133.661 106.045 133.026 98.9597 132.437 91.8718C132.355 90.8792 132.243 89.8867 132.139 88.8152C130.744 88.8152 129.48 88.8152 128.118 88.8152C126.033 93.0807 123.95 97.4887 120.562 101.003C117.213 104.465 113.621 107.692 110.075 111.082Z" fill="#352E4E"/>
<path d="M34.8191 156.989C36.9783 156.608 38.9362 156.256 40.8966 155.92C43.061 155.551 44.1317 156.211 44.5982 158.356C45.0927 160.634 45.4777 162.935 45.883 165.23C46.2552 167.348 45.7556 167.864 43.66 168.17C39.5072 168.773 35.3748 169.516 31.2271 170.165C26.8678 170.847 22.5111 171.567 18.1339 172.122C15.2558 172.486 14.5369 171.919 13.8919 169.032C13.4407 167.012 13.1118 164.955 12.8798 162.899C12.6963 161.278 13.5478 160.344 15.164 160.122C17.1346 159.853 19.1078 159.611 21.007 159.366C19.9261 149.135 18.8528 138.983 17.7413 128.482C16.3749 130.585 15.3017 132.45 14.0168 134.158C12.5688 136.082 11.0494 137.986 9.33886 139.668C7.23824 141.734 6.35874 141.689 4.07457 139.894C2.90954 138.981 1.78275 137.998 0.74009 136.947C-0.297473 135.901 -0.172559 135.224 0.671258 134.059C6.8635 125.489 13.0914 116.933 15.6637 106.404C16.0614 104.773 17.0403 103.663 18.7101 103.347C21.1599 102.884 23.6251 102.49 26.0903 102.121C26.9494 101.991 27.4363 102.497 27.5638 103.345C29.0449 113.235 30.6229 123.112 31.9792 133.023C33.0601 140.953 33.8733 148.922 34.8191 156.989ZM41.4218 159.081C39.0203 159.509 36.7642 159.728 34.6253 160.344C32.7312 160.888 32.0123 160.626 31.7854 158.631C31.0844 152.408 30.5006 146.17 29.6491 139.968C28.1272 128.9 26.437 117.857 24.8309 106.799C24.7239 106.058 24.4154 105.765 23.6557 105.887C22.3581 106.094 21.0478 106.218 19.7578 106.46C19.4825 106.511 19.1282 106.885 19.0568 107.173C16.9077 115.673 12.7371 123.13 7.33512 129.956C6.03243 131.603 4.66855 133.198 3.26899 134.896C4.52579 135.843 5.68828 136.759 6.90429 137.596C7.11843 137.744 7.64103 137.665 7.88577 137.494C8.29365 137.209 8.6684 136.815 8.92333 136.385C11.5185 132.025 14.0882 127.648 16.663 123.275C16.8542 122.949 16.9689 122.501 17.2519 122.328C17.7566 122.018 18.4169 121.629 18.9089 121.735C19.2939 121.819 19.5947 122.58 19.7961 123.094C19.9592 123.512 19.9108 124.011 19.9694 124.474C20.5813 129.259 21.2084 134.043 21.8075 138.83C22.5697 144.918 23.3014 151.008 24.061 157.096C24.2471 158.588 24.4919 160.071 24.7213 161.649C22.0497 162.128 19.5972 162.601 17.1295 162.993C16.1098 163.156 15.7325 163.622 15.9874 164.609C16.3061 165.838 16.5687 167.086 16.9842 168.282C17.0862 168.577 17.7286 168.92 18.0575 168.864C24.0763 167.846 30.085 166.775 36.0937 165.709C38.1969 165.335 40.2975 164.94 42.4542 164.546C42.1126 162.736 41.7838 161 41.4218 159.081Z" fill="#352E4D"/>
<path d="M317.576 35.6849C314.999 33.4122 312.373 31.2005 309.865 28.8566C306.951 26.1359 304.142 23.3058 301.294 20.5165C301.052 20.2798 300.858 19.9973 300.641 19.7351C300.017 18.9742 299.742 18.0376 300.364 17.2868C300.84 16.7116 301.697 16.1492 302.408 16.1161C313.136 15.5893 323.868 15.1515 334.598 14.6858C336.37 14.6094 337.415 15.4824 337.313 17.2181C337.206 19.0734 336.961 20.9237 336.678 22.7637C336.625 23.1073 336.082 23.6443 335.801 23.6214C335.399 23.5883 334.807 23.1964 334.692 22.8324C334.404 21.9137 334.325 20.9288 334.188 19.9667C333.935 18.2081 333.943 18.203 332.171 18.2895C323.692 18.7018 315.211 19.1167 306.732 19.5341C306.441 19.5493 306.153 19.5951 305.597 19.6562C306.015 20.1143 306.28 20.4579 306.597 20.7455C310.392 24.2017 314.196 27.6477 317.994 31.1013C318.716 31.7579 319.425 32.4298 320.121 33.1119C321.273 34.2444 321.405 34.9494 320.638 36.395C318.188 40.9964 315.713 45.5851 313.25 50.1815C313.054 50.5454 312.865 50.9144 312.664 51.2987C321.087 50.6218 329.431 49.9524 337.945 49.2703C337.321 48.5806 336.719 47.9622 336.173 47.2979C335.829 46.878 335.337 46.3919 335.332 45.9312C335.325 45.1576 335.432 44.1879 335.896 43.656C336.525 42.9332 337.489 43.4117 338.04 43.9996C339.837 45.9134 341.637 47.8375 343.255 49.899C344.301 51.23 343.459 52.7952 341.7 53.0217C340.953 53.1184 340.176 52.9327 339.419 52.9734C331.113 53.4238 322.813 53.9252 314.504 54.3375C312.832 54.4215 311.119 54.3324 309.467 54.0576C308.164 53.8412 307.802 52.8665 308.33 51.6347C308.595 51.0162 309.003 50.464 309.345 49.8786C312.044 45.2161 314.744 40.5638 317.576 35.6849Z" fill="#35304F"/>
<path d="M70.2955 131.472C67.8048 132.205 65.5844 132.903 63.3384 133.511C59.7949 134.471 58.7166 133.878 57.7606 130.376C57.3374 128.828 57.1487 127.217 56.8071 125.647C56.565 124.535 57.0417 124.003 58.069 123.7C60.8376 122.886 63.5908 122.02 66.3466 121.173C66.627 121.086 66.8972 120.974 67.3051 120.827C66.8972 119.002 66.4945 117.202 66.0891 115.403C65.8291 114.258 65.5691 113.11 65.2988 111.967C65.0031 110.723 65.4416 109.608 66.6398 109.15C68.7353 108.351 70.8563 107.6 73.0105 106.982C74.8001 106.467 75.9804 107.228 76.3704 109.099C76.865 111.461 77.2219 113.853 77.6425 116.233C77.6986 116.556 77.7853 116.872 77.8567 117.19C80.5793 116.599 83.2178 116.014 85.8615 115.457C88.5382 114.894 89.3107 115.403 89.8435 118.083C90.0984 119.371 90.3533 120.664 90.5165 121.964C90.7841 124.079 90.0576 124.99 88.0258 125.532C85.864 126.11 83.7353 126.815 81.5226 127.484C82.1063 129.464 82.6391 131.233 83.1439 133.01C83.2943 133.539 83.409 134.084 83.4677 134.628C83.6283 136.125 82.9629 137.13 81.5098 137.438C79.269 137.911 77.0103 138.303 74.7593 138.728C73.5254 138.963 72.8473 138.347 72.4496 137.252C71.7384 135.308 71.0042 133.371 70.2955 131.472ZM73.273 110.262C71.8735 110.746 70.7263 111.168 69.5613 111.535C68.7786 111.782 68.6231 112.293 68.7837 113.006C69.1891 114.78 69.6097 116.551 69.9921 118.33C70.2037 119.32 70.4586 120.32 70.4994 121.323C70.5606 122.888 69.9717 123.527 68.4574 123.911C65.4288 124.682 62.4028 125.464 59.2799 126.265C59.7771 127.423 60.394 128.502 60.6948 129.66C60.9727 130.732 61.4876 130.775 62.3366 130.51C63.7514 130.068 65.1841 129.668 66.5964 129.22C67.6799 128.877 68.7455 128.467 69.8264 128.116C71.0195 127.726 72.131 128.123 72.7938 129.442C73.8186 131.472 74.6751 133.585 75.6541 135.784C77.1199 135.369 78.6826 134.926 80.3218 134.46C80.1765 133.837 80.0898 133.295 79.9216 132.781C79.4219 131.251 78.9631 129.704 78.3563 128.217C77.6374 126.451 77.7649 125.957 79.5927 125.255C82.1956 124.255 84.8213 123.303 87.6052 122.27C87.3604 121.068 87.0877 119.737 86.7818 118.233C83.7812 119.017 80.977 119.681 78.2187 120.493C76.0059 121.145 74.953 120.562 74.5808 118.256C74.1678 115.67 73.737 113.087 73.273 110.262Z" fill="#353150"/>
<path d="M394.257 102.014C393.895 98.0082 393.551 93.9997 393.161 89.9938C392.876 87.0594 393.416 86.0821 396.396 85.6087C401.548 84.7943 406.726 84.1046 411.914 83.5473C416.936 83.0077 421.981 82.7074 427.016 82.2849C427.518 82.2416 428.015 82.0966 428.512 81.9846C430.167 81.613 431.472 82.3282 431.681 84.0054C431.875 85.5451 431.74 87.1281 431.724 88.6908C431.722 88.9326 431.65 89.2456 431.49 89.4034C430.952 89.9379 430.358 90.4189 429.787 90.9177C429.379 90.3374 428.777 89.8081 428.612 89.1642C428.331 88.0774 428.324 86.9194 428.201 85.7869C424.558 86.0567 421 86.2297 417.464 86.5988C410.965 87.2757 404.48 88.0851 397.984 88.7977C396.896 88.9173 396.493 89.2736 396.559 90.4621C396.942 97.4177 397.862 104.3 399.262 111.12C399.499 112.281 399.644 113.462 399.794 114.64C399.94 115.795 399.511 116.663 398.334 116.979C397.192 117.284 396.539 116.572 396.182 115.648C394.487 111.263 392.814 106.867 391.18 102.457C390.518 100.67 389.964 98.8455 389.378 97.0334C389.276 96.7153 389.133 96.3208 389.235 96.0459C389.406 95.5853 389.76 95.1908 390.036 94.7658C390.421 95.033 390.979 95.2163 391.16 95.5827C392.017 97.3337 392.769 99.1356 393.559 100.917C393.727 101.294 393.903 101.665 394.074 102.04C394.132 102.037 394.194 102.024 394.257 102.014Z" fill="#35304F"/>
<path d="M209.688 141.291C199.399 146.002 189.23 150.66 178.877 155.401C179.731 157.045 180.401 158.394 181.125 159.712C183.535 164.095 185.972 168.465 188.378 172.85C188.702 173.44 188.962 174.079 189.169 174.723C189.661 176.271 188.646 177.373 187.063 176.988C186.543 176.861 186.005 176.614 185.592 176.276C181.485 172.924 177.393 169.552 173.325 166.151C172.782 165.696 172.231 165.128 171.968 164.495C171.752 163.975 171.958 163.281 171.976 162.662C172.56 162.716 173.309 162.555 173.699 162.858C176.583 165.088 179.395 167.411 182.229 169.699C182.408 169.844 182.617 169.954 183.055 169.905C182.301 168.528 181.551 167.147 180.789 165.775C179.206 162.919 177.6 160.076 176.04 157.208C175.035 155.36 175.364 153.925 177.34 152.828C180.266 151.202 183.272 149.7 186.316 148.3C192.947 145.252 199.626 142.304 206.279 139.299C207.284 138.846 208.268 138.344 209.237 137.815C210.774 136.975 212.064 137.367 212.732 138.998C213.05 139.777 213.242 140.614 213.443 141.439C213.698 142.477 213.412 143.338 212.334 143.681C211.238 144.032 210.557 143.447 210.152 142.465C210.037 142.192 209.933 141.918 209.688 141.291Z" fill="#353150"/>
<path d="M416.474 103.803C418.365 102.48 420.239 101.172 422.11 99.8583C424.127 98.4432 426.324 98.1862 428.667 98.8174C432.19 99.7641 433.926 103.141 432.654 106.575C431.13 110.685 426.816 112.94 422.541 111.629C420.624 111.041 418.852 109.98 416.841 109.054C416.255 109.743 415.51 110.647 414.733 111.52C413.221 113.22 411.329 114.144 409.043 114.253C406.34 114.383 404.245 113.304 403.217 110.817C402.042 107.977 401.67 105.02 403.202 102.113C405.109 98.5018 408.347 97.5881 411.694 99.8863C413.366 101.032 414.845 102.452 416.474 103.803ZM414.348 106.628C413.15 105.49 412.122 104.488 411.062 103.523C410.659 103.157 410.213 102.795 409.723 102.571C409.127 102.299 408.441 101.955 407.834 102.024C405.935 102.24 404.089 106.106 405.043 107.786C405.553 108.684 406.014 109.781 406.815 110.311C408.255 111.265 410.473 110.838 411.753 109.585C412.655 108.707 413.422 107.694 414.348 106.628ZM419.329 105.943C419.296 106.117 419.265 106.287 419.232 106.46C420.797 107.124 422.319 107.946 423.943 108.415C425.825 108.959 427.426 108.209 428.665 106.702C429.684 105.462 429.932 104.108 429.302 103.08C428.779 102.228 427.03 101.64 425.743 101.927C425.294 102.027 424.828 102.182 424.451 102.434C422.727 103.582 421.035 104.77 419.329 105.943Z" fill="#35304F"/>
<path d="M377.824 39.4337C378.133 36.0488 378.523 32.7427 378.706 29.424C378.885 26.2096 378.834 22.9851 378.946 19.7681C378.961 19.366 379.359 18.9741 379.581 18.5796C379.991 18.8214 380.583 18.9664 380.774 19.3253C381.08 19.9005 381.217 20.608 381.263 21.2722C381.694 27.8359 381.883 34.3919 380.672 40.9123C380.593 41.3348 380.855 41.9889 381.184 42.2917C383.277 44.2234 385.727 45.5341 388.511 46.1882C389.424 46.4045 390.265 46.8805 390.081 47.8399C389.959 48.4813 389.276 49.3059 388.672 49.4942C387.858 49.7462 386.782 49.6953 385.987 49.367C383.813 48.466 381.725 47.3487 379.499 46.2696C379.265 46.8194 378.977 47.5523 378.64 48.2624C376.57 52.6221 372.274 53.0827 369.355 49.227C367.831 47.2113 367.025 44.8979 367.043 42.3605C367.066 38.889 369.728 36.7461 373.103 37.586C374.602 37.9499 376.009 38.7058 377.824 39.4337ZM370.594 43.0629C370.852 44.6128 371.252 46.4376 372.789 47.728C373.822 48.5933 374.531 48.4991 375.173 47.3462C375.724 46.3562 376.126 45.2745 376.506 44.2031C376.598 43.9435 376.448 43.3912 376.236 43.269C374.997 42.5513 373.758 41.7827 372.422 41.2966C371.173 40.8411 370.605 41.401 370.594 43.0629Z" fill="#35304F"/>
<path d="M470.334 37.5863C469.615 38.7494 469.028 40.0244 468.154 41.0526C464.939 44.832 461.643 48.5401 458.352 52.2534C456.073 54.8238 453.778 57.3791 451.451 59.9063C449.23 62.3165 447.548 62.3063 445.22 59.9521C444.922 59.6518 444.639 59.3337 444.349 59.0257C442.276 56.8192 442.041 55.5263 443.953 53.167C449.598 46.2038 454.326 38.6068 459.44 31.2771C460.068 30.3787 460.825 29.5668 461.561 28.7473C462.867 27.2992 464.07 27.2559 465.222 28.8619C466.8 31.0633 468.207 33.387 469.63 35.6953C469.926 36.1763 469.966 36.8151 470.124 37.3801C470.193 37.4488 470.265 37.5176 470.334 37.5863ZM463.152 30.1318C462.522 30.9208 462.018 31.4807 461.592 32.0941C456.99 38.7545 452.394 45.4199 447.813 52.0956C447.074 53.1747 446.385 54.2919 445.774 55.4448C445.603 55.7655 445.651 56.3636 445.848 56.6792C446.225 57.2798 446.747 57.8041 447.267 58.2978C448.259 59.242 448.614 59.2013 449.541 58.1553C453.253 53.9687 456.978 49.7923 460.679 45.593C462.754 43.2414 464.784 40.849 466.846 38.4872C467.455 37.7873 467.54 37.09 467.032 36.2934C465.778 34.3337 464.549 32.3562 463.152 30.1318Z" fill="#372F4F"/>
<path d="M264.055 13.8689C259.815 16.2561 256.058 14.523 255.03 9.70773C254.306 6.31774 255.611 2.54089 258.054 0.957876C260.509 -0.632775 262.097 -0.248472 263.703 2.15659C266.548 6.41699 267.081 11.2933 267.292 16.1721C267.43 19.3254 265.587 21.6974 262.933 23.3313C260.932 24.5657 258.816 24.4766 256.715 23.5324C255.642 23.0488 254.938 21.9239 255.288 21.1375C255.795 19.9922 256.884 20.0152 257.794 20.3511C260.779 21.4531 262.568 19.7606 263.563 17.8162C264.144 16.6786 264.197 15.2712 264.488 13.9859C264.343 13.9478 264.197 13.907 264.055 13.8689ZM260.463 3.22551C257.987 4.48021 257.61 9.39469 259.764 10.9395C260.547 11.502 261.528 11.3315 261.837 10.3796C262.125 9.49395 262.314 8.43775 262.099 7.56226C261.74 6.07595 261.031 4.67109 260.463 3.22551Z" fill="#35304F"/>
<path d="M188.353 111.972C188.376 114.327 187.815 115.21 186.148 115.207C181.123 115.205 176.364 116.755 171.469 117.48C168.963 117.852 167.676 117.116 166.964 114.729C166.569 113.4 166.261 112.021 166.144 110.644C166.011 109.084 166.786 108.178 168.285 107.791C172.754 106.636 177.223 105.472 181.702 104.353C185.225 103.472 186.816 104.437 187.624 107.951C187.976 109.471 188.185 111.026 188.353 111.972ZM170.646 114.986C175.474 113.884 180.231 112.8 185.092 111.69C184.945 110.873 184.736 109.886 184.598 108.888C184.442 107.771 183.938 107.384 182.785 107.679C178.689 108.73 174.582 109.738 170.467 110.718C169.669 110.909 169.529 111.316 169.728 111.988C170.026 112.996 170.342 113.998 170.646 114.986Z" fill="#35304F"/>
<path d="M242.275 17.2489C241.276 17.45 240.333 17.6841 239.372 17.819C238.449 17.9462 237.498 17.8953 237.233 16.7577C236.983 15.6837 237.702 15.0856 238.571 14.7242C239.471 14.3501 240.437 14.1363 241.33 13.7495C241.628 13.6197 241.992 13.1667 241.977 12.8791C241.885 11.1103 241.692 9.34655 241.516 7.39959C240.881 7.58283 240.358 7.6999 239.864 7.88569C237.363 8.82736 234.867 9.79447 232.369 10.7412C231.974 10.8914 231.497 11.1892 231.171 11.0823C230.51 10.8608 229.661 10.5402 229.396 10.0108C229.169 9.55524 229.539 8.68993 229.85 8.11729C230.039 7.76862 230.592 7.56502 231.023 7.40468C234.044 6.27468 237.044 5.07596 240.111 4.08594C243.18 3.09592 244.651 4.11903 244.993 7.28252C245.166 8.87571 245.227 10.4816 245.35 12.2479C246.013 12.0825 246.688 11.9119 247.364 11.7465C247.611 11.6854 247.861 11.6345 248.113 11.5913C249.717 11.319 250.815 11.7949 251.058 12.8612C251.302 13.9505 250.685 14.6784 249.062 15.1798C248.332 15.4037 247.601 15.6812 246.851 15.7753C245.513 15.9407 245.253 16.6635 245.436 17.8648C245.75 19.9187 245.967 21.9852 246.211 24.0467C246.321 24.9706 246.359 25.9784 245.159 26.1387C244.011 26.294 243.667 25.337 243.466 24.4412C243.196 23.2425 242.982 22.031 242.783 20.8171C242.586 19.6514 242.446 18.4756 242.275 17.2489Z" fill="#35304F"/>
<path d="M172.168 128.925C171.492 128.925 170.748 129.101 170.154 128.88C169.471 128.625 168.64 128.147 168.364 127.543C167.814 126.329 167.495 124.981 167.268 123.655C166.957 121.843 167.684 120.707 169.499 120.455C172.726 120.005 175.981 119.738 179.229 119.44C181.592 119.224 183.958 119 186.327 118.928C188.667 118.857 189.755 119.987 189.806 122.318C189.827 123.247 189.832 124.187 189.727 125.108C189.534 126.828 188.993 127.426 187.244 127.612C183.79 127.981 180.325 128.261 176.861 128.559C175.298 128.694 173.733 128.785 172.168 128.897C172.168 128.905 172.168 128.915 172.168 128.925ZM170.574 123.41C170.74 124.115 170.901 124.591 170.959 125.077C171.097 126.235 171.722 126.444 172.792 126.266C174.842 125.925 176.909 125.693 178.972 125.439C181.483 125.126 183.996 124.835 186.502 124.535C186.502 123.65 186.502 122.957 186.502 122.066C181.162 122.517 175.946 122.957 170.574 123.41Z" fill="#363150"/>
<path d="M365.524 110.168C366.852 109.007 367.982 108.005 369.129 107.022C369.707 106.529 370.253 105.91 370.931 105.648C371.449 105.449 372.394 105.503 372.698 105.846C373.004 106.193 372.988 107.18 372.703 107.62C372.088 108.567 371.214 109.346 370.442 110.191C370.161 110.499 369.871 110.794 369.557 111.127C370.852 112.273 372.119 113.331 373.312 114.472C374.018 115.146 375.178 115.912 374.492 116.984C373.761 118.124 372.688 117.152 371.923 116.716C370.49 115.905 369.175 114.889 367.785 113.998C367.469 113.797 366.857 113.566 366.707 113.703C366.426 113.96 366.274 114.472 366.258 114.886C366.212 116.146 366.414 117.437 366.189 118.656C366.09 119.198 365.188 119.969 364.675 119.951C364.163 119.931 363.314 119.104 363.245 118.549C362.22 110.529 361.297 102.497 360.364 94.4676C360.306 93.9663 360.234 93.4013 360.402 92.9559C360.617 92.3934 361.073 91.9226 361.425 91.4136C361.822 91.8768 362.473 92.2891 362.577 92.8108C363.125 95.5493 363.536 98.3157 363.997 101.072C364.489 104.012 364.986 106.959 365.524 110.168Z" fill="#363150"/>
<path d="M447.379 106.312C447.244 112.779 444.628 118.279 440.72 123.27C440.516 123.532 440.236 123.748 439.956 123.932C439.288 124.367 438.566 124.683 437.858 124.044C437.106 123.367 437.32 122.588 437.776 121.855C438.895 120.058 440.114 118.317 441.159 116.477C444.636 110.359 444.942 103.999 442.337 97.5091C441.266 94.8368 440.009 92.2383 438.87 89.594C438.518 88.7796 437.73 87.7565 438.814 87.1024C439.948 86.4178 440.455 87.6522 440.924 88.3699C443.978 93.0604 446.489 97.985 447.193 103.64C447.303 104.521 447.318 105.414 447.379 106.312Z" fill="#363250"/>
<path d="M349.604 106.814C349.955 100.884 352.326 96.0328 355.666 91.5739C355.91 91.2481 356.293 90.8893 356.663 90.8206C357.315 90.701 358.156 90.5661 358.633 90.874C358.944 91.0751 358.957 92.1338 358.74 92.6606C358.358 93.587 357.692 94.3964 357.16 95.2617C355.049 98.6771 353.17 102.194 352.999 106.325C352.823 110.57 354.577 114.161 357.047 117.452C358.192 118.976 359.497 120.384 360.614 121.929C360.94 122.379 361.165 123.29 360.925 123.68C360.448 124.458 359.61 124.089 359.033 123.624C353.598 119.213 350.07 113.746 349.604 106.814Z" fill="#353150"/>
<path d="M180.399 23.7718C181.365 21.5881 182.882 20.224 184.771 19.2365C188.077 17.5059 191.764 18.9286 192.916 22.4611C193.12 23.0846 193.028 23.9092 192.799 24.5404C192.403 25.6195 191.022 25.6933 190.326 24.7593C190.249 24.6575 190.191 24.5429 190.137 24.4284C189.543 23.1508 189.018 21.6365 187.223 21.9546C185.324 22.2906 183.835 23.4282 183.234 25.309C182.708 26.9531 182.476 28.6226 183.629 30.254C184.526 31.5265 185.158 32.9899 185.867 34.3872C186.441 35.5197 186.209 36.6064 185.355 37.0671C184.485 37.5354 183.318 37.2071 182.81 36.0771C180.865 31.753 178.992 27.3959 177.169 23.0185C177.001 22.6138 177.385 21.9801 177.515 21.4533C178.036 21.6314 178.658 21.6874 179.053 22.0157C179.555 22.428 179.874 23.0617 180.399 23.7718Z" fill="#363150"/>
<path d="M205.933 152.482C203.024 153.49 200.1 154.462 197.212 155.529C196.07 155.949 194.928 156.465 193.931 157.15C192.575 158.079 192.605 158.926 193.847 160.016C194.349 160.456 195.129 160.815 194.617 161.627C194.086 162.464 193.26 162.153 192.559 161.833C189.921 160.624 189.263 157.557 191.16 155.348C192.503 153.78 194.313 152.948 196.202 152.268C200.508 150.719 204.819 149.189 209.13 147.652C210.267 147.247 211.432 147.593 211.771 148.441C212.12 149.316 211.582 150.423 210.473 150.869C209.023 151.451 207.534 151.945 206.063 152.477C206.058 152.475 205.933 152.482 205.933 152.482Z" fill="#353150"/>
<path d="M221.015 16.503C220.227 16.3528 219.309 16.4088 218.687 16.0067C217.79 15.4264 218.188 14.4237 218.432 13.5584C218.731 12.4996 218.932 11.4053 219.317 10.3822C219.5 9.89352 219.952 9.27761 220.39 9.17581C220.847 9.06892 221.593 9.36669 221.925 9.74081C222.44 10.3262 222.781 11.0999 223.072 11.843C224.874 16.4165 226.639 21.0026 228.418 25.5837C228.782 26.5203 228.869 27.4187 227.982 28.1211C226.947 28.9406 225.629 28.4723 225.081 27.0064C223.911 23.8709 222.809 20.7099 221.68 17.5592C221.509 17.0858 221.341 16.6124 221.17 16.139C221.117 16.2587 221.066 16.3808 221.015 16.503Z" fill="#353150"/>
<path d="M386.242 108.885C386.464 110.418 386.704 111.708 386.826 113.008C386.951 114.329 386.337 115.179 385.332 115.274C384.323 115.368 383.67 114.614 383.555 113.268C383.448 112.013 383.313 110.759 383.178 109.374C382.074 109.534 381.088 109.7 380.096 109.817C378.86 109.962 377.985 109.374 377.817 108.333C377.646 107.274 378.403 106.391 379.686 106.228C380.687 106.101 381.699 106.043 382.811 105.943C382.811 104.75 382.803 103.62 382.813 102.492C382.821 101.691 382.926 100.851 383.93 100.805C384.855 100.762 385.049 101.535 385.154 102.291C385.302 103.373 385.462 104.455 385.63 105.61C386.79 105.61 387.879 105.572 388.965 105.62C389.987 105.666 390.867 106.058 390.816 107.254C390.762 108.455 389.852 108.697 388.827 108.723C387.991 108.745 387.158 108.827 386.242 108.885Z" fill="#363150"/>
<path d="M456.959 68.445C456.074 67.8876 455.287 67.5949 454.805 67.0401C454.244 66.3937 453.851 65.5513 453.584 64.7267C453.467 64.3678 453.709 63.6832 454.02 63.4312C455.017 62.6321 456.146 61.9958 457.181 61.24C458.376 60.367 459.508 59.405 460.707 58.5346C462.223 57.4326 463.309 57.626 464.329 59.2065C464.969 60.199 465.537 61.245 466.037 62.314C466.468 63.2353 466.458 64.3195 465.474 64.7801C462.692 66.0857 459.835 67.2208 456.959 68.445ZM455.881 64.7318C456.391 65.6989 456.992 65.877 457.851 65.5309C458.83 65.139 459.855 64.8666 460.837 64.4798C461.869 64.0726 462.873 63.5941 463.959 63.1157C463.419 62.1791 463.006 61.4486 462.573 60.7284C462.491 60.5935 462.336 60.5019 462.147 60.3288C461.01 61.0694 459.865 61.777 458.767 62.5481C457.803 63.22 456.888 63.9632 455.881 64.7318Z" fill="#372F4F"/>
<path d="M198.795 16.7242C199.685 16.4799 200.396 16.2508 201.123 16.093C202.428 15.8131 203.285 16.1821 203.504 17.134C203.772 18.297 203.053 18.8697 202.094 19.1929C201.092 19.5288 200.08 19.875 199.043 20.0608C196.603 20.4985 195.333 19.1089 195.795 16.6682C195.999 15.5917 196.093 14.4948 196.185 13.4029C196.21 13.0823 196.05 12.7463 195.688 12.4434C195.647 12.5732 195.555 12.7132 195.576 12.8354C195.749 13.805 195.344 14.4464 194.395 14.5711C193.411 14.7009 193.087 13.9425 192.937 13.1535C192.641 11.5909 193.707 10.0129 195.303 9.593C196.843 9.18834 198.349 9.92894 198.742 11.5705C199.03 12.7743 198.913 14.0774 198.943 15.3372C198.951 15.7393 198.859 16.1414 198.795 16.7242Z" fill="#363250"/>
<path d="M444.522 65.8948C444.524 68.4067 442.031 71.1452 439.533 71.387C437.917 71.5422 436.823 70.7584 436.147 69.4044C435.462 68.0224 435.005 66.643 435.956 65.0829C437.004 63.3676 438.684 62.8687 440.395 62.5073C442.579 62.0416 444.522 63.734 444.522 65.8948ZM437.868 66.9433C437.889 68.0021 438.605 69.0176 439.329 69.0125C440.598 69.0048 442.261 67.2538 442.245 65.9279C442.233 64.8157 441.47 64.4976 440.55 64.4747C439.311 64.4416 437.848 65.8286 437.868 66.9433Z" fill="#372F4F"/>
<path d="M205.933 152.482L206.058 152.475C206.088 152.576 206.142 152.767 206.147 152.765C207.641 152.414 208.186 153.414 208.653 154.513C209.912 157.478 211.2 160.433 212.403 163.418C213.091 165.121 212.813 166.251 211.789 166.656C210.7 167.083 209.734 166.416 209.061 164.632C208.031 161.894 207.055 159.138 206.078 156.381C205.663 155.208 205.321 154.017 206.165 152.856C206.198 152.811 206.014 152.609 205.933 152.482Z" fill="#363250"/>
<path d="M374.636 100.983C375.52 100.897 376.262 100.668 376.93 100.805C377.486 100.92 378.207 101.352 378.408 101.831C378.725 102.584 378.217 103.292 377.386 103.409C375.839 103.628 374.271 103.829 372.711 103.821C371.395 103.813 370.87 102.783 371.355 101.447C371.658 100.614 372.091 99.8279 372.369 98.988C372.461 98.7132 372.244 98.3365 372.168 98.0056C371.816 98.1787 371.467 98.3467 371.117 98.5248C371.087 98.5401 371.082 98.5986 371.061 98.6368C370.758 99.1814 370.692 100.25 369.807 99.7897C369.402 99.5785 369.234 98.479 369.33 97.8402C369.573 96.2114 370.98 95.2799 372.563 95.4937C374.215 95.7176 375.286 97.0258 375.12 98.7132C375.051 99.4156 374.827 100.105 374.636 100.983Z" fill="#393452"/>
<path d="M418.674 73.54C418.885 73.6597 419.64 73.8454 419.714 74.1839C419.829 74.7057 419.614 75.4259 419.291 75.884C418.975 76.332 418.383 76.6654 417.843 76.8588C415.212 77.8081 412.558 78.6988 409.907 79.5972C409.547 79.7194 409.132 79.9052 408.798 79.8263C408.199 79.6863 407.643 79.3682 407.069 79.1239C407.309 78.5869 407.411 77.7266 407.809 77.5612C411.12 76.164 414.485 74.8915 417.838 73.5909C417.988 73.5324 418.174 73.568 418.674 73.54Z" fill="#363250"/>
<path d="M451.025 73.0689C451.022 75.0642 448.985 77.1028 447.009 77.0901C445.212 77.0773 443.412 75.5885 443.433 74.1327C443.468 71.4757 445.008 69.5186 447.035 69.5542C449.133 69.5924 451.027 71.2594 451.025 73.0689ZM447.137 74.9013C448.042 74.886 448.911 73.9902 448.901 73.0867C448.891 72.2468 447.856 71.4833 446.795 71.5062C445.725 71.5291 445.472 72.3257 445.355 73.1198C445.233 73.9418 446.283 74.9166 447.137 74.9013Z" fill="#383351"/>
<path d="M203.858 164.858C203.542 165.301 203.21 166.248 202.701 166.355C202.061 166.49 200.868 166.139 200.623 165.647C199.374 163.133 198.303 160.522 197.309 157.895C197.166 157.521 197.671 156.584 198.086 156.411C198.471 156.251 199.387 156.607 199.639 157.007C200.988 159.15 202.209 161.377 203.455 163.583C203.618 163.868 203.662 164.22 203.858 164.858Z" fill="#363250"/>
<path d="M231.962 54.1135C231.579 53.8947 230.86 53.714 230.526 53.2559C229.094 51.286 227.727 49.2627 226.44 47.1961C225.973 46.4453 225.953 45.4909 226.889 44.9692C227.804 44.4577 228.512 44.959 229.063 45.6996C230.353 47.4277 231.663 49.1405 232.897 50.9068C233.247 51.4056 233.491 52.0521 233.558 52.6552C233.654 53.5613 233.109 54.055 231.962 54.1135Z" fill="#363250"/>
<path d="M359.041 43.0655C359.452 43.1418 360.015 43.0807 360.242 43.3276C360.678 43.7984 361.213 44.4729 361.162 45.0124C361.119 45.4604 360.303 46.173 359.819 46.1831C357.713 46.2188 355.592 46.1272 353.499 45.8777C352.918 45.809 352.176 45.1244 351.949 44.5492C351.651 43.7883 352.069 43.0731 353.06 42.956C353.132 42.9484 353.173 42.6888 353.229 42.5488L353.196 42.559C355.146 42.727 357.093 42.895 359.041 43.0655Z" fill="#363150"/>
<path d="M210.295 26.6222C209.64 25.9911 208.954 25.5966 208.687 25.0087C208.33 24.2274 208.778 23.4638 209.579 23.1559C211.32 22.4891 213.071 21.8299 214.871 21.3566C215.353 21.2293 216.245 21.639 216.521 22.0743C216.742 22.4229 216.503 23.5046 216.151 23.7056C214.326 24.7415 212.398 25.5991 210.295 26.6222Z" fill="#383351"/>
<path d="M213.288 17.2817C213.848 17.7551 214.555 18.086 214.807 18.6255C215.192 19.4527 214.613 20.1042 213.833 20.4147C212.258 21.0433 210.675 21.6618 209.061 22.1835C207.916 22.5525 207.06 22.1148 206.81 21.1629C206.527 20.0762 207.139 19.4628 208.059 19.1218C209.721 18.5059 211.404 17.9409 213.288 17.2817Z" fill="#383351"/>
<path d="M353.198 42.5566L353.231 42.5464C352.545 42.0247 351.355 41.5869 351.801 40.6122C352.099 39.9657 353.205 39.4389 354.011 39.332C355.423 39.1488 356.915 39.164 358.306 39.4313C358.974 39.5585 359.63 40.378 360.007 41.0448C360.144 41.2891 359.469 41.9941 359.163 42.4904C357.177 42.5133 355.186 42.5362 353.198 42.5566Z" fill="#353150"/>
<path d="M355.739 166.432C355.433 166.948 355.227 167.76 354.804 167.895C354.289 168.06 353.256 167.852 353.027 167.465C352.05 165.823 351.24 164.072 350.49 162.311C350.368 162.024 350.768 161.324 351.112 161.087C351.405 160.886 352.119 160.901 352.387 161.128C354.003 162.494 354.954 164.301 355.739 166.432Z" fill="#393452"/>
<path d="M152.392 41.1035C153.948 41.9892 155.393 42.6763 156.65 43.6129C157.037 43.9005 157.2 45.0407 156.94 45.4835C156.688 45.9162 155.681 46.2572 155.151 46.1122C153.858 45.7609 152.632 45.1425 151.416 44.552C150.595 44.155 150.172 43.3508 150.605 42.5491C150.906 41.9917 151.656 41.6736 152.392 41.1035Z" fill="#383351"/>
<path d="M236.956 29.7015C236.772 30.8035 236.066 31.8343 235.268 31.7757C234.187 31.6994 233.565 30.9868 233.499 29.9458C233.402 28.4264 233.359 26.8943 233.453 25.3775C233.481 24.9168 233.996 24.1915 234.378 24.1253C234.786 24.0566 235.587 24.5325 235.722 24.9346C236.242 26.4897 236.561 28.1083 236.956 29.7015Z" fill="#393452"/>
<path d="M5.92773 117.188C6.28209 116.348 6.62114 115.5 6.99079 114.665C7.94678 112.52 8.90276 110.372 9.89954 108.244C10.0347 107.954 10.3941 107.766 10.649 107.532C10.8836 107.796 11.1232 108.056 11.345 108.331C11.3883 108.384 11.3756 108.496 11.3679 108.578C10.9881 111.919 9.59617 114.777 7.19473 117.132C6.96785 117.353 6.55996 117.391 6.2362 117.516C6.13423 117.407 6.02971 117.297 5.92773 117.188Z" fill="#3A3654"/>
<path d="M219.613 51.6348C219.472 52.551 219.483 53.3959 219.184 54.1111C218.978 54.6023 218.302 55.2614 217.907 55.2182C217.372 55.1571 216.594 54.5743 216.464 54.0755C216.028 52.4034 216.25 50.7007 217.119 49.1864C217.331 48.8199 218.088 48.4662 218.465 48.5731C218.922 48.7003 219.421 49.2679 219.567 49.7463C219.755 50.3622 219.613 51.0799 219.613 51.6348Z" fill="#393452"/>
<path d="M327.292 8.82715C328.661 9.13001 329.75 9.30053 330.787 9.62375C331.659 9.89607 332.309 10.5883 332.064 11.53C331.807 12.5149 330.915 12.8585 329.946 12.6371C328.964 12.4131 327.993 12.1001 327.058 11.731C326.277 11.4256 325.273 10.9904 325.638 9.99278C325.842 9.43796 326.792 9.15546 327.292 8.82715Z" fill="#3A3654"/>
<path d="M358.949 162.016C358.697 162.387 358.491 163.006 358.085 163.194C357.667 163.388 356.979 163.309 356.538 163.09C355.536 162.594 354.335 159.583 354.57 158.45C354.771 157.473 355.74 156.987 356.487 157.61C357.802 158.702 358.445 160.224 358.949 162.016Z" fill="#393452"/>
<path d="M453.929 92.6227C454.291 92.1264 454.543 91.4495 454.887 91.3986C455.287 91.34 456.004 91.7218 456.177 92.0984C456.735 93.3201 457.194 94.6053 457.505 95.9109C457.605 96.3258 457.141 97.27 456.886 97.2878C456.361 97.326 455.507 97.0409 455.318 96.6413C454.734 95.4019 454.398 94.0429 453.929 92.6227Z" fill="#393452"/>
<path d="M194.839 57.2693C194.752 57.8063 194.76 58.5189 194.5 59.117C194.316 59.5344 193.765 60.0434 193.378 60.0434C192.991 60.0434 192.351 59.5191 192.261 59.1272C192.012 58.0252 191.851 56.8621 191.945 55.7474C191.986 55.2638 192.659 54.5919 193.172 54.4418C193.959 54.2127 194.507 54.8134 194.665 55.6201C194.762 56.1139 194.775 56.6254 194.839 57.2693Z" fill="#393452"/>
<path d="M330.096 4.14451C330.642 4.18014 331.272 4.06306 331.713 4.29721C332.21 4.55935 332.837 5.12689 332.857 5.585C332.88 6.05837 332.271 6.94405 331.881 6.97713C330.797 7.0713 329.615 6.9975 328.61 6.62083C328.151 6.44777 328.019 5.40939 327.738 4.76295C328.314 4.54153 328.88 4.29466 329.467 4.10888C329.65 4.05034 329.882 4.14705 330.091 4.16995C330.094 4.16232 330.094 4.15214 330.096 4.14451Z" fill="#393452"/>
<path d="M450.122 93.3913C450.234 93.2386 450.423 92.7169 450.764 92.5846C451.106 92.4497 451.833 92.5591 451.991 92.8111C452.745 94.02 453.395 95.2976 454.005 96.5905C454.132 96.8602 454.028 97.494 453.836 97.5983C453.525 97.7663 453.013 97.7383 452.656 97.6085C451.578 97.214 450.135 94.9056 450.122 93.3913Z" fill="#3A3654"/>
<path d="M414.134 71.4708C414.085 72.751 411.638 74.9499 410.389 74.8048C409.527 74.703 409.219 73.9955 409.657 73.4458C410.534 72.3438 411.546 71.2977 412.673 70.4579C413.407 69.9082 414.17 70.5317 414.134 71.4708Z" fill="#3A3654"/>
<path d="M395.47 47.171C395.499 46.0282 396.126 45.3258 397.12 45.3232C398.188 45.3207 399.417 46.27 399.407 47.087C399.391 48.278 398.456 49.263 397.357 49.2426C396.184 49.2197 395.442 48.4053 395.47 47.171Z" fill="#393452"/>
<path d="M340.439 120.613C339.274 120.32 338.69 119.45 339.289 118.788C340.1 117.892 341.071 117.111 342.083 116.449C342.42 116.228 343.284 116.348 343.564 116.64C343.799 116.885 343.733 117.803 343.455 118.081C342.534 119.007 341.456 119.781 340.439 120.613Z" fill="#3A3654"/>
<path d="M156.634 28.5207C158.268 28.4749 159.841 30.6331 159.222 31.8013C158.987 32.2416 158.245 32.6666 157.741 32.6615C156.492 32.6488 155.248 30.3048 155.852 29.2155C156.045 28.8618 156.486 28.6454 156.634 28.5207Z" fill="#3A3654"/>
<path d="M414.336 43.5364C415.394 43.567 416.253 44.4908 416.194 45.5394C416.138 46.5727 415.182 47.4304 414.147 47.3769C413.127 47.326 412.339 46.4658 412.375 45.4401C412.413 44.3509 413.283 43.5059 414.336 43.5364Z" fill="#393452"/>
<path d="M343.575 123.573C342.586 123.55 341.686 123.568 341.525 122.506C341.364 121.46 342.19 121.142 342.988 120.921C343.473 120.786 344.034 120.59 344.47 120.72C345.051 120.895 345.543 121.361 346.076 121.705C345.686 122.252 345.38 122.903 344.877 123.308C344.533 123.586 343.911 123.517 343.575 123.573Z" fill="#3A3654"/>
<path d="M123.591 81.651C123.578 83.5471 122.622 85.0308 121.674 85.0385C120.802 85.0461 120.343 84.5498 120.307 83.7125C120.251 82.4553 121.531 80.605 122.408 80.7908C122.926 80.8977 123.349 81.4627 123.591 81.651Z" fill="#3A3654"/>
<path d="M37.6514 148.672C37.4627 149.006 37.3302 149.558 37.065 149.632C36.6979 149.734 36.1422 149.594 35.821 149.352C35.0256 148.754 34.7401 145.577 35.3953 144.822C35.9994 144.124 36.4838 144.542 36.6954 145.178C37.0625 146.29 37.32 147.438 37.6514 148.672Z" fill="#3A3654"/>
<path d="M407.786 46.4634C407.789 47.3593 406.851 48.3264 405.981 48.2501C404.923 48.1584 404.536 47.3873 404.546 46.4762C404.559 45.504 405.163 44.911 406.157 44.8524C407.021 44.8015 407.784 45.593 407.786 46.4634Z" fill="#3A3654"/>
<path d="M146.516 125.303C146.511 126.594 145.846 127.64 145.058 127.365C144.54 127.184 143.964 126.441 143.885 125.884C143.697 124.568 144.538 123.369 145.366 123.494C146.383 123.647 146.559 124.428 146.516 125.303Z" fill="#393452"/>
<path d="M389.645 17.0248C388.042 16.9688 387.259 16.1697 387.297 15.0499C387.325 14.1973 387.741 13.6857 388.636 13.701C389.525 13.7163 390.627 14.8641 390.471 15.7981C390.384 16.3122 389.839 16.7525 389.645 17.0248Z" fill="#3A3654"/>
<path d="M26.2557 172.932C26.9312 173.352 28.1982 173.807 28.1753 174.184C28.1039 175.362 26.9159 175.258 26.0033 175.324C25.7968 175.339 25.5368 175.36 25.3838 175.255C24.9071 174.932 24.1474 174.601 24.0837 174.184C23.9537 173.334 24.8 173.334 25.4297 173.275C25.6387 173.255 25.8503 173.25 26.0619 173.24C26.1257 173.138 26.1919 173.033 26.2557 172.932Z" fill="#3A3654"/>
<path d="M129.176 163.219C130.124 162.018 132.304 161.481 133.433 162.112C134.127 162.502 134.193 163.237 133.566 163.619C132.803 164.085 129.966 163.861 129.176 163.219Z" fill="#433F55"/>
<path d="M40.4148 146.595C39.9865 147.064 39.6245 147.822 39.1146 147.939C38.1637 148.156 37.8757 147.318 37.7737 146.509C37.7431 146.259 37.6488 145.949 37.7558 145.768C38.0618 145.252 38.4569 144.786 38.8189 144.3C39.2446 144.743 39.6984 145.16 40.0783 145.638C40.2108 145.806 40.1573 146.125 40.1879 146.374C40.2618 146.448 40.3383 146.522 40.4148 146.595Z" fill="#3A3654"/>
<path d="M3.32227 113.332C4.03097 112.515 4.653 111.8 5.27503 111.084C5.49937 111.431 5.91235 111.777 5.9098 112.12C5.8996 113.164 4.79831 114.439 4.13039 114.263C3.87801 114.2 3.71231 113.803 3.32227 113.332Z" fill="#433F55"/>
<path d="M75.5445 142.851C75.0372 142.419 74.6905 142.121 74.3438 141.823C74.6599 141.582 74.976 141.146 75.287 141.151C75.6311 141.157 75.9702 141.566 76.3118 141.8C76.1002 142.091 75.8861 142.383 75.5445 142.851Z" fill="#504C63"/>
<path d="M353.198 42.5564C355.187 42.5335 357.178 42.5131 359.166 42.4902C359.125 42.6811 359.082 42.872 359.041 43.0629C357.094 42.8949 355.146 42.7269 353.198 42.5564Z" fill="#504C63"/>
<path d="M225.996 144.244C223.824 119.109 223.248 93.8036 219.253 68.6178C221.904 68.1292 224.374 67.5667 226.875 67.2333C234.778 66.1797 242.684 65.1515 250.604 64.2378C255.448 63.6779 260.317 63.3242 265.176 62.9093C270.545 62.4512 275.914 62.016 281.285 61.6012C282.384 61.5172 283.495 61.6088 284.596 61.5604C285.389 61.5274 285.764 61.7793 286.034 62.5988C287.946 68.3557 289.693 74.1508 290.536 80.18C290.549 80.264 290.547 80.3556 290.582 80.4294C290.975 81.2183 290.947 82.4349 292.214 82.4094C293.404 82.384 293.68 81.3889 294.077 80.4523C296.211 75.4207 298.409 70.4172 300.596 65.4085C300.902 64.7087 301.391 64.0724 301.588 63.3496C301.904 62.1942 302.536 61.8251 303.709 61.9193C308.822 62.3316 313.947 62.609 319.055 63.0722C323.953 63.5176 328.837 64.1157 333.724 64.6781C335.781 64.9148 337.831 65.2304 339.937 65.518C339.937 65.8565 339.982 66.1441 339.929 66.4164C338.532 73.5603 337.166 80.7093 335.712 87.8431C333.839 97.0536 332.11 106.302 329.923 115.439C327.389 126.026 324.414 136.507 321.671 147.043C321.452 147.883 321.051 147.993 320.322 147.932C315.759 147.542 311.198 147.148 306.63 146.819C302.821 146.547 299.008 146.346 295.196 146.14C285.876 145.636 276.553 145.132 267.231 144.659C263.119 144.45 259.004 144.246 254.89 144.155C248.266 144.007 241.641 143.903 235.015 143.882C232.061 143.877 229.103 144.111 225.996 144.244ZM247.899 102.533C247.53 102.775 247.344 102.928 247.132 103.032C243.986 104.605 241.468 106.911 239.464 109.758C236.379 114.144 234.587 118.87 236.017 124.336C237.055 128.297 239.283 131.534 241.975 134.557C245.806 138.864 250.367 141.06 256.261 140.536C262.466 139.983 266.988 137.204 269.698 131.534C272.561 125.543 272.498 119.244 271.809 112.866C271.771 112.52 271.73 112.174 271.684 111.769C274.491 112.441 275.467 111.932 276.418 109.283C276.903 107.929 277.3 106.539 277.629 105.139C278.137 102.989 277.566 101.647 275.689 100.568C274.517 99.8939 273.313 99.2347 272.054 98.7486C261.207 94.5722 250.347 90.4314 239.484 86.2932C237.924 85.6976 236.95 85.919 236.094 87.3468C234.964 89.2301 234.008 91.2204 233.055 93.2004C232.647 94.0504 232.851 94.9463 233.702 95.4324C236.165 96.8347 238.638 98.2269 241.169 99.4968C243.306 100.576 245.534 101.477 247.899 102.533ZM315.017 109.018C315.971 108.921 317.141 108.799 318.311 108.687C320.284 108.501 321.11 107.893 321.24 106.005C321.436 103.169 320.738 100.441 319.507 97.9036C319.076 97.0129 318.201 96.4861 317.041 97.0918C316.539 97.3539 315.904 97.4226 315.323 97.4557C312.868 97.5982 310.398 97.5931 307.953 97.8247C302.977 98.2981 298.006 98.8224 293.05 99.4536C289.863 99.8582 286.717 100.767 283.531 100.912C281.729 100.993 281.698 101.785 281.881 102.887C282.437 106.218 283.026 109.55 283.829 112.828C284 113.52 285.104 114.037 285.858 114.505C286.19 114.711 286.725 114.594 287.337 114.632C287.008 115.268 286.763 115.749 286.511 116.228C282.613 123.601 283.85 134.351 292.239 140.067C297.33 143.536 302.742 143.999 307.471 140.935C308.529 140.251 309.506 139.411 310.426 138.543C311.675 137.362 313.098 136.247 313.985 134.817C317.103 129.785 317.849 124.176 317.115 118.419C316.718 115.309 315.762 112.268 315.017 109.018Z" fill="#EB2465"/>
<path d="M279.342 169.109C278.677 169.017 278.012 168.928 277.247 168.824C277.362 167.617 277.504 166.492 277.555 165.365C277.568 165.062 277.3 164.746 277.16 164.436C276.949 164.708 276.607 164.955 276.548 165.255C276.342 166.329 276.235 167.419 276.067 168.676C275.386 168.607 274.741 168.541 274.065 168.475C273.716 167.113 274.881 165.64 273.385 164.433C273.206 165.688 273.03 166.943 272.842 168.271C272.431 168.271 272.059 168.271 271.687 168.271C271.822 167.08 272 165.892 272.074 164.696C272.115 164.013 271.985 163.319 271.932 162.632C271.753 162.634 271.575 162.634 271.399 162.637C270.853 164.398 270.57 166.207 270.67 168.08C269.958 167.976 269.247 167.872 268.442 167.755C268.442 166.22 268.442 164.716 268.442 163.214C268.276 163.194 268.108 163.171 267.942 163.151C267.756 164.044 267.56 164.935 267.389 165.833C267.325 166.164 267.407 166.543 267.274 166.836C267.149 167.111 266.83 167.299 266.598 167.526C266.4 167.274 266.027 167.022 266.027 166.77C266.035 165.714 266.175 164.66 266.226 163.601C266.262 162.889 266.234 162.173 265.976 161.448C264.641 163.163 264.926 165.184 264.656 167.251C264.09 167.167 263.58 167.09 263.052 167.012C263.052 165.345 263.052 163.777 263.052 162.209C262.905 162.199 262.759 162.186 262.611 162.176C261.811 163.596 262.209 165.222 262.058 166.851C261.561 166.793 261.077 166.734 260.582 166.676C260.353 165.057 261.306 163.459 260.569 161.949C260.381 161.927 260.195 161.904 260.006 161.883C259.728 163.365 259.45 164.848 259.152 166.452C258.594 166.363 258.03 166.271 257.329 166.159C257.418 165.291 257.584 164.5 257.543 163.718C257.52 163.309 257.133 162.919 256.911 162.52C256.728 162.856 256.457 163.171 256.378 163.53C256.208 164.309 256.134 165.108 256.006 165.986C255.601 165.882 255.252 165.792 254.915 165.706C254.915 164.459 254.915 163.298 254.915 162.138C254.747 162.12 254.581 162.102 254.413 162.084C254.178 163.184 253.944 164.281 253.689 165.472C253.38 165.472 252.978 165.472 252.575 165.472C252.794 164.316 253.136 163.151 252.335 161.876C251.328 162.978 251.555 164.159 251.55 165.283C243.53 164.049 235.495 162.975 227.107 163.237C226.756 157.625 226.411 152.143 226.06 146.547C257.686 146.781 289.134 148.904 320.761 150.782C320.32 152.943 319.93 154.755 319.58 156.574C318.816 160.568 318.094 164.568 317.301 168.556C316.988 170.134 316.514 171.679 316.157 173.247C315.991 173.975 315.662 174.168 314.908 174.056C306.594 172.817 298.273 171.61 289.955 170.404C288.492 170.193 287.023 170.025 285.568 169.837C285.568 168.567 285.568 167.398 285.568 166.23C285.433 166.212 285.298 166.192 285.165 166.174C285.007 166.902 284.744 167.627 284.719 168.363C284.673 169.658 284.059 169.852 282.894 169.412C282.894 168.282 282.894 167.108 282.894 165.576C281.573 166.749 282.073 168.131 281.504 169.294C281.17 169.294 280.76 169.294 280.352 169.294C280.319 169.137 280.245 168.974 280.26 168.821C280.37 167.783 280.543 166.749 280.592 165.711C280.604 165.439 280.25 165.151 280.064 164.869C279.896 165.118 279.608 165.355 279.579 165.619C279.457 166.775 279.414 167.943 279.342 169.109ZM264.154 154.93C270.958 155.264 278.59 155.633 286.223 156.02C289.302 156.175 289.229 156.216 288.856 159.3C288.64 161.079 288.66 162.919 288.841 164.706C288.951 165.782 289.807 166.587 290.98 166.798C292.119 167.004 293.012 166.49 293.58 165.569C294.177 164.604 294.758 163.586 295.087 162.512C295.451 161.318 296.02 160.858 297.305 160.753C298.416 160.664 300.027 160.336 300.468 159.567C301.682 157.452 303.262 156.979 305.475 157.262C305.883 157.312 306.722 156.521 306.783 156.042C306.844 155.554 306.263 154.912 305.832 154.459C305.618 154.233 305.118 154.228 304.744 154.202C300.889 153.945 297.032 153.711 293.177 153.457C279.569 152.558 265.953 151.909 252.32 152.764C248.679 152.993 245.054 153.446 241.427 153.844C241.024 153.887 240.654 154.238 240.269 154.447C240.652 154.711 241.019 155.169 241.422 155.205C243.068 155.35 244.728 155.447 246.38 155.411C252.022 155.297 257.666 155.113 264.154 154.93ZM312.116 161.517C311.03 162.716 310.854 167.589 311.856 168.717C312.723 167.416 312.901 162.451 312.116 161.517ZM314.163 169.157C315.234 167.714 315.489 162.97 314.614 161.96C313.725 163.227 313.386 167.935 314.163 169.157ZM229.088 154.737C228.17 156.778 228.385 160.305 229.399 160.901C230.21 159.682 230.062 156.004 229.088 154.737ZM310.204 167.836C310.293 166.643 310.388 165.691 310.413 164.736C310.418 164.54 310.202 164.276 310.016 164.164C309.906 164.097 309.597 164.225 309.473 164.355C308.833 165.016 309.105 166.996 310.204 167.836ZM230.483 156.801C229.991 159.588 229.991 159.588 230.89 160.122C231.79 158.985 231.62 157.256 230.483 156.801ZM307.382 166.757C307.902 165.245 307.8 164.678 306.954 164.075C306.278 165.131 306.396 166.016 307.382 166.757ZM316.412 164.477C316.251 164.469 316.09 164.459 315.93 164.451C315.866 165.375 315.802 166.302 315.718 167.526C316.978 166.551 317.097 165.569 316.412 164.477ZM233.967 159.387C233.618 158.974 233.328 158.633 233.04 158.295C232.851 158.57 232.458 158.906 232.517 159.109C232.649 159.56 233.009 159.944 233.277 160.356C233.473 160.081 233.667 159.809 233.967 159.387ZM286.307 168.709C286.498 168.763 286.689 168.816 286.881 168.872C287.498 168.2 287.625 167.421 287.36 166.551C287.199 166.51 287.039 166.469 286.878 166.431C286.689 167.19 286.498 167.948 286.307 168.709ZM246.036 159.949C245.574 159.572 245.314 159.264 244.983 159.14C244.878 159.102 244.379 159.628 244.427 159.763C244.547 160.092 244.843 160.407 245.151 160.59C245.251 160.649 245.608 160.27 246.036 159.949Z" fill="#FAFAFA"/>
<path d="M217.619 85.0662C217.688 85.6745 217.779 86.4864 217.889 87.4357C217.445 87.2702 217.17 87.1837 216.905 87.0641C207.424 82.8113 197.938 78.5687 188.47 74.2854C185.804 73.0791 183.206 71.7277 180.552 70.4959C179.8 70.1472 178.972 69.8291 178.158 69.768C176.922 69.6764 176.397 70.5086 177.037 71.5749C177.427 72.2214 178.097 72.7889 178.768 73.1631C180.386 74.0615 182.082 74.825 183.83 75.6826C180.468 76.7872 177.235 77.8994 173.965 78.8818C173.289 79.0854 172.369 79.0217 171.731 78.7214C168.18 77.0417 164.68 75.25 161.162 73.4965C161.203 73.3692 161.241 73.242 161.282 73.1147C164.229 71.832 167.173 70.5468 170.12 69.2717C171.561 68.6482 173.024 68.0704 174.449 67.4138C175.841 66.7725 175.979 65.93 175.466 64.5252C174.773 62.624 174.314 60.6389 173.761 58.6894C173.113 56.4065 172.466 54.1236 171.831 51.8382C171.754 51.5633 171.752 51.2681 171.686 50.7285C172.932 51.5938 173.983 52.3599 175.069 53.0674C176.667 54.1109 178.283 55.1263 179.907 56.1291C182.125 57.4983 183.81 59.2264 184.812 61.7511C185.758 64.1333 187.18 66.3271 188.391 68.6023C188.322 68.7016 188.253 68.7983 188.185 68.8976C187.05 68.4344 185.911 67.9839 184.781 67.5054C183.922 67.1415 183.101 66.6707 182.217 66.3983C181.776 66.2634 181.233 66.4696 180.736 66.5205C180.917 67.0219 180.947 67.7523 181.302 67.9864C182.859 69.007 184.458 69.997 186.135 70.7936C195.366 75.1838 204.62 79.5308 213.887 83.8497C215.011 84.3791 216.263 84.6336 217.619 85.0662ZM176.968 69.5338C176.149 68.9434 175.614 68.2791 175.257 68.3631C174.689 68.498 174.24 69.1317 173.743 69.5542C174.23 69.9487 174.676 70.5722 175.214 70.6613C175.614 70.7275 176.132 70.1014 176.968 69.5338ZM181.296 61.3999C180.692 60.8349 180.282 60.4506 179.871 60.0637C179.594 60.4531 179.051 60.8858 179.104 61.2243C179.186 61.7282 179.688 62.1634 180.009 62.6291C180.363 62.2881 180.718 61.9496 181.296 61.3999Z" fill="#F7F7F8"/>
<path d="M368.53 133.318C370.051 135.166 371.571 137.013 373.192 138.981C370.768 139.383 368.517 139.757 366.151 140.149C366.35 137.871 364.28 137.721 363.015 137.146C359.513 135.553 355.865 134.262 352.25 132.918C345.298 130.335 338.331 127.8 331.351 125.237C331.414 124.751 331.43 124.512 331.481 124.278C331.537 124.034 331.628 123.8 331.725 123.494C334.236 124.619 336.661 125.828 339.174 126.808C343.715 128.574 348.301 130.226 352.885 131.88C356.991 133.361 361.124 134.774 365.241 136.227C365.598 136.352 365.909 136.652 366.268 136.705C366.878 136.797 367.77 137.018 368.06 136.718C368.496 136.27 368.601 135.425 368.67 134.73C368.711 134.321 368.41 133.878 368.264 133.45C368.354 133.407 368.443 133.361 368.53 133.318Z" fill="#EDEDEF"/>
<path d="M270.667 168.078C270.57 166.202 270.851 164.395 271.396 162.634C271.575 162.631 271.753 162.631 271.929 162.629C271.983 163.319 272.113 164.011 272.072 164.693C271.998 165.889 271.82 167.078 271.685 168.269C271.348 168.205 271.006 168.141 270.667 168.078Z" fill="#433F55"/>
<path d="M279.343 169.109C279.414 167.943 279.457 166.775 279.577 165.615C279.605 165.35 279.893 165.113 280.062 164.864C280.248 165.144 280.602 165.434 280.589 165.706C280.541 166.747 280.368 167.78 280.258 168.816C280.243 168.969 280.317 169.132 280.35 169.29C280.013 169.229 279.677 169.17 279.343 169.109Z" fill="#433F55"/>
<path d="M251.545 165.278C251.55 164.154 251.323 162.973 252.33 161.871C253.128 163.146 252.789 164.311 252.57 165.467C252.228 165.403 251.886 165.342 251.545 165.278Z" fill="#504C63"/>
<path d="M110.074 111.082C113.62 107.692 117.212 104.465 120.554 101.001C123.945 97.4886 126.028 93.0805 128.11 88.8125C129.472 88.8125 130.736 88.8125 132.131 88.8125C132.235 89.884 132.347 90.8765 132.429 91.8691C133.018 98.957 133.653 106.042 134.168 113.135C134.545 118.332 134.718 123.542 135.052 128.742C135.419 134.445 135.86 140.143 136.284 145.842C136.317 146.302 136.416 146.768 136.554 147.208C136.895 148.28 137.612 148.743 138.777 148.636C140.969 148.435 143.172 148.341 145.364 148.148C146.175 148.076 146.529 148.417 146.669 149.15C147.019 150.973 147.378 152.79 147.763 154.76C146.063 155.037 144.495 155.36 142.912 155.541C139.164 155.966 135.412 156.33 131.659 156.707C128.707 157.002 125.755 157.294 122.798 157.541C122.499 157.567 121.944 157.333 121.895 157.127C121.513 155.493 121.227 153.838 120.837 151.815C123.221 151.67 125.383 151.573 127.537 151.38C127.991 151.339 128.671 151.034 128.796 150.688C129.074 149.914 129.209 149.031 129.148 148.209C128.814 143.564 128.386 138.927 128.029 134.285C127.782 131.075 127.687 127.856 127.369 124.654C126.798 118.931 126.114 113.217 125.469 107.501C125.38 106.704 125.288 105.9 125.12 105.119C124.827 103.757 124.111 103.48 123.099 104.378C122.344 105.05 121.727 105.874 120.998 106.577C118.681 108.806 116.356 111.031 113.98 113.197C113.72 113.433 112.973 113.487 112.69 113.288C111.741 112.616 110.89 111.787 110.074 111.082Z" fill="#E92465"/>
<path d="M41.4213 159.081C41.7833 161 42.1122 162.736 42.4538 164.545C40.2971 164.94 38.1965 165.337 36.0933 165.708C30.0846 166.777 24.0734 167.849 18.057 168.864C17.7282 168.92 17.0857 168.577 16.9838 168.281C16.5682 167.085 16.3082 165.838 15.987 164.609C15.7295 163.622 16.1094 163.156 17.1291 162.993C19.5942 162.601 22.0492 162.128 24.7209 161.649C24.4914 160.071 24.2467 158.587 24.0606 157.096C23.3009 151.008 22.5693 144.918 21.807 138.83C21.2079 134.043 20.5808 129.261 19.969 124.474C19.9104 124.013 19.9588 123.514 19.7956 123.094C19.5942 122.58 19.2934 121.819 18.9085 121.735C18.4165 121.626 17.7562 122.018 17.2514 122.328C16.9685 122.504 16.8538 122.952 16.6626 123.275C14.0878 127.647 11.5181 132.025 8.92289 136.384C8.66797 136.812 8.29322 137.209 7.88533 137.494C7.6406 137.665 7.11799 137.744 6.90385 137.596C5.68784 136.759 4.52536 135.842 3.26855 134.896C4.66812 133.198 6.03199 131.6 7.33468 129.956C12.7366 123.132 16.9073 115.673 19.0563 107.172C19.1277 106.885 19.4821 106.511 19.7574 106.46C21.0473 106.218 22.3577 106.096 23.6553 105.887C24.4124 105.765 24.7234 106.058 24.8305 106.798C26.434 117.854 28.1267 128.899 29.6487 139.968C30.5027 146.17 31.0839 152.408 31.785 158.631C32.0093 160.626 32.7308 160.891 34.6249 160.343C36.7663 159.728 39.0199 159.509 41.4213 159.081Z" fill="#E92465"/>
<path d="M73.2728 110.262C73.7367 113.087 74.165 115.67 74.5831 118.254C74.9553 120.559 76.0082 121.142 78.2209 120.491C80.9793 119.679 83.7835 119.015 86.784 118.231C87.0899 119.735 87.3627 121.066 87.6075 122.267C84.8236 123.303 82.1978 124.252 79.595 125.252C77.7672 125.955 77.6372 126.449 78.3586 128.215C78.9653 129.701 79.4268 131.249 79.9239 132.778C80.0921 133.292 80.1788 133.834 80.3241 134.458C78.6849 134.924 77.1222 135.366 75.6564 135.781C74.6749 133.585 73.8183 131.47 72.796 129.439C72.1307 128.121 71.0192 127.724 69.8287 128.113C68.7478 128.467 67.6822 128.874 66.5987 129.218C65.1838 129.666 63.7537 130.065 62.3388 130.508C61.4874 130.775 60.9724 130.729 60.6971 129.658C60.3963 128.497 59.7793 127.418 59.2822 126.263C62.4026 125.461 65.4286 124.677 68.4597 123.909C69.974 123.524 70.5629 122.886 70.5017 121.32C70.4609 120.318 70.206 119.317 69.9944 118.327C69.612 116.548 69.1913 114.777 68.786 113.003C68.6228 112.291 68.7809 111.779 69.5635 111.532C70.726 111.171 71.8732 110.746 73.2728 110.262Z" fill="#F9F9FA"/>
<path d="M463.152 30.1318C464.552 32.3562 465.78 34.3337 467.032 36.2959C467.542 37.0925 467.458 37.7899 466.846 38.4898C464.784 40.8541 462.754 43.2439 460.679 45.5955C456.978 49.7923 453.253 53.9687 449.541 58.1578C448.613 59.2038 448.259 59.2471 447.267 58.3004C446.747 57.8041 446.222 57.2823 445.847 56.6817C445.651 56.3661 445.603 55.768 445.773 55.4474C446.385 54.2945 447.076 53.1746 447.813 52.0981C452.391 45.4199 456.988 38.757 461.592 32.0966C462.018 31.4807 462.52 30.9208 463.152 30.1318Z" fill="#E92465"/>
<path d="M170.646 114.986C170.343 113.996 170.026 112.996 169.728 111.988C169.529 111.316 169.67 110.906 170.467 110.718C174.582 109.741 178.689 108.73 182.786 107.679C183.938 107.384 184.443 107.771 184.598 108.888C184.736 109.886 184.947 110.873 185.093 111.69C180.231 112.8 175.474 113.887 170.646 114.986Z" fill="#F7F7F8"/>
<path d="M170.574 123.41C175.946 122.957 181.161 122.517 186.5 122.066C186.5 122.957 186.5 123.649 186.5 124.535C183.994 124.835 181.48 125.126 178.969 125.439C176.907 125.696 174.839 125.925 172.79 126.266C171.721 126.444 171.094 126.238 170.957 125.077C170.901 124.591 170.74 124.115 170.574 123.41Z" fill="#F5F5F6"/>
<path d="M455.881 64.7315C456.888 63.9629 457.803 63.2198 458.767 62.5479C459.868 61.7793 461.013 61.0718 462.147 60.3286C462.338 60.5042 462.494 60.5933 462.573 60.7282C463.006 61.4484 463.419 62.1789 463.96 63.1154C462.874 63.5939 461.869 64.0724 460.837 64.4796C459.855 64.8664 458.83 65.1387 457.851 65.5307C456.99 65.8743 456.388 65.6961 455.881 64.7315Z" fill="#E22464"/>
<path d="M437.867 66.9434C437.847 65.8287 439.31 64.4416 440.547 64.4747C441.467 64.4976 442.229 64.8157 442.242 65.9279C442.26 67.2539 440.598 69.0049 439.326 69.0125C438.604 69.0151 437.888 68.0021 437.867 66.9434Z" fill="#E22464"/>
<path d="M447.137 74.9014C446.286 74.9142 445.235 73.942 445.355 73.1199C445.472 72.3259 445.725 71.5293 446.795 71.5064C447.859 71.4835 448.894 72.2444 448.901 73.0868C448.911 73.9929 448.04 74.8887 447.137 74.9014Z" fill="#E22464"/>
<path d="M247.899 102.533C245.533 101.477 243.305 100.573 241.164 99.4994C238.632 98.2295 236.159 96.8373 233.697 95.435C232.845 94.9514 232.641 94.053 233.049 93.203C234 91.2204 234.959 89.2327 236.088 87.3494C236.945 85.9191 237.916 85.7002 239.479 86.2957C250.341 90.434 261.201 94.5748 272.048 98.7512C273.308 99.2373 274.511 99.8965 275.684 100.571C277.56 101.65 278.131 102.991 277.624 105.142C277.295 106.542 276.897 107.934 276.413 109.285C275.462 111.935 274.486 112.444 271.679 111.772C271.725 112.176 271.768 112.522 271.804 112.869C272.495 119.249 272.556 125.545 269.693 131.536C266.983 137.207 262.463 139.986 256.256 140.538C250.362 141.063 245.801 138.864 241.969 134.56C239.277 131.536 237.049 128.299 236.012 124.339C234.581 118.872 236.374 114.146 239.458 109.761C241.462 106.913 243.981 104.607 247.127 103.034C247.341 102.928 247.529 102.775 247.899 102.533ZM269.339 116.826C269.267 116.816 269.198 116.806 269.127 116.796C269.127 115.951 269.275 115.075 269.099 114.268C268.589 111.929 267.687 109.886 265.125 108.975C261.285 107.61 257.5 106.094 253.694 104.64C252.353 104.129 251.269 103.823 249.696 104.714C246.227 106.676 243.397 109.158 241.319 112.507C239.247 115.851 237.949 119.44 239.132 123.392C240.521 128.047 242.589 132.257 246.994 134.982C249.439 136.494 251.909 137.362 254.787 137.217C259.649 136.97 263.832 135.553 266.154 130.859C266.827 129.498 267.518 128.08 267.809 126.609C268.451 123.374 268.844 120.091 269.339 116.826ZM253.074 101.026C253.762 99.2704 254.387 97.6797 255.052 95.9847C253.826 95.5495 252.615 95.1194 251.277 94.6435C250.614 96.3308 249.992 97.9215 249.321 99.6343C250.586 100.105 251.754 100.538 253.074 101.026ZM247.481 98.8937C248.149 97.1962 248.776 95.6055 249.434 93.9309C248.483 93.5797 247.555 93.2361 246.484 92.8416C245.821 94.5442 245.217 96.0942 244.582 97.7255C245.668 98.1633 246.594 98.5349 247.481 98.8937ZM271.743 101.953C270.883 101.622 270.08 101.309 269.119 100.937C268.666 102.64 268.225 104.208 267.855 105.796C267.806 106.005 268.064 106.422 268.283 106.529C268.905 106.829 269.581 107.017 270.223 107.244C270.746 105.424 271.23 103.737 271.743 101.953ZM264.757 99.3493C264.148 101.182 263.595 102.846 263.011 104.597C263.886 104.923 264.696 105.226 265.545 105.544C266.129 103.709 266.675 102.006 267.238 100.232C266.435 99.9474 265.688 99.6801 264.757 99.3493ZM244.868 92.2155C243.996 91.8439 243.19 91.5029 242.291 91.1186C241.587 92.7169 240.919 94.2337 240.215 95.8295C241.115 96.2163 241.911 96.5548 242.76 96.9188C243.481 95.3103 244.149 93.8189 244.868 92.2155ZM257.023 102.386C257.755 100.68 258.443 99.0744 259.159 97.4023C258.3 97.1096 257.523 96.8424 256.623 96.537C256.034 98.316 255.491 99.9626 254.927 101.665C255.748 101.948 256.37 102.162 257.023 102.386ZM261.061 103.877C261.762 102.106 262.404 100.484 263.085 98.7614C262.341 98.4992 261.64 98.2524 260.842 97.9724C260.222 99.6827 259.628 101.324 258.996 103.068C259.735 103.355 260.388 103.612 261.061 103.877ZM238.071 89.472C237.421 91.1033 236.838 92.5642 236.231 94.0836C237.003 94.4144 237.613 94.674 238.342 94.9871C239.073 93.4473 239.767 91.9865 240.511 90.4162C239.667 90.0904 238.974 89.8206 238.071 89.472ZM273.239 108.448C273.734 106.712 274.213 105.027 274.72 103.248C274.294 103.078 273.937 102.933 273.527 102.767C272.997 104.582 272.507 106.264 272.01 107.974C272.24 108.086 272.423 108.188 272.617 108.267C272.762 108.326 272.92 108.356 273.239 108.448Z" fill="#352E4E"/>
<path d="M315.017 109.018C315.762 112.268 316.72 115.309 317.115 118.422C317.85 124.178 317.1 129.788 313.985 134.819C313.1 136.25 311.678 137.364 310.426 138.545C309.508 139.413 308.532 140.25 307.471 140.938C302.743 144.002 297.33 143.539 292.239 140.07C283.85 134.354 282.613 123.601 286.511 116.23C286.764 115.752 287.008 115.271 287.337 114.635C286.725 114.594 286.193 114.713 285.859 114.507C285.104 114.039 283.998 113.522 283.829 112.83C283.024 109.555 282.437 106.221 281.882 102.889C281.698 101.787 281.726 100.998 283.531 100.914C286.72 100.769 289.863 99.8606 293.05 99.4559C298.008 98.8248 302.98 98.3005 307.953 97.8271C310.401 97.5955 312.868 97.598 315.323 97.4581C315.905 97.425 316.542 97.3563 317.042 97.0941C318.201 96.4884 319.076 97.0152 319.507 97.906C320.738 100.446 321.439 103.172 321.24 106.007C321.108 107.895 320.282 108.504 318.311 108.689C317.141 108.796 315.968 108.921 315.017 109.018ZM295.148 113.001C294.705 113.067 294.325 113.184 293.953 113.166C291.194 113.049 290.047 114.731 289.119 117.04C285.573 125.861 288.306 134.058 296.29 138.212C299.041 139.645 301.82 139.759 304.619 138.456C306.118 137.759 307.533 136.883 309.024 136.171C310.396 135.514 311.313 134.514 311.963 133.15C315.693 125.319 314.747 117.516 311.882 109.542C308.723 110.267 305.575 110.99 302.419 111.713C303.125 114.141 301.575 117.182 299.982 117.577C298.144 118.035 296.976 116.989 295.148 113.001ZM304.976 101.66C303.584 101.78 302.301 101.889 301.014 101.998C301.649 104.121 302.235 106.081 302.839 108.107C304.117 107.819 305.33 107.544 306.5 107.279C305.975 105.34 305.491 103.559 304.976 101.66ZM299.097 102.182C297.991 102.311 297.017 102.423 295.972 102.546C296.645 104.829 297.254 106.893 297.891 109.058C298.804 108.898 299.655 108.745 300.665 108.567C300.124 106.371 299.625 104.33 299.097 102.182ZM291.498 103.126C292.303 105.49 293.027 107.615 293.764 109.781C294.531 109.628 295.054 109.527 295.673 109.404C295.079 107.167 294.519 105.052 293.927 102.833C293.223 102.917 292.568 102.996 291.498 103.126ZM289.741 110.501C290.371 110.346 290.983 110.196 291.531 110.059C290.921 107.743 290.356 105.605 289.759 103.342C289.208 103.416 288.523 103.51 287.819 103.607C288.474 105.951 289.091 108.168 289.741 110.501ZM311.818 106.111C312.703 105.951 313.429 105.819 314.24 105.671C313.993 104.116 313.766 102.68 313.529 101.184C312.57 101.237 311.749 101.283 310.844 101.332C311.178 102.981 311.482 104.462 311.818 106.111ZM287.049 111.094C287.21 111.046 287.373 110.995 287.533 110.947C287.48 110.509 287.46 110.061 287.365 109.631C287.026 108.066 286.56 106.524 286.34 104.943C286.162 103.653 285.568 103.439 284.372 103.836C285.155 106.312 285.963 108.761 287.049 111.094ZM309.761 106.541C309.524 104.752 309.312 103.134 309.083 101.408C308.354 101.467 307.709 101.52 307.008 101.578C307.528 103.383 308.002 105.035 308.504 106.775C308.833 106.714 309.228 106.641 309.761 106.541ZM315.275 101.174C315.629 102.635 315.963 104.012 316.31 105.442C316.894 105.396 317.375 105.358 318 105.31C317.855 104.332 317.771 103.5 317.6 102.686C317.223 100.894 317.205 100.899 315.275 101.174Z" fill="#352E4E"/>
<path d="M264.154 154.93C257.669 155.114 252.022 155.297 246.375 155.416C244.723 155.452 243.064 155.355 241.417 155.21C241.014 155.175 240.647 154.717 240.265 154.452C240.65 154.243 241.019 153.892 241.422 153.849C245.05 153.452 248.675 152.999 252.315 152.77C265.949 151.912 279.565 152.563 293.173 153.462C297.027 153.716 300.884 153.95 304.739 154.208C305.114 154.233 305.611 154.236 305.827 154.465C306.256 154.918 306.84 155.559 306.778 156.048C306.717 156.524 305.878 157.318 305.471 157.267C303.26 156.984 301.68 157.458 300.464 159.572C300.023 160.339 298.412 160.667 297.3 160.758C296.015 160.863 295.447 161.323 295.082 162.517C294.753 163.591 294.172 164.609 293.576 165.574C293.007 166.492 292.117 167.009 290.975 166.803C289.803 166.592 288.946 165.787 288.836 164.711C288.655 162.924 288.635 161.087 288.852 159.305C289.224 156.221 289.3 156.18 286.218 156.025C278.591 155.633 270.956 155.266 264.154 154.93ZM299.179 157.389C299.113 157.221 299.044 157.055 298.977 156.887C296.423 156.712 293.866 156.536 291.174 156.35C291.735 159.063 290.226 161.611 291.444 164.192C291.969 163.421 292.431 162.629 292.693 161.779C293.655 158.664 294.164 158.275 297.412 158.073C298.014 158.035 298.593 157.626 299.179 157.389Z" fill="#363150"/>
<path d="M312.116 161.517C312.901 162.451 312.723 167.417 311.856 168.717C310.854 167.59 311.03 162.716 312.116 161.517Z" fill="#433F55"/>
<path d="M314.163 169.157C313.388 167.936 313.725 163.227 314.614 161.96C315.489 162.97 315.231 167.714 314.163 169.157Z" fill="#433F55"/>
<path d="M229.088 154.737C230.062 156.004 230.21 159.682 229.399 160.901C228.385 160.305 228.171 156.778 229.088 154.737Z" fill="#3A3654"/>
<path d="M310.204 167.836C309.108 166.996 308.833 165.016 309.472 164.354C309.597 164.225 309.906 164.1 310.015 164.164C310.202 164.276 310.418 164.54 310.413 164.736C310.388 165.691 310.291 166.642 310.204 167.836Z" fill="#433F55"/>
<path d="M230.483 156.801C231.62 157.259 231.793 158.987 230.891 160.122C229.991 159.588 229.991 159.588 230.483 156.801Z" fill="#393452"/>
<path d="M307.383 166.757C306.396 166.017 306.279 165.131 306.954 164.075C307.801 164.678 307.903 165.245 307.383 166.757Z" fill="#433F55"/>
<path d="M316.412 164.477C317.098 165.566 316.978 166.548 315.719 167.526C315.803 166.301 315.867 165.375 315.93 164.451C316.091 164.461 316.252 164.469 316.412 164.477Z" fill="#433F55"/>
<path d="M233.967 159.387C233.666 159.809 233.47 160.082 233.276 160.356C233.009 159.944 232.649 159.56 232.517 159.109C232.458 158.906 232.851 158.57 233.039 158.295C233.327 158.633 233.618 158.974 233.967 159.387Z" fill="#433F55"/>
<path d="M286.307 168.709C286.498 167.951 286.686 167.19 286.878 166.432C287.038 166.472 287.199 166.513 287.36 166.551C287.625 167.419 287.495 168.2 286.88 168.872C286.692 168.816 286.498 168.763 286.307 168.709Z" fill="#504C63"/>
<path d="M246.036 159.949C245.608 160.27 245.251 160.649 245.154 160.593C244.846 160.41 244.55 160.097 244.43 159.766C244.382 159.631 244.881 159.102 244.986 159.142C245.312 159.265 245.575 159.572 246.036 159.949Z" fill="#433F55"/>
<path d="M176.968 69.5338C176.131 70.1039 175.614 70.7274 175.211 70.6613C174.676 70.5747 174.227 69.9487 173.74 69.5542C174.24 69.1317 174.689 68.4954 175.255 68.3631C175.614 68.2766 176.149 68.9434 176.968 69.5338Z" fill="#433F55"/>
<path d="M181.297 61.4001C180.718 61.9498 180.364 62.2883 180.009 62.6294C179.685 62.1636 179.183 61.7284 179.104 61.2245C179.051 60.886 179.596 60.4559 179.872 60.064C180.282 60.4508 180.692 60.8351 181.297 61.4001Z" fill="#433F55"/>
<path d="M269.339 116.826C268.844 120.089 268.449 123.374 267.809 126.607C267.519 128.075 266.828 129.495 266.155 130.857C263.832 135.55 259.651 136.968 254.787 137.214C251.909 137.359 249.439 136.494 246.994 134.98C242.589 132.254 240.524 128.045 239.132 123.39C237.952 119.437 239.247 115.849 241.319 112.505C243.395 109.155 246.227 106.676 249.696 104.712C251.269 103.821 252.353 104.124 253.694 104.638C257.5 106.094 261.286 107.608 265.125 108.972C267.687 109.883 268.589 111.927 269.099 114.266C269.275 115.073 269.127 115.948 269.127 116.793C269.199 116.806 269.27 116.816 269.339 116.826ZM251.591 112.365C251.591 112.604 251.568 112.861 251.593 113.11C251.728 114.424 252.488 115.411 253.446 115.541C254.525 115.686 255.759 115.055 256.121 113.843C256.462 112.701 256.651 111.436 256.551 110.257C256.421 108.715 254.693 108.046 253.362 108.858C252.057 109.657 251.412 110.799 251.591 112.365Z" fill="#FCFCFC"/>
<path d="M253.074 101.026C251.751 100.538 250.586 100.105 249.319 99.6368C249.99 97.924 250.614 96.3334 251.275 94.646C252.616 95.1219 253.826 95.552 255.05 95.9872C254.387 97.6797 253.763 99.2703 253.074 101.026Z" fill="#F3F2F4"/>
<path d="M247.482 98.8934C246.594 98.5371 245.669 98.163 244.583 97.7252C245.218 96.0939 245.822 94.5414 246.485 92.8413C247.556 93.2358 248.483 93.5794 249.434 93.9306C248.777 95.6052 248.149 97.1959 247.482 98.8934Z" fill="#F3F2F4"/>
<path d="M271.743 101.953C271.231 103.74 270.746 105.427 270.224 107.244C269.584 107.018 268.906 106.829 268.284 106.529C268.065 106.422 267.807 106.005 267.856 105.796C268.225 104.21 268.666 102.64 269.12 100.938C270.081 101.309 270.887 101.62 271.743 101.953Z" fill="#F3F2F4"/>
<path d="M264.758 99.3491C265.689 99.68 266.436 99.9447 267.241 100.232C266.675 102.004 266.132 103.709 265.549 105.544C264.7 105.228 263.887 104.923 263.015 104.597C263.596 102.849 264.149 101.184 264.758 99.3491Z" fill="#F3F2F4"/>
<path d="M244.868 92.2156C244.149 93.8215 243.481 95.3103 242.76 96.9188C241.911 96.5549 241.116 96.2138 240.216 95.8295C240.919 94.2338 241.587 92.7169 242.291 91.1187C243.193 91.5004 243.996 91.844 244.868 92.2156Z" fill="#F0F0F2"/>
<path d="M257.023 102.386C256.371 102.162 255.749 101.948 254.928 101.665C255.491 99.9627 256.034 98.3161 256.623 96.5371C257.52 96.8425 258.3 97.1098 259.16 97.4024C258.441 99.0745 257.755 100.68 257.023 102.386Z" fill="#F3F2F4"/>
<path d="M261.061 103.877C260.391 103.612 259.738 103.358 258.996 103.065C259.628 101.322 260.222 99.68 260.842 97.9697C261.64 98.2497 262.341 98.4966 263.085 98.7587C262.402 100.482 261.762 102.105 261.061 103.877Z" fill="#F0F0F2"/>
<path d="M238.072 89.4717C238.975 89.8204 239.665 90.0901 240.512 90.4184C239.767 91.9887 239.074 93.447 238.342 94.9893C237.613 94.6763 237.004 94.4167 236.231 94.0858C236.838 92.5639 237.422 91.1031 238.072 89.4717Z" fill="#F0F0F2"/>
<path d="M273.239 108.448C272.92 108.356 272.762 108.325 272.615 108.267C272.421 108.188 272.24 108.089 272.008 107.974C272.507 106.264 272.997 104.582 273.525 102.767C273.935 102.933 274.295 103.078 274.718 103.248C274.213 105.027 273.734 106.712 273.239 108.448Z" fill="#EDEDEF"/>
<path d="M295.148 113.001C296.976 116.989 298.143 118.035 299.984 117.582C301.577 117.188 303.127 114.149 302.421 111.718C305.579 110.993 308.728 110.27 311.884 109.547C314.749 117.518 315.695 125.324 311.965 133.155C311.315 134.519 310.398 135.522 309.026 136.176C307.535 136.889 306.12 137.764 304.621 138.462C301.822 139.762 299.043 139.648 296.292 138.217C288.305 134.061 285.575 125.864 289.121 117.045C290.049 114.734 291.196 113.052 293.955 113.172C294.324 113.184 294.702 113.067 295.148 113.001Z" fill="#FCFCFC"/>
<path d="M304.976 101.66C305.491 103.559 305.975 105.343 306.503 107.277C305.33 107.542 304.119 107.817 302.842 108.104C302.235 106.078 301.649 104.119 301.017 101.996C302.299 101.887 303.584 101.777 304.976 101.66Z" fill="#F5F5F6"/>
<path d="M299.097 102.182C299.625 104.33 300.124 106.368 300.665 108.57C299.655 108.748 298.804 108.901 297.891 109.061C297.251 106.895 296.645 104.831 295.972 102.548C297.017 102.426 297.991 102.311 299.097 102.182Z" fill="#F3F2F4"/>
<path d="M291.497 103.126C292.565 102.996 293.22 102.918 293.929 102.831C294.518 105.053 295.081 107.165 295.675 109.402C295.056 109.525 294.533 109.629 293.766 109.779C293.029 107.616 292.303 105.491 291.497 103.126Z" fill="#F0F0F2"/>
<path d="M289.741 110.501C289.091 108.168 288.474 105.951 287.821 103.607C288.525 103.51 289.208 103.419 289.761 103.342C290.358 105.605 290.921 107.743 291.533 110.059C290.98 110.196 290.371 110.346 289.741 110.501Z" fill="#F0F0F2"/>
<path d="M311.818 106.111C311.482 104.462 311.178 102.981 310.842 101.334C311.749 101.283 312.568 101.237 313.526 101.187C313.763 102.683 313.99 104.118 314.237 105.673C313.429 105.819 312.703 105.951 311.818 106.111Z" fill="#F3F2F4"/>
<path d="M287.048 111.095C285.962 108.761 285.154 106.315 284.369 103.836C285.565 103.439 286.159 103.653 286.337 104.943C286.556 106.524 287.023 108.066 287.362 109.631C287.456 110.061 287.477 110.507 287.53 110.947C287.37 110.995 287.209 111.044 287.048 111.095Z" fill="#EDEDEF"/>
<path d="M309.761 106.542C309.228 106.641 308.833 106.715 308.504 106.776C308.002 105.035 307.528 103.383 307.008 101.579C307.709 101.52 308.354 101.469 309.083 101.408C309.31 103.134 309.524 104.752 309.761 106.542Z" fill="#EDEDEF"/>
<path d="M315.274 101.174C317.204 100.897 317.222 100.894 317.599 102.686C317.77 103.5 317.854 104.333 318 105.31C317.375 105.358 316.893 105.396 316.309 105.442C315.963 104.014 315.629 102.638 315.274 101.174Z" fill="#F0F0F2"/>
<path d="M299.179 157.389C298.59 157.626 298.014 158.038 297.415 158.074C294.167 158.275 293.657 158.664 292.696 161.779C292.433 162.629 291.972 163.421 291.447 164.192C290.228 161.611 291.738 159.064 291.177 156.351C293.869 156.536 296.423 156.712 298.98 156.888C299.046 157.056 299.113 157.221 299.179 157.389Z" fill="#F0F0F2"/>
<path d="M251.59 112.365C251.409 110.799 252.057 109.657 253.365 108.855C254.695 108.041 256.424 108.712 256.554 110.255C256.653 111.436 256.465 112.698 256.123 113.841C255.761 115.052 254.527 115.686 253.449 115.538C252.49 115.408 251.731 114.421 251.596 113.108C251.57 112.861 251.59 112.606 251.59 112.365Z" fill="#363250"/>
</svg>
