<svg width="747" height="839" viewBox="0 0 747 839" fill="none" xmlns="http://www.w3.org/2000/svg">
<path fill-rule="evenodd" clip-rule="evenodd" d="M10.6086 139.927C11.3333 142.968 10.6512 306.242 10.6805 314.646C10.7311 328.766 12.0062 342.848 12.0927 357.607C12.1339 364.429 11.7193 372.915 12.3562 379.524C14.3381 400.067 13.602 422.659 13.6047 443.535C13.608 458.8 12.4906 471.374 12.2318 485.807C11.71 515.092 10.574 543.014 10.594 572.43C10.6033 586.989 10.536 601.527 10.6199 616.088C10.7084 631.267 12.6657 642.973 11.9143 658.361C11.543 665.952 10.6246 671.102 10.6246 679.149C10.6266 686.175 10.6459 693.705 10.0336 700.128C8.69327 714.197 10.2958 728.174 8.54485 742.328C7.62777 749.723 6.13034 754.418 6.13899 762.306C6.14698 769.486 6.04713 776.615 5.98457 783.789C5.79024 806.347 12.5625 818.664 12.5871 820.385C14.0959 821.716 14.3461 823.938 15.2632 825.343C18.5475 825.113 17.2664 824.768 19.2942 823.058C20.5527 821.997 21.6821 821.641 22.9599 820.492C25.6066 818.117 25.3803 816.557 25.9161 814.637L27.2058 811.707C27.0827 809.41 29.1398 804.342 29.5052 800.451C29.9258 795.974 30.0223 791.977 30.0829 787.254C30.1627 781.04 29.8306 766.476 31.1763 761.293C32.5246 759.127 29.9204 761.123 32.6717 759.396C33.4217 758.926 33.7605 759.037 34.7554 758.849C35.8668 760.815 35.8369 761.604 37.2804 763.956C44.4326 763.174 66.1264 765.874 78.4258 766.053C85.4616 766.156 91.3208 767.065 99.1898 767.126C106.262 767.178 113.633 767.029 120.667 767.315C148.652 768.457 177.276 768.543 205.888 768.586C263.855 768.671 321.823 768.558 379.792 768.622C390.081 768.633 522.302 768.426 531.08 767.245L548.844 763.881C564.438 763.069 556.425 763.017 568.418 761.147C571.928 760.601 575.466 761.126 578.894 760.444L596.351 756.521C602.302 755.498 605.809 756.521 615.427 753.935C630.111 749.987 625.167 752.385 633.247 750.645C636.218 750.007 640.35 749.057 642.563 748.707C646.421 748.094 649.114 748.841 652.69 747.662C655.63 746.695 657.702 746.235 660.913 745.488C664.459 744.665 665.842 743.901 670.084 743.717C675.301 743.495 682.971 741.537 687.973 739.933C689.916 739.309 695.177 739.541 696.743 738.482C698.838 736.66 697.545 715.193 697.201 712.777L693.675 635.982C693.557 635.789 693.454 635.543 693.391 635.365C692.115 631.793 692.796 636.435 692.628 631.358L692.633 618.859C692.686 600.373 691.089 586.819 690.957 570.351C690.773 547.877 690.492 525.622 690.844 503.133C692.234 414.439 692.47 324.006 692.626 234.949C692.665 212.323 692.646 189.662 692.564 167.036C692.508 152.025 693.387 111.796 692.483 100.099C671.155 98.4309 633.036 107.272 591.801 101.778C585.83 100.983 581.974 100.253 575.173 100.241C552.011 100.206 561.274 100.05 556.811 87.6694L552.937 79.0473C552.873 78.9461 552.674 78.853 552.628 78.5974C552.58 78.3371 552.425 78.2878 552.31 78.144C549.063 82.3463 545.682 93.191 545.102 98.2379C541.191 95.3596 541.548 90.6768 539.994 86.4466C534.695 87.2654 539.363 88.1853 532.808 98.9468C521.54 99.4866 464.301 98.5487 449.713 97.4684C446.406 97.2228 445.909 96.0885 442.859 96.0379C440.482 95.9986 438.338 96.645 435.235 96.7102C429.438 96.8334 425.04 97.2181 419.285 97.3732C406.714 97.7087 416.637 99.434 396.464 97.0184C393.728 96.6909 392.33 95.6938 390.019 95.2751C385.278 94.4137 379.217 95.99 373.678 94.887C354.778 91.1221 354.727 94.8477 343.071 94.1827C333.895 93.6589 327.625 95.3303 310.956 93.8799C300.104 92.9353 289.392 93.9964 278.636 94.0503C233.82 94.2713 189.891 92.9014 144.918 92.8388C131.722 92.8208 87.504 92.1812 77.8401 92.9666C67.5193 93.8067 55.403 93.6103 44.428 93.4219C36.5264 93.2861 19.5218 91.3704 11.8917 93.1909C10.9746 100.238 12.2777 133.47 11.5802 137.275C11.5316 137.544 11.4804 137.715 11.4232 137.957C11.3646 138.199 11.2535 138.428 11.1975 138.623L10.6086 139.927V139.927Z" fill="#F3DABC"/>
<path fill-rule="evenodd" clip-rule="evenodd" d="M30.9702 823.448L31.2876 825.752C44.3922 826.936 62.6306 825.885 76.3262 825.91C91.3342 825.936 106.354 825.946 121.362 825.867C129.129 825.826 135.061 824.901 142.118 824.574L185.13 822.383C192.379 822.211 198.665 821.272 206.58 821.162C221.624 820.954 236.448 820.917 250.918 820.249C265.529 819.574 278.752 818.321 293.88 818.144C301.019 818.06 323.655 815.112 335.449 814.652L378.031 812.498C382.147 811.943 382.81 811.234 387.378 811.157L408.905 810.133C412.815 809.915 414.855 809.113 419.255 808.994C450.209 808.17 476.419 807.122 507.275 806.975C514.642 806.94 522.098 807.021 529.45 806.818C540.15 806.522 561.624 804.341 571.695 804.172C599.732 803.701 603.92 800.72 636.331 804.352C650.812 805.974 664.919 804.763 679.808 804.73C687.034 804.712 692.824 802.886 699.048 801.706C704.991 800.577 715.19 801.019 722.053 800.902C722.243 794.442 723.334 797.65 724.868 793.705C725.506 792.062 725.346 790.681 725.809 788.976C727.082 784.3 728.99 786.64 730.061 776.787C730.922 768.861 733.832 770.569 734.899 759.514C735.424 754.078 737.036 755.618 738.33 746.358C738.65 744.065 741.601 737.515 742.058 733.277C737.663 733.066 736.505 735.143 732.974 735.76C727.987 736.631 727.871 736.106 723.226 737.877C719.185 739.419 717.442 738.559 713.353 739.671C710.459 740.457 707.567 741.904 704.782 742.793C701.104 743.966 697.485 743.212 693.935 743.987C691.276 744.569 687.679 745.831 684.957 746.628C677.87 748.706 671.431 748.134 665.208 750.446C661.229 751.923 659.307 751.262 654.818 751.665C651.575 751.957 648.26 753.04 644.946 753.828C635.077 756.168 629.447 756.149 625.08 757.404C611.822 761.215 607.141 759.671 595.107 762.803C590.873 763.904 588.761 763.539 584.2 763.842C578.956 764.189 570.582 766.904 564.98 767.937C561.662 768.548 557.361 768.198 554.103 768.891C551.274 769.49 547.274 770.379 544.492 770.829C530.631 773.074 474.405 771.199 451.901 772.715C437.397 773.692 420.271 772.441 405.906 773.76C388.448 775.367 236.966 773.569 218.359 773.242C210.527 773.104 202.637 773.093 194.802 773.083L172.677 772.219C151.587 771.497 67.3019 772.108 56.4148 770.459C51.3149 769.688 40.9189 768.305 35.6228 768.608C34.9586 778.212 35.7731 788.623 35.4444 798.346C35.1076 808.297 30.4231 816.14 30.9702 823.448V823.448Z" fill="#F3DABC"/>
<path fill-rule="evenodd" clip-rule="evenodd" d="M584.479 71.3226C600.824 72.8123 621.809 70.9678 638.915 71.2673C651.907 71.495 681.671 74.8471 689.204 73.85C689.302 71.0643 688.099 66.8474 687.035 64.8272C685.556 62.0182 685.358 59.1965 683.649 57.1416C682.592 55.8716 681.739 55.4329 680.926 53.7335C678.484 48.6227 679.046 49.0307 674.546 43.3768C670.633 38.4576 675.07 42.0049 668.926 37.2528C666.89 35.6766 665.777 33.7968 663.137 31.939C660.479 30.0678 659.068 29.5952 656.458 27.547C651.366 23.5498 641.005 17.0738 635.063 14.8359C624.446 10.8367 581.792 12.0568 569.611 12.5281C540.596 13.651 509.72 13.7821 480.254 13.7848C450.285 13.7881 420.482 14.3872 390.877 14.6202C347.565 14.9603 299.641 17.7074 257.836 15.8183C224.628 14.3173 198.158 16.5366 167.782 15.5055C160.101 15.2452 153.491 14.1995 146.323 13.9878C128.468 13.466 121.923 12.8096 104.428 11.063C97.2049 10.3408 89.8303 10.9811 82.6029 10.5684C75.7454 10.177 68.2563 9.43882 61.6132 8.77118C58.4347 8.45167 44.2253 7.17496 41.7882 5.6067C33.9698 7.46784 24.399 3.66701 20.5117 3.76353C21.6444 7.12105 22.3958 6.28965 22.9768 9.73503C25.6967 25.8476 30.2156 34.6774 30.8179 47.0678C31.8029 67.322 34.019 63.2822 39.5887 62.7663L95.0593 59.283C116.228 58.5821 139.58 58.8018 160.825 58.1521C205.444 56.7849 251.285 58.6527 295.265 58.6021C322.696 58.5708 349.594 58.5694 376.341 61.5029C379.331 61.8298 379.314 62.4768 383.214 62.544C386.165 62.5946 389.712 62.6911 392.018 62.992C402.645 64.3805 414.707 62.331 425.389 63.5997L488.57 67.8838C499.473 67.975 508.571 70.5797 519.744 70.7747C525.319 70.8726 530.8 70.8825 536.375 70.8533C539.145 70.8399 541.919 70.8166 544.688 70.8253C545.996 70.8286 552.122 71.2134 553.098 69.9999C553.949 67.8852 555.571 50.2043 555.582 46.8647C562.715 49.5559 560.202 59.0753 565.474 59.3176L568.448 46.1252C569.379 40.5118 569.066 35.182 568.05 30.3135C573.696 31.1535 572.469 33.5059 574.839 37.7554C579.31 45.7744 585.109 65.0628 584.479 71.3226V71.3226Z" fill="#F3DABC"/>
<path fill-rule="evenodd" clip-rule="evenodd" d="M722.053 800.901C716.052 814.573 699.896 810.646 686.029 810.731C670.967 810.825 656.409 811.047 641.688 811.358C612.18 811.98 583.069 813.178 553.003 813.45C538.574 813.58 524.222 815.191 510.057 815.554C495.701 815.922 480.845 816.649 467.032 817.585C453.289 818.517 437.33 818.093 423.45 818.674C408.767 819.288 394.399 820.327 379.801 820.754C350.464 821.612 321.079 821.301 292.883 824.04L249.537 825.811C234.324 825.925 219.383 826.282 204.486 826.662L161.554 828.782C146.838 829.059 131.215 828.249 117.054 829.401C102.972 830.548 87.3459 830.316 72.8617 830.342C58.1498 830.37 42.3199 831.799 28.4972 831.565L30.9702 823.447C30.4232 816.14 35.1077 808.297 35.4445 798.346C35.7732 788.623 34.9587 778.211 35.6229 768.607C40.919 768.305 51.315 769.688 56.4148 770.459C67.302 772.107 151.587 771.496 172.677 772.219L194.802 773.083C202.638 773.093 210.527 773.104 218.359 773.242C236.966 773.569 388.448 775.366 405.906 773.76C420.271 772.441 437.397 773.692 451.901 772.714C474.405 771.199 530.631 773.073 544.492 770.829C547.275 770.379 551.274 769.489 554.103 768.89C557.361 768.198 561.662 768.548 564.98 767.936C570.582 766.903 578.956 764.189 584.201 763.842C588.761 763.539 590.873 763.904 595.107 762.802C607.141 759.671 611.822 761.215 625.08 757.404C629.447 756.149 635.077 756.168 644.946 753.827C648.26 753.04 651.575 751.956 654.818 751.665C659.307 751.262 661.229 751.923 665.208 750.445C671.432 748.133 677.87 748.705 684.957 746.628C687.679 745.83 691.276 744.568 693.935 743.987C697.485 743.212 701.104 743.966 704.782 742.792C707.567 741.904 710.459 740.457 713.353 739.67C717.442 738.559 719.185 739.419 723.226 737.877C727.871 736.105 727.988 736.631 732.974 735.76C736.505 735.143 737.663 733.065 742.058 733.277C741.601 737.514 738.65 744.064 738.33 746.358C737.037 755.618 735.424 754.078 734.899 759.514C733.832 770.568 730.922 768.861 730.061 776.787C728.99 786.64 727.082 784.299 725.809 788.976C725.346 790.68 725.506 792.061 724.868 793.705C723.334 797.65 722.243 794.442 722.053 800.901V800.901ZM697.114 454.623H698.5V461.554H697.114V454.623ZM4.26982 288.307H5.65609V365.923H4.26982V288.307ZM697.114 348.597C697.114 346.75 699.382 348.492 697.924 348.624C696.904 348.718 697.114 350.11 697.114 348.597ZM697.114 339.588H698.5V342.36H697.114V339.588ZM4.26982 286.228C4.26982 284.348 6.7495 286.228 4.89205 286.267C4.19126 286.281 4.26982 287.804 4.26982 286.228ZM41.7882 5.60676C47.5821 5.19938 56.4135 6.51534 62.3179 7.19829C68.2723 7.88723 75.7893 8.4484 81.8907 9.02485C88.657 9.6632 96.4781 9.11338 103.362 9.27047C112.085 9.47016 130.129 12.7604 142.146 12.7458C149.014 12.7378 154.49 13.1878 161.242 13.8341C174.692 15.1208 189.547 14.4219 203.117 14.119C231.412 13.484 259.375 14.6316 287.643 14.6855C315.362 14.7381 343.274 13.9193 370.779 13.2643C398.79 12.5987 426.548 12.6167 454.619 12.5574C468.457 12.5281 483.151 12.9488 496.892 12.399C535.9 10.8387 583.425 10.4766 622.287 11.1662C626.835 11.2461 676.913 14.3141 682.065 15.3651C702.035 19.4395 698.04 18.8944 701.898 25.7512C705.813 32.7085 712.374 51.7679 712.876 59.6199C713.155 63.9845 715.318 71.511 714.827 75.1287C709.362 75.6413 703.457 75.2938 698.457 74.7606C692.685 74.1469 688.857 75.6147 682.554 75.4855C671.937 75.2665 661.78 73.7163 651.27 73.253L600.116 73.1072C596.652 73.2476 584.881 74.1123 584.479 71.3226C585.109 65.0629 579.31 45.7744 574.839 37.7554C572.469 33.5059 573.696 31.1536 568.05 30.3135C569.066 35.182 569.379 40.5119 568.448 46.1253L565.474 59.3177C560.202 59.0754 562.714 49.556 555.582 46.8648C555.571 50.2043 553.949 67.8852 553.098 69.9999C552.122 71.2134 545.996 70.8287 544.688 70.8253C541.919 70.8167 539.145 70.84 536.375 70.8533C530.8 70.8826 525.319 70.8726 519.744 70.7748C508.571 70.5797 499.473 67.9751 488.57 67.8839L425.389 63.5998C414.707 62.3311 402.644 64.3806 392.018 62.992C389.712 62.6912 386.165 62.5947 383.214 62.5441C379.314 62.4768 379.331 61.8298 376.341 61.503C349.594 58.5695 322.696 58.5708 295.264 58.6021C251.285 58.6527 205.444 56.7849 160.825 58.1521C139.579 58.8018 116.228 58.5821 95.0592 59.2831L39.5887 62.7664C34.019 63.2823 31.8028 67.3221 30.8178 47.0678C30.2156 34.6775 25.6967 25.8477 22.9767 9.73509C22.3957 6.28971 21.6444 7.1211 20.5117 3.76359C24.3989 3.66707 33.9697 7.4679 41.7882 5.60676V5.60676ZM11.3416 11.1156C10.9702 13.1891 9.63317 24.4452 11.1978 26.7583L12.1402 24.3566C13.9557 18.1954 13.1404 10.4886 14.2012 7.14105C18.6688 7.36471 17.7784 13.3728 19.2632 19.5833C20.5543 24.987 22.4417 27.5584 23.1598 33.9446C23.8279 39.8722 25.5856 42.9441 26.1765 48.6654C26.7442 54.1689 26.3402 59.7084 27.037 65.168C33.6556 69.8988 49.5048 66.2251 58.3082 66.0487C66.48 65.8849 71.1041 64.9204 74.2067 64.8239C79.7304 64.6522 85.382 64.567 90.9104 64.5097C101.537 64.3965 113.262 63.2902 124.133 63.0499C135.455 62.7977 146.751 63.0906 158.081 63.0906C203.58 63.0952 249.074 63.0726 294.572 63.1331C316.416 63.1644 338.826 64.567 359.848 66.2025C381.683 67.9018 404.001 67.1044 425.856 68.9103C447.896 70.7322 472.112 70.3474 490.997 72.5474L521.792 75.1501C532.895 75.4303 544.434 75.2466 555.081 75.7392C555.813 73.456 557.178 70.7335 557.541 69.064C558.222 65.9355 557.115 63.2217 558.546 60.442C561.07 61.5043 560.536 64.7014 561.527 67.7281C564.633 68.1441 565.05 67.9704 566.127 65.2712L573.096 49.6299C577.124 51.314 577.836 57.9717 578.61 61.9263C579.262 65.2725 580.084 65.9322 580.734 68.4044C581.369 70.82 581.166 73.1578 581.835 75.841C598.524 78.7139 621.085 76.687 638.919 77.1323C647.956 77.3587 657.306 78.0969 666.035 78.8723C669.196 79.1539 691.51 80.1916 692.325 81.0876C695.307 87.9377 693.575 329.176 693.489 358.991L692.176 497.589C691.921 520.878 691.841 544.294 692.292 567.58C692.609 583.919 695.207 622.153 693.675 635.982L697.201 712.777C697.546 715.193 698.839 736.66 696.744 738.482C695.178 739.541 689.916 739.309 687.974 739.933C682.972 741.537 675.301 743.495 670.084 743.717C665.842 743.901 664.46 744.665 660.913 745.488C657.702 746.235 655.63 746.695 652.691 747.662C649.114 748.841 646.421 748.094 642.563 748.707C640.35 749.057 636.218 750.007 633.247 750.645C625.167 752.385 630.111 749.987 615.427 753.935C605.809 756.521 602.302 755.498 596.351 756.521L578.895 760.444C575.466 761.126 571.929 760.601 568.418 761.147C556.425 763.017 564.438 763.069 548.844 763.881L531.08 767.245C522.302 768.426 390.082 768.633 379.792 768.622C321.824 768.558 263.855 768.671 205.888 768.586C177.276 768.543 148.652 768.457 120.668 767.315C113.634 767.029 106.262 767.178 99.19 767.126C91.321 767.065 85.4618 766.156 78.426 766.053C66.1266 765.874 44.4329 763.174 37.2806 763.957L34.9473 763.592L33.6276 760.714L31.1765 761.293C29.8309 766.476 30.163 781.04 30.0831 787.254C30.0226 791.977 29.926 795.974 29.5054 800.451C29.14 804.342 27.0829 809.41 27.2061 811.707C27.4922 817.857 25.0159 827.977 20.8984 830.031C17.9994 829.644 19.0555 828.527 15.9229 826.952C14.0881 826.029 13.792 827.854 12.5874 820.385C12.5628 818.664 5.79049 806.348 5.98482 783.789C6.04737 776.615 6.14722 769.486 6.13924 762.306C6.13058 754.418 7.62802 749.723 8.5451 742.328C10.2961 728.174 8.69351 714.198 10.0339 700.128C10.6461 693.705 10.6268 686.175 10.6248 679.149C10.6248 671.102 11.5432 665.952 11.9146 658.361C12.6659 642.974 10.7087 631.267 10.6201 616.088C10.5363 601.527 10.6035 586.989 10.5942 572.43C10.5742 543.014 11.7102 515.092 12.232 485.807C12.4909 471.374 13.6083 458.8 13.605 443.536C13.6023 422.66 14.3384 400.068 12.3565 379.524C11.7196 372.915 12.1342 364.43 12.0929 357.607C12.0064 342.848 10.7313 328.766 10.6807 314.646C10.6514 306.242 11.3336 142.968 10.6088 139.927C8.86386 124.4 11.2338 102.625 11.2078 86.6497C11.1798 68.9462 10.7852 51.2228 10.8457 33.5286L8.78732 34.8905C8.73142 34.7926 8.54639 35.0103 8.42727 35.0722L5.65609 38.8358C5.65609 42.5401 5.66603 46.2431 5.63009 49.9474C5.55822 57.4592 7.00641 53.3082 7.09292 59.5726C7.19475 66.9193 7.04099 74.4298 7.04099 81.7992L4.26982 65.168C4.26982 69.6565 3.68749 86.0587 4.56131 89.1313L2.85892 112.317C2.95741 113.449 2.89485 113.093 3.17504 114.079L3.98035 116.047C4.63787 118.361 4.93264 134.747 3.78862 138.142C3.73471 138.304 3.63489 138.464 3.57766 138.623L3.17504 139.607C2.01638 143.68 3.78731 150.703 2.37642 156.186L2.54345 158.961C3.22893 161.765 3.24893 179.236 2.36979 182.525C1.28167 186.604 4.34503 184.154 4.31109 191.943L4.13269 267.38C3.28815 271.302 3.6249 266.176 2.91812 271.016V365.196C3.6269 370.038 3.28815 364.909 4.13269 368.831C4.95859 372.668 3.24891 375.135 4.97992 379.799C5.70865 381.762 7.32053 384.094 4.26982 385.325V388.097C5.12434 388.442 5.71533 387.494 5.7333 392.178L4.26982 583.517L2.88355 559.264C2.88355 567.282 2.19606 578.726 2.85892 586.315C3.43991 592.99 4.28313 583.151 4.26982 598.764C4.26849 601.087 4.25985 603.404 4.30244 605.725C4.4056 611.319 4.35367 610.644 2.88355 611.238L1.49929 676.378C1.44006 676.541 1.26834 676.593 1.24238 676.834C1.21776 677.063 1.04273 677.196 1.01478 677.28L0.736616 691.547C0.914974 692.384 1.00948 691.477 0.872383 692.659C0.649436 694.58 -0.79078 695.203 0.594154 700.893C0.878994 702.061 0.826468 701.266 0.861075 702.398L0.783865 703.053C0.785196 703.124 0.779206 703.32 0.783865 703.394C1.0148 706.126 1.78879 703.101 0.595519 707.351C-1.11618 713.435 1.62637 708.418 0.413803 713.384C-0.751512 718.157 1.46002 716.411 1.57449 722.089L0.991513 729.5C2.37445 734.879 1.49929 793.522 1.49929 804.183L2.5415 810.815L3.17302 812.201L4.0196 814.973L4.26982 816.359C6.59246 816.789 5.12898 815.454 5.77054 817.745L13.024 832.991C14.3843 833.595 13.6709 832.085 14.2532 834.377L15.3546 835.477C16.7641 836.068 16.4108 835.489 16.7409 836.88L18.6509 838.535L63.8553 838.689L65.2395 838.543L73.5798 837.122C75.0905 837.257 73.4587 837.008 74.8023 837.288C76.3217 837.606 75.4705 837.301 76.3263 837.85C84.9707 836.458 100.164 837.034 109.583 837.018V835.762C111.959 835.762 117.494 835.34 119.281 836.427C126.09 835.158 139.346 835.675 146.997 835.659V834.377L165.009 834.751L216.281 834.227V832.991C222.38 832.991 234.617 832.057 239.836 833.475C246.517 832.332 258.965 832.829 266.165 832.92V831.604L291.108 831.963L322.978 831.058C324.325 830.024 326.757 830.17 328.497 830.182C330.976 830.2 333.042 830.116 335.449 830.516L370.091 829.839C370.091 828.204 372.995 828.784 374.902 828.782C377.36 828.782 379.534 828.561 381.177 829.371C386.492 827.895 408.173 828.727 415.82 828.442C415.82 826.844 418.026 827.399 419.926 827.376C422.037 827.353 424.067 827.301 425.52 827.89L460.161 827.191V826.061C462.312 826.061 464.133 825.746 465.705 826.781L503.118 825.862V824.675L507.275 825.297L544.688 824.514V823.288C547.263 823.288 548.461 822.931 550.232 823.866L589.03 822.864C589.256 822.461 588.397 822.393 589.443 822.293C590.593 822.185 589.621 822.11 590.416 822.567C603.658 820.643 618.59 822.589 631.987 821.375C632.666 820.596 631.812 819.918 633.373 821.069C642.37 819.497 665.849 820.058 676.328 820.218V819.131L681.872 819.604C685.932 818.993 690.988 818.46 695.136 817.891C699.929 817.235 703.919 816.065 708.199 815.667C708.711 814.824 707.23 814.825 709.585 815.105C725.286 813.532 724.649 805.501 729.251 792.221C732.699 782.269 737.21 771.382 740.445 760.922C740.037 759.347 739.643 760.287 741.111 759.535C742.437 754.894 744.539 739.193 745.843 737.359C745.105 733.851 746.29 733.25 746.293 733.242L746.999 727.659C745.23 727.659 741.771 727.465 740.206 727.795L738.672 728.336C738.508 728.392 738.344 728.484 738.177 728.536C738.007 728.591 737.836 728.664 737.661 728.713C736.316 729.089 736.014 728.937 734.711 729.226L726.251 732.545C725.215 732.972 727.117 732.496 724.665 733.038L720.681 733.905C717.126 735.063 718.601 734.28 715.892 734.66C711.518 735.274 709.246 737.359 701.271 737.359C701.326 734.868 702.092 735.259 702.079 733.897L701.611 732.268C700.862 729.207 701.004 725.579 701.778 722.569C702.548 719.582 699.037 706.9 701.778 696.237C701.996 695.391 701.945 696.139 702.037 695.436V694.739C701.906 693.734 701.307 693.873 701.226 690.295C701.137 686.316 700.841 675.028 701.778 671.288C702.446 668.623 700.862 669.683 701.734 665.802C702.2 663.734 701.819 666.368 702.014 664.972C702.025 664.885 702.061 664.696 702.063 664.611C702.088 663.061 700.148 660.978 701.778 654.658L701.467 651.337C700.713 647.354 702.178 649.418 700.367 644.018C698.973 639.862 700.057 603.219 699.937 594.554C699.886 590.933 697.32 585.999 698.61 582.244C699.261 580.35 697.998 581.509 699.885 580.746V535.009C696.554 533.803 700.445 534.829 697.114 533.623V525.307C698.916 524.58 698.58 527.586 698.503 517.688L699.595 463.341C700.621 459.733 699.885 244.579 699.885 231.484L697.114 336.817V224.109C696.143 180.446 697.832 136.264 696.665 94.2581C696.477 87.4419 692.417 79.1805 701.212 78.7006C708.175 78.3212 715.636 81.4444 720.67 79.6831C720.67 68.5795 719.544 70.5944 719.321 63.0526C719.284 61.7546 719.321 61.7812 719.007 60.5944L718.632 59.5839C718.575 59.4222 718.49 59.2518 718.433 59.0914C718.374 58.9296 718.298 58.7525 718.241 58.5908L714.969 48.6953C714.914 48.5229 714.857 48.3412 714.801 48.1714C714.745 48.0044 714.677 47.824 714.621 47.6589L714.249 46.6425L700.796 17.1344C699.685 15.3371 698.163 14.3726 696.212 13.4035L693.011 11.7553C690.112 10.5279 685.894 11.2574 682.775 10.2117C680.19 9.34433 676.674 10.1318 674.039 9.24782C672.175 8.62211 675.286 9.18193 672.034 8.48167C671.02 8.26201 669.798 8.30127 668.747 8.30327C665.554 8.31259 661.522 8.86774 658.453 8.20609C655.813 7.63696 656.131 6.88679 651.412 6.93272C637.172 7.07184 551.41 5.80311 546.556 7.4406C540.312 9.54403 504.792 8.3439 497.575 8.3439C491.109 8.3439 471.915 7.57439 466.429 8.3765C461.55 9.09007 467.287 9.25714 461.574 9.75505C448.734 10.876 387.247 8.58752 381.314 9.86822C378.059 10.5705 381.19 10.0007 379.31 10.6344C374.801 12.1534 195.323 11.1003 177.48 11.1156C174.112 11.1183 170.893 11.533 167.782 10.4227C167.148 10.1971 168.366 10.3215 166.258 9.86822C164.044 9.39028 156.667 9.72708 153.925 9.73041C151.944 9.73174 149.556 9.86289 147.638 9.77968L144.224 9.03616C138.725 7.07384 129.355 9.7617 123.439 7.6516C118.6 5.92425 111.633 7.83001 106.949 6.82023C100.67 5.4663 105.504 5.56282 95.7254 5.57081C79.8895 5.58545 87.1868 4.13233 72.1675 4.18758C70.5623 4.1929 67.3998 4.36264 65.9663 4.15296C61.0874 3.43806 66.8221 3.27232 61.1087 2.77308C57.3152 2.44292 52.3805 3.1565 48.5871 2.82567C42.8736 2.32644 48.6097 2.16136 43.7295 1.44712C40.6461 0.995814 36.5299 1.92838 33.5065 1.27538C30.8684 0.707584 31.1845 -0.0439214 26.466 0.00200812C22.3026 0.0426125 18.1358 0.0279774 13.9703 0.0279774V1.41452C12.4663 2.02226 12.6034 3.33491 12.0224 5.013L11.3416 11.1156V11.1156Z" fill="#3C231C"/>
<path fill-rule="evenodd" clip-rule="evenodd" d="M19.0309 45.5409C19.7477 47.3547 20.0126 48.0417 19.8063 50.2257C16.7935 49.825 15.1896 46.6246 15.2062 42.8497C18.1012 43.0134 18.042 43.044 19.0309 45.5409V45.5409ZM11.3416 11.1157H9.81291V23.5892H7.04102V27.7468C8.93241 28.5117 8.42729 25.4996 8.42729 35.0723C8.54641 35.0103 8.73144 34.7927 8.78734 34.8905L10.8458 33.5286C10.7852 51.2228 11.1799 68.9463 11.2078 86.6498C11.2338 102.625 8.86388 124.4 10.6089 139.927L11.1978 138.623C11.2537 138.428 11.3649 138.199 11.4235 137.957C11.4807 137.715 11.5319 137.544 11.5805 137.275C12.2779 133.47 10.9749 100.238 11.892 93.1911C19.5221 91.3706 36.5266 93.2863 44.4283 93.4221C55.4033 93.6105 67.5196 93.8068 77.8404 92.9668C87.5043 92.1813 131.722 92.821 144.918 92.839C189.891 92.9015 233.82 94.2714 278.637 94.0505C289.393 93.9965 300.104 92.9355 310.957 93.88C327.626 95.3305 333.896 93.659 343.071 94.1829C354.727 94.8479 354.778 91.1223 373.678 94.8872C379.218 95.9901 385.278 94.4139 390.02 95.2752C392.33 95.6939 393.728 96.6911 396.464 97.0186C416.637 99.4342 406.715 97.7088 419.286 97.3734C425.04 97.2183 429.438 96.8335 435.235 96.7104C438.338 96.6451 440.482 95.9988 442.859 96.0381C445.91 96.0887 446.407 97.2229 449.713 97.4686C464.302 98.5489 521.54 99.4868 532.808 98.9469C539.363 88.1855 534.695 87.2655 539.994 86.4468C541.548 90.677 541.191 95.3598 545.102 98.238C545.682 93.1911 549.063 82.3464 552.311 78.1442C552.425 78.288 552.581 78.3372 552.628 78.5975C552.674 78.8531 552.874 78.9463 552.937 79.0475L556.811 87.6696C561.274 100.05 552.011 100.206 575.173 100.242C581.975 100.253 585.83 100.983 591.801 101.779C633.036 107.272 671.155 98.4311 692.484 100.099C693.387 111.797 692.508 152.025 692.564 167.036C692.646 189.662 692.665 212.323 692.626 234.949C692.47 324.006 692.235 414.439 690.844 503.133C690.492 525.622 690.773 547.877 690.957 570.352C691.089 586.819 692.687 600.374 692.633 618.859L692.628 631.358C692.797 636.436 692.116 631.793 693.391 635.365C693.454 635.544 693.557 635.789 693.675 635.982C695.207 622.153 692.609 583.919 692.292 567.58C691.841 544.294 691.921 520.878 692.176 497.589L693.489 358.991C693.575 329.176 695.307 87.9378 692.325 81.0877C691.51 80.1917 669.196 79.154 666.036 78.8724C657.306 78.0969 647.956 77.3587 638.919 77.1324C621.085 76.6871 598.524 78.714 581.835 75.8411C581.166 73.1578 581.369 70.8201 580.734 68.4044C580.084 65.9322 579.262 65.2726 578.61 61.9264C577.836 57.9718 577.124 51.314 573.096 49.6299L566.127 65.2713C565.05 67.9705 564.633 68.1442 561.527 67.7282C560.536 64.7015 561.07 61.5044 558.546 60.442C557.115 63.2218 558.222 65.9356 557.541 69.0641C557.178 70.7336 555.813 73.4561 555.081 75.7392C544.434 75.2466 532.895 75.4304 521.792 75.1501L490.997 72.5474C472.112 70.3475 447.896 70.7322 425.856 68.9103C404.001 67.1044 381.683 67.9019 359.848 66.2025C338.826 64.567 316.416 63.1645 294.572 63.1332C249.074 63.0726 203.58 63.0953 158.081 63.0906C146.751 63.0906 135.455 62.7977 124.133 63.05C113.262 63.2903 101.537 64.3966 90.9105 64.5098C85.382 64.567 79.7305 64.6522 74.2067 64.824C71.1041 64.9205 66.48 65.885 58.3082 66.0488C49.5048 66.2251 33.6556 69.8988 27.037 65.1681C26.3402 59.7085 26.7442 54.169 26.1766 48.6654C25.5856 42.9442 23.828 39.8722 23.1598 33.9447C22.4417 27.5585 20.5543 24.9871 19.2632 19.5834C17.7784 13.3729 18.6689 7.36477 14.2013 7.14111C13.1404 10.4886 13.9557 18.1955 12.1402 24.3567L11.1978 26.7583C9.63319 24.4452 10.9702 13.1892 11.3416 11.1157V11.1157Z" fill="#875244"/>
<path fill-rule="evenodd" clip-rule="evenodd" d="M30.9701 823.447L28.4971 831.565C42.3198 831.799 58.1497 830.37 72.8616 830.342C87.3458 830.316 102.972 830.549 117.054 829.401C131.214 828.249 146.837 829.059 161.554 828.782L204.486 826.662C219.383 826.282 234.324 825.926 249.537 825.811L292.883 824.04C321.079 821.301 350.463 821.612 379.801 820.754C394.399 820.328 408.767 819.288 423.45 818.674C437.33 818.093 453.289 818.517 467.031 817.585C480.845 816.649 495.7 815.922 510.057 815.554C524.222 815.191 538.574 813.58 553.003 813.45C583.069 813.179 612.18 811.98 641.688 811.359C656.409 811.047 670.967 810.825 686.029 810.732C699.896 810.646 716.052 814.573 722.053 800.901C715.19 801.019 704.991 800.577 699.048 801.705C692.824 802.886 687.034 804.712 679.808 804.73C664.919 804.763 650.812 805.974 636.331 804.352C603.92 800.72 599.732 803.7 571.695 804.172C561.624 804.341 540.15 806.521 529.45 806.818C522.098 807.021 514.642 806.94 507.275 806.975C476.419 807.122 450.209 808.17 419.255 808.994C414.855 809.113 412.815 809.915 408.905 810.133L387.378 811.157C382.81 811.234 382.147 811.943 378.031 812.498L335.449 814.652C323.655 815.112 301.019 818.06 293.88 818.144C278.752 818.321 265.529 819.574 250.918 820.249C236.448 820.917 221.624 820.954 206.58 821.162C198.665 821.272 192.379 822.211 185.13 822.383L142.118 824.574C135.061 824.901 129.129 825.826 121.362 825.867C106.354 825.946 91.3342 825.936 76.3262 825.91C62.6306 825.885 44.3922 826.935 31.2875 825.752L30.9701 823.447V823.447Z" fill="#875244"/>
<path fill-rule="evenodd" clip-rule="evenodd" d="M584.479 71.3228C584.881 74.1125 596.652 73.2478 600.116 73.1074L651.27 73.2532C661.78 73.7165 671.937 75.2667 682.554 75.4857C688.857 75.6149 692.685 74.1471 698.457 74.7608C703.457 75.294 709.362 75.6415 714.827 75.1289C715.318 71.5112 713.155 63.9847 712.876 59.6201C712.374 51.7681 705.813 32.7087 701.898 25.7514C698.04 18.8946 702.035 19.4397 682.065 15.3653C676.913 14.3143 626.835 11.2463 622.287 11.1664C583.425 10.4768 535.9 10.8389 496.892 12.3992C483.151 12.949 468.457 12.5283 454.619 12.5576C426.548 12.6169 398.79 12.5989 370.779 13.2645C343.274 13.9195 315.362 14.7383 287.643 14.6857C259.374 14.6318 231.412 13.4842 203.117 14.1192C189.547 14.4221 174.692 15.121 161.242 13.8343C154.49 13.188 149.014 12.738 142.146 12.746C130.129 12.7606 112.085 9.47036 103.362 9.27067C96.478 9.11358 88.6569 9.6634 81.8906 9.02505C75.7892 8.4486 68.2722 7.88743 62.3178 7.19849C56.4134 6.51554 47.5821 5.19958 41.7881 5.60695C44.2252 7.17521 58.4346 8.45192 61.6131 8.77143C68.2562 9.43908 75.7453 10.1773 82.6027 10.5687C89.8302 10.9814 97.2047 10.341 104.428 11.0632C121.923 12.8099 128.468 13.4662 146.322 13.9881C153.491 14.1997 160.101 15.2455 167.782 15.5058C198.158 16.5368 224.627 14.3176 257.836 15.8186C299.641 17.7077 347.565 14.9606 390.877 14.6204C420.482 14.3875 450.285 13.7884 480.254 13.7851C509.72 13.7824 540.595 13.6513 569.611 12.5283C581.791 12.0571 624.446 10.8369 635.062 14.8361C641.005 17.074 651.366 23.5501 656.458 27.5473C659.068 29.5955 660.479 30.0681 663.137 31.9392C665.777 33.797 666.89 35.6768 668.926 37.2531C675.07 42.0051 670.633 38.4579 674.546 43.377C679.046 49.031 678.484 48.6229 680.926 53.7338C681.739 55.4332 682.592 55.8718 683.649 57.1419C685.358 59.1967 685.556 62.0184 687.035 64.8274C688.099 66.8477 689.302 71.0645 689.204 73.8502C681.67 74.8474 651.907 71.4952 638.915 71.2675C621.809 70.968 600.824 72.8125 584.479 71.3228V71.3228Z" fill="#875244"/>
<path fill-rule="evenodd" clip-rule="evenodd" d="M697.114 224.109C697.285 218.36 698.5 227.84 698.5 208.615C698.5 202.609 698.459 196.589 698.513 190.584C698.572 183.956 697.936 185.565 697.734 184.017L698.497 94.9625C698.487 93.7131 698.364 91.8673 698.41 90.7177C698.571 86.7172 697.939 88.1296 699.885 87.3442C700.228 86.4941 699.277 85.8052 704.721 85.8644L709.104 86.4389C709.266 86.4941 709.426 86.594 709.585 86.6499C716.22 89.0216 718.868 86.0295 722.056 85.9576V80.4128C719.254 80.4128 721.76 80.5519 720.67 79.6833C715.636 81.4446 708.175 78.3213 701.212 78.7008C692.417 79.1807 696.477 87.442 696.665 94.2582C697.832 136.264 696.143 180.446 697.114 224.109Z" fill="#010000"/>
<path fill-rule="evenodd" clip-rule="evenodd" d="M12.5869 820.385C13.7915 827.854 14.0877 826.029 15.9225 826.952C19.0551 828.527 17.9989 829.644 20.8979 830.031C25.0154 827.977 27.4918 817.857 27.2056 811.707L25.9158 814.637C25.3801 816.557 25.6064 818.117 22.9596 820.492C21.6818 821.641 20.5525 821.997 19.294 823.058C17.2662 824.768 18.5473 825.113 15.2629 825.343C14.3459 823.938 14.0956 821.716 12.5869 820.385V820.385Z" fill="#875244"/>
<path fill-rule="evenodd" clip-rule="evenodd" d="M19.8062 50.2256C20.0125 48.0416 19.7476 47.3547 19.0309 45.5408C18.0419 43.044 18.1012 43.0134 15.2062 42.8496C15.1895 46.6245 16.7934 49.8249 19.8062 50.2256V50.2256Z" fill="#3C231C"/>
<path fill-rule="evenodd" clip-rule="evenodd" d="M31.1768 761.293L33.6279 760.714L34.9476 763.592L37.2808 763.957C35.8373 761.604 35.8673 760.815 34.7559 758.849C33.761 759.037 33.4222 758.926 32.6721 759.396C29.9209 761.123 32.5251 759.127 31.1768 761.293Z" fill="#AD9279"/>
<path d="M7.55225 82.1191C5.94702 79.9788 7.10069 76.5484 7.43408 74.2147C7.78699 71.7443 7.7886 69.3073 7.7886 66.8092C7.7886 62.0511 7.33914 56.9613 8.20877 52.2871C8.46754 50.8962 8.26129 49.2432 8.26129 47.8359C8.26129 44.7247 9.12568 41.7093 9.20667 38.6316C9.24111 37.3227 9.44302 36.0486 9.44302 34.745C9.44302 33.5498 9.39493 32.3447 9.67936 31.1735C9.87031 30.3873 10.1521 29.8849 10.1521 29.0596C10.1521 25.4219 11.7454 21.9908 12.0297 18.4371C12.1765 16.6015 12.8932 14.8273 12.9882 12.9749C13.0902 10.9861 13.3866 8.66553 13.9336 6.75118C14.2571 5.61892 13.9586 3.22889 15.4567 2.95652C17.858 2.51991 17.7238 6.17634 19.3695 6.72492" stroke="#3C231C" stroke-width="5" stroke-linecap="round"/>
<path d="M4.70215 284.994V365.521" stroke="#3C231C" stroke-width="2" stroke-linecap="round"/>
</svg>
