<svg width="450" height="450" viewBox="0 0 450 450" fill="none" xmlns="http://www.w3.org/2000/svg">
<g filter="url(#filter0_df_10_6682)">
<path d="M116.791 224.342C113.822 174.66 142.305 133.921 188.029 122.08C223.929 112.784 257.112 119.571 288.019 140.415C309.628 154.989 324.439 175.091 331.474 201.342C334.093 211.121 334.703 221.142 333.093 231.154C330.091 249.894 324.512 267.728 316.452 284.769C306.448 305.923 290.223 318.841 269.418 325.999C252.298 331.889 234.632 332.372 216.861 331.708C212.957 331.561 209.045 331.734 205.133 331.751C204.686 331.311 204.263 330.527 203.775 330.475C189.29 328.879 176.505 322.713 164.728 314.012C151.503 304.241 138.929 294.281 130.585 278.559C122.207 262.761 117.75 246.669 118.019 228.8C118.051 227.317 117.222 225.825 116.791 224.342ZM142.557 286.364C142.662 286.424 142.76 286.493 142.866 286.554C142.752 286.502 142.63 286.45 142.516 286.399C143.337 284.958 144.151 283.51 144.972 282.069C146.265 283.363 148.136 284.441 148.665 286.019C149.071 287.244 147.794 289.098 146.875 291.823C152.495 296.1 158.961 301.188 165.59 306.035C184.19 319.643 204.987 325.904 227.443 325.844C241.391 325.801 255.095 323.334 268.377 318.807C272.338 317.461 275.973 315.064 279.763 313.141C281.577 312.279 283.537 311.649 285.188 310.528C293.704 304.733 300.641 297.204 306.774 288.71C314.907 277.438 319.64 264.416 323.097 251.067C328.449 230.352 327.782 209.612 319.112 189.786C307.563 163.371 287.612 146.512 262.684 135.904C228.964 121.554 195.683 122.831 163.89 141.838C136.392 158.275 120.508 193.563 125.705 225.29C127.112 233.914 129.657 242.598 133.236 250.463C135.847 256.207 140.767 260.898 145.086 265.615C161.108 283.113 180.108 295.635 202.092 302.973C205.589 304.138 209.005 305.474 210.924 310.709C208.037 311.054 205.353 312.115 203.059 311.502C197.456 310.002 192.047 307.682 186.517 305.802C184.621 305.155 182.629 304.845 180.685 304.388C178.814 302.861 177.082 301.068 175.041 299.852C162.027 292.116 149.836 283.294 139.922 271.281C136.237 266.814 132.488 262.407 128.771 257.966C128.665 257.586 128.568 257.198 128.462 256.819C128.356 256.896 128.153 257.026 128.161 257.034C128.34 257.362 128.535 257.681 128.722 258.009C131.235 264.753 133.472 271.635 136.392 278.171C137.766 281.241 140.458 283.648 142.557 286.364Z" fill="#341D17"/>
<path d="M116.79 224.343C117.221 225.826 118.05 227.318 118.026 228.801C117.758 246.67 122.215 262.762 130.592 278.561C138.936 294.29 151.51 304.242 164.735 314.013C176.504 322.715 189.297 328.881 203.782 330.476C204.27 330.528 204.693 331.313 205.14 331.752C202.619 331.545 200.065 331.528 197.577 331.097C171.054 326.552 148.753 313.444 132.975 290.617C121.865 274.542 114.309 256.096 116.326 235.01C116.66 231.466 116.643 227.896 116.79 224.343Z" fill="#77615F"/>
<path d="M180.686 304.382C182.63 304.848 184.63 305.158 186.517 305.796C192.04 307.676 197.448 309.996 203.06 311.497C205.346 312.109 208.038 311.048 210.925 310.703C209.006 305.469 205.59 304.132 202.092 302.968C180.1 295.637 161.109 283.116 145.087 265.609C140.768 260.892 135.856 256.201 133.237 250.457C129.658 242.592 127.121 233.908 125.706 225.284C120.517 193.557 136.393 158.269 163.891 141.832C195.683 122.825 228.964 121.549 262.685 135.899C287.621 146.515 307.563 163.365 319.113 189.78C327.782 209.598 328.449 230.347 323.098 251.061C319.649 264.411 314.908 277.433 306.774 288.704C300.642 297.198 293.704 304.736 285.189 310.522C283.538 311.652 281.578 312.281 279.764 313.135C279.366 312.764 278.959 312.393 278.56 312.023C279.618 311.522 280.724 311.109 281.732 310.513C285.035 308.573 285.596 304.899 282.985 302.649C282.961 302.045 282.936 301.441 282.912 300.838C285.083 299.406 287.401 298.164 289.402 296.5C296.055 290.937 302.716 285.384 309.092 279.476C310.882 277.821 311.703 274.975 312.964 272.681C310.833 272.853 309.54 273.604 308.238 274.319C304.977 276.104 301.716 277.872 298.454 279.649C299.308 278.623 300.089 277.51 301.032 276.596C305.53 272.275 309.036 267.291 310.394 260.892C310.687 259.521 310.589 258.063 310.67 256.649C310.077 256.227 309.483 255.813 308.889 255.39C308.141 256.761 307.661 258.443 306.604 259.443C299.357 266.256 292.468 273.655 284.555 279.485C268.727 291.144 250.713 297.673 231.982 302.028C230.29 302.424 228.663 303.14 227.012 303.701C227.061 304.201 227.118 304.692 227.167 305.193C228.916 305.356 230.664 305.727 232.397 305.641C251.705 304.77 269.394 298.319 285.945 287.997C287.052 287.307 288.328 286.927 289.524 286.401C289.028 287.1 288.662 288.014 288.011 288.471C279.48 294.568 270.59 300.148 260.489 302.485C249.346 305.063 237.992 306.572 226.76 308.702C225.012 309.03 222.059 307.426 221.897 311.298C221.067 312.316 220.238 313.342 219.408 314.36C218.879 315.291 218.351 316.214 217.814 317.145C211.161 318.715 204.223 319.56 198.075 316.395C191.918 313.213 186.46 308.452 180.686 304.382ZM239.708 219.584C237.35 220.903 234.999 222.232 232.641 223.551C229.436 222.361 226.224 221.162 223.019 219.972C212.08 214.418 201.149 208.873 189.218 202.811C192.284 200.405 194.577 198.602 196.863 196.817C196.903 197.085 197.009 197.352 196.985 197.611C196.814 199.059 196.619 200.5 196.424 201.94C197.774 201.026 199.238 200.267 200.409 199.146C200.929 198.645 200.84 197.447 201.084 196.308C199.685 196.162 198.668 196.058 197.652 195.946C197.782 195.239 197.7 194.334 198.083 193.851C204.386 185.986 212.129 179.561 216.797 170.04C219.4 164.737 224.141 160.614 227.956 155.983C228.607 155.19 229.412 154.535 230.136 153.819C239.993 168.566 249.655 183.01 259.293 197.473C259.488 197.757 259.391 198.266 259.423 198.663C257.113 199.016 253.502 197.593 254.446 202.535C254.991 205.381 255.072 209.192 258.683 209.287C262.766 209.391 261.318 205.312 261.92 202.862C263.376 204.561 264.832 206.269 266.792 208.554C262.14 210.382 258.382 211.857 254.625 213.332C253.64 209.693 251.103 208.666 248.175 210.883C247.541 211.366 246.825 212.564 246.996 213.177C247.175 213.849 248.321 214.608 249.078 214.643C250.639 214.712 252.217 214.315 253.787 214.117C253.144 214.979 252.339 215.764 251.908 216.73C251.55 217.532 251.396 218.635 251.632 219.437C251.745 219.817 253.087 220.101 253.746 219.912C258.301 218.592 262.92 217.419 267.32 215.643C273.111 213.306 274.104 210.098 271.306 204.165C270.159 201.741 268.825 199.396 267.369 197.171C256.959 181.312 246.5 165.496 236.032 149.679C235.259 148.515 234.503 147.075 233.397 146.489C232.12 145.816 230.054 145.23 229.046 145.868C226.557 147.446 224.174 149.481 222.295 151.818C212.926 163.469 203.695 175.24 194.488 187.038C191.048 191.445 187.737 195.963 184.492 200.543C183.158 202.423 182.142 204.579 184.606 206.51C185.192 210.943 188.762 212.4 191.812 213.918C201.71 218.851 212.096 222.783 221.661 228.329C230.786 233.615 237.691 228.449 245.141 224.845C245.914 224.465 246.418 222.714 246.418 221.602C246.418 221.085 244.914 220.567 244.092 220.041C243.612 219.886 243.124 219.731 242.644 219.575C241.66 219.575 240.684 219.575 239.708 219.584ZM228.867 256.503C225.329 256.434 224.434 259.159 226.476 263.772C226.354 265.997 226.248 268.231 226.118 270.456C225.939 273.543 227.33 275.087 230.217 275.164C228.468 279.985 224.76 280.115 222.116 276.234C217.7 269.74 213.154 263.324 208.29 257.218C206.045 254.398 202.906 252.363 200.173 249.974C198.481 247.163 196.781 244.343 195.09 241.532C194.138 239.488 193.187 237.453 192.235 235.409C187.949 233.865 186.249 230.002 184.728 225.983C186.07 225.905 187.762 226.319 188.665 225.612C189.543 224.922 190.185 222.042 189.958 221.904C188.201 220.826 186.119 219.429 184.321 219.67C183.24 219.817 182.483 222.714 181.581 224.379C182.158 226.561 182.321 229.001 183.378 230.881C189.388 241.575 195.415 252.26 201.848 262.66C204.614 267.127 208.363 270.913 211.673 275.009C211.917 275.337 212.161 275.665 212.405 275.984C213.243 277.088 214.081 278.191 214.918 279.304C215.634 279.977 216.358 280.649 217.074 281.322C217.366 281.606 217.667 281.882 217.96 282.167C224.499 288.652 227.321 288.79 233.047 281.977C245.808 266.791 260.529 253.338 270.216 235.383C271.639 232.753 273.713 230.26 271.607 227.173C269.403 223.948 266.507 225.31 263.913 226.543C254.429 231.045 244.979 235.642 235.552 240.281C234.503 240.799 233.682 241.825 232.754 242.61C230.811 241.73 229.119 241.626 228.208 244.188C227.378 246.525 227.622 248.422 230.054 250.121C230.469 248.577 230.648 247.456 231.079 246.464C231.478 245.559 232.144 244.791 232.698 243.964C234.056 244.162 235.406 244.369 236.764 244.567C236.032 245.18 235.162 245.68 234.593 246.439C233.852 247.43 233.348 248.629 232.746 249.742C233.958 249.94 235.284 250.561 236.366 250.25C239.594 249.336 242.799 248.232 245.865 246.835C247.061 246.292 248.443 244.886 248.63 243.679C248.761 242.877 246.914 241.73 245.955 240.738C251.396 238.496 256.837 236.254 262.278 234.012C262.619 234.581 262.969 235.15 263.311 235.719C261.977 237.504 260.635 239.298 259.301 241.083C258.675 239.971 258.049 238.85 257.431 237.737C256.202 239.436 254.974 241.126 253.746 242.825C254.673 243.369 255.592 243.912 256.52 244.455C253.38 248.517 250.42 252.751 247.069 256.615C241.831 262.643 236.341 268.421 230.957 274.311C231.299 269.852 231.933 265.385 231.827 260.944C231.811 259.452 229.916 257.986 228.867 256.503ZM143.387 207.174C139.987 206.769 138.711 209.149 138.499 212.012C138.027 218.42 140.671 223.948 143.615 229.269C143.956 229.881 145.168 229.95 145.982 230.278C146.226 229.381 146.787 228.423 146.64 227.604C146.25 225.371 145.559 223.197 144.989 220.998C148.527 218.86 147.535 210.374 143.387 207.174ZM306.295 219.506C306.587 221.68 306.88 223.844 307.165 226.017C306.262 225.655 305.359 225.302 304.335 224.888C303.676 227.837 302.757 230.579 302.472 233.391C300.87 249.19 292.558 260.573 281.293 270.042C272.233 277.657 261.367 281.331 250.745 285.504C249.598 285.953 248.476 286.462 247.345 286.945C247.402 287.566 247.467 288.186 247.524 288.807C249.769 288.807 252.136 289.299 254.242 288.721C261.668 286.677 269.199 284.789 276.332 281.857C284.595 278.459 291.452 272.612 296.99 265.161C298.95 262.574 300.919 259.978 302.879 257.391C307.954 249.319 309.589 240.342 309.141 230.812C313.346 223.318 312.102 215.341 310.63 207.502C310.239 205.424 308.222 203.699 306.953 201.81C305.514 200.396 304.066 198.982 302.627 197.567C302.326 197.835 302.025 198.102 301.724 198.361C302.928 205.156 304.123 211.952 305.367 218.73C305.433 219.041 305.977 219.248 306.295 219.506ZM231.274 211.4C232.559 211.15 233.836 210.9 235.121 210.65C235.097 211.348 234.82 212.219 235.105 212.72C235.715 213.789 236.618 214.668 237.399 215.626C238.155 214.789 238.911 213.953 239.668 213.116C238.797 212.254 238 211.253 237.008 210.589C236.561 210.288 235.723 210.65 235.056 210.71C235.349 209.468 235.731 208.244 235.935 206.985C238.293 192.471 235.796 178.25 233.527 164.029C233.389 163.176 232.332 162.494 231.697 161.727C231.152 162.598 230.168 163.46 230.144 164.349C230.022 168.911 230.144 173.481 230.176 178.052C229.314 179.725 227.793 181.363 227.712 183.088C227.256 192.298 227.094 201.534 227.012 210.762C226.996 212.392 227.818 214.03 228.257 215.669C228.72 215.686 229.176 215.712 229.639 215.729C230.184 214.289 230.729 212.849 231.274 211.4ZM150.325 183.537C159.621 170.092 172 161.028 186.428 154.785C190.576 152.991 194.569 150.792 199.758 148.222C197.644 147.515 196.838 147.084 196.009 146.997C189.868 146.325 183.898 146.885 178.213 149.714C160.703 158.415 146.819 170.868 140.419 190.944C139.849 192.721 140.321 194.868 140.313 196.843C141.638 195.472 142.956 194.101 144.282 192.73C145.266 192.35 146.787 192.264 147.153 191.539C148.413 188.995 149.292 186.219 150.325 183.537ZM265.019 148.946C264.693 149.559 264.376 150.171 264.051 150.775C270.842 155.897 277.845 160.727 284.359 166.211C290.899 171.713 296.941 177.871 303.757 184.27C304.985 178.802 302.22 175.396 299.585 172.498C289.809 161.718 279.406 151.81 265.019 148.946ZM193.17 225.06C192.894 225.647 192.617 226.233 192.333 226.811C194.032 228.492 195.496 230.605 197.465 231.778C203.451 235.348 209.575 238.669 215.772 241.808C217.033 242.446 218.839 241.851 220.4 241.825C219.53 240.419 218.969 238.47 217.741 237.703C211.356 233.701 204.858 229.915 198.286 226.268C196.79 225.448 194.886 225.448 193.17 225.06ZM168.413 269.818C167.982 270.068 167.551 270.309 167.12 270.559C167.998 272.793 168.413 275.458 169.836 277.191C174.741 283.167 181.19 286.746 188.233 289.126C189.03 289.394 190.12 288.721 191.072 288.488C190.657 287.548 190.486 286.272 189.795 285.72C183.663 280.839 177.449 276.07 171.227 271.318C170.381 270.671 169.356 270.309 168.413 269.818ZM257.853 149.317C255.869 143.005 244.426 138.667 240.448 141.875C239.822 142.384 239.228 143.6 239.375 144.324C239.521 145.066 240.497 145.963 241.262 146.17C244.653 147.084 248.077 147.843 251.518 148.532C253.413 148.912 255.348 149.024 257.853 149.317ZM251.566 289.903C247.443 290.549 243.279 290.989 239.204 291.912C236.967 292.421 232.998 292.015 233.73 295.879C234.414 299.509 237.992 297.888 240.27 297.509C244.71 296.784 249.33 296.051 251.566 289.903ZM322.707 228.872C319.251 233.27 318.641 238.686 317.592 243.886C317.527 244.196 319.397 245.533 320.015 245.309C324.529 243.679 326.441 232.951 322.707 228.872ZM208.095 248.56C208.819 243.938 206.2 241.489 204.093 238.875C203.678 238.358 202.149 238.177 201.653 238.574C201.116 239.005 200.783 240.48 201.068 241.161C202.434 244.369 204.052 247.448 208.095 248.56ZM150.585 237.892C148.56 235.78 147.023 234.184 145.494 232.58C144.932 233.365 143.745 234.572 143.924 234.857C145.046 236.72 146.437 238.418 147.877 240.04C147.934 240.117 149.251 238.953 150.585 237.892ZM240.27 178.078C239.619 178.147 238.968 178.207 238.318 178.276C238.318 180.596 238.179 182.924 238.407 185.218C238.472 185.856 239.635 186.365 240.302 186.934C240.766 186.313 241.677 185.624 241.611 185.072C241.319 182.717 240.741 180.406 240.27 178.078ZM213.519 144.272C213.357 143.427 213.186 142.582 213.023 141.746C211.291 142.108 209.551 142.461 207.818 142.824C208.021 143.634 208.282 145.161 208.412 145.152C210.128 144.979 211.82 144.6 213.519 144.272Z" fill="#F2B11E"/>
<path d="M219.431 314.376C220.26 313.358 221.09 312.332 221.919 311.314C222.513 311.504 223.107 311.694 223.692 311.884C224.246 313.721 224.799 315.557 225.36 317.394C225.563 319.697 224.172 323.12 228.54 322.508C240.17 322.577 251.402 320.301 262.553 316.851C268.262 315.083 270.759 311.09 272.435 305.787C274.248 305.019 276.07 304.252 277.884 303.484C277.924 304.683 277.965 305.89 278.006 307.089C275.354 306.313 274.37 308.227 273.752 310.306C273.484 311.211 273.899 312.349 273.996 313.384C275.509 312.936 277.03 312.479 278.543 312.03C278.941 312.401 279.348 312.772 279.746 313.143C275.964 315.057 272.321 317.455 268.36 318.809C255.078 323.336 241.374 325.802 227.426 325.846C204.97 325.915 184.173 319.654 165.573 306.037C158.944 301.19 152.478 296.102 146.858 291.825C147.777 289.1 149.054 287.245 148.648 286.021C148.119 284.443 146.248 283.365 144.955 282.071C144.134 283.511 143.32 284.96 142.499 286.4L142.54 286.357C140.441 283.649 137.741 281.243 136.375 278.165C133.455 271.628 131.218 264.737 128.705 258.002L128.754 257.959C132.471 262.392 136.22 266.807 139.904 271.274C149.819 283.278 162.01 292.109 175.024 299.845C177.065 301.061 178.789 302.855 180.668 304.381C186.443 308.451 191.908 313.22 198.089 316.411C204.238 319.585 211.176 318.74 217.828 317.161C218.276 318.541 218.715 319.93 219.162 321.309C219.732 321.085 220.765 320.921 220.789 320.637C220.96 319.033 221.009 317.377 220.83 315.773C220.789 315.256 219.927 314.842 219.431 314.376ZM152.942 286.909C151.844 288.677 150.722 289.789 150.925 290.281C151.511 291.695 152.641 292.851 153.56 294.11C154.203 293.429 155.488 292.566 155.366 292.092C155 290.609 154.105 289.263 152.942 286.909Z" fill="#845121"/>
<path d="M128.723 258.006C128.527 257.686 128.332 257.366 128.16 257.029C128.152 257.02 128.356 256.882 128.462 256.812C128.568 257.193 128.666 257.582 128.772 257.963C128.772 257.963 128.723 258.006 128.723 258.006Z" fill="#845121"/>
<path d="M142.523 286.4C142.638 286.452 142.76 286.504 142.874 286.556C142.768 286.495 142.67 286.426 142.564 286.365C142.556 286.357 142.523 286.4 142.523 286.4Z" fill="#845121"/>
<path d="M184.604 206.502C182.14 204.57 183.157 202.414 184.49 200.534C187.727 195.963 191.046 191.436 194.486 187.029C203.693 175.232 212.924 163.46 222.293 151.81C224.172 149.473 226.563 147.446 229.044 145.859C230.052 145.221 232.118 145.799 233.395 146.48C234.501 147.066 235.258 148.507 236.03 149.671C246.498 165.487 256.957 181.312 267.367 197.162C268.831 199.387 270.165 201.733 271.304 204.156C274.102 210.089 273.109 213.297 267.319 215.634C262.919 217.411 258.299 218.575 253.744 219.903C253.094 220.093 251.744 219.808 251.63 219.429C251.386 218.627 251.548 217.523 251.906 216.721C252.337 215.755 253.143 214.97 253.785 214.108L253.753 214.142C254.037 213.858 254.322 213.565 254.615 213.28L254.631 213.323C258.388 211.849 262.146 210.374 266.798 208.546C264.838 206.26 263.382 204.553 261.926 202.854L261.935 202.906C261.65 202.328 261.365 201.741 261.081 201.164L261.105 201.198C260.845 200.879 260.584 200.551 260.324 200.232L260.381 200.31C260.056 199.749 259.73 199.197 259.405 198.637L259.438 198.671C259.397 198.266 259.495 197.766 259.308 197.481C249.67 183.019 240.016 168.574 230.15 153.828C229.426 154.543 228.621 155.199 227.97 155.992C224.164 160.623 219.414 164.745 216.812 170.049C212.143 179.57 204.4 185.994 198.097 193.859C197.715 194.342 197.796 195.248 197.666 195.955L197.715 195.998C197.479 195.938 197.243 195.877 197.007 195.826C196.967 196.179 196.926 196.524 196.893 196.878L196.869 196.826C194.584 198.62 192.298 200.413 189.224 202.828C201.155 208.882 212.086 214.436 223.025 219.989C223.652 224.224 222.261 225.707 218.121 224.25C213.794 222.723 209.614 220.628 205.539 218.42C198.479 214.582 191.574 210.477 184.604 206.502Z" fill="#391F10"/>
<path d="M217.08 281.337C216.365 280.664 215.641 279.991 214.925 279.319C214.087 278.215 213.25 277.111 212.412 275.999C212.168 275.671 211.924 275.343 211.68 275.024C210.671 273.058 209.801 270.988 208.63 269.143C204.873 263.209 200.928 257.388 200.18 249.972C202.912 252.361 206.044 254.396 208.297 257.216C213.16 263.33 217.707 269.746 222.123 276.231C224.766 280.112 228.475 279.983 230.224 275.162L230.191 275.188C230.468 274.886 230.744 274.584 231.021 274.282L230.988 274.317C236.372 268.435 241.87 262.658 247.1 256.621C250.451 252.766 253.411 248.532 256.543 244.47C257.47 243.349 258.405 242.219 259.332 241.089C260.666 239.304 262.008 237.511 263.342 235.725C263 235.156 262.651 234.587 262.309 234.018C256.868 236.26 251.427 238.502 245.994 240.744C242.928 242.021 239.861 243.297 236.787 244.565C235.429 244.366 234.079 244.159 232.721 243.961C232.737 243.513 232.753 243.064 232.769 242.607C233.697 241.822 234.518 240.796 235.567 240.279C244.993 235.639 254.444 231.043 263.928 226.541C266.522 225.308 269.426 223.945 271.622 227.171C273.72 230.258 271.646 232.742 270.231 235.38C260.544 253.335 245.831 266.788 233.062 281.975C227.328 288.796 224.514 288.65 217.975 282.165C217.674 281.906 217.381 281.621 217.08 281.337Z" fill="#381F11"/>
<path d="M289.54 286.409C288.344 286.935 287.067 287.314 285.961 288.004C269.41 298.327 251.721 304.777 232.412 305.648C230.68 305.726 228.923 305.355 227.183 305.2C227.134 304.7 227.077 304.208 227.028 303.708C228.687 303.139 230.306 302.432 231.998 302.035C250.737 297.671 268.743 291.152 284.571 279.492C292.484 273.663 299.373 266.263 306.62 259.451C307.677 258.459 308.157 256.769 308.905 255.397C309.499 255.82 310.092 256.234 310.686 256.657C310.605 258.071 310.702 259.537 310.41 260.899C309.051 267.29 305.546 272.274 301.048 276.603C300.097 277.518 299.324 278.639 298.47 279.656L298.478 279.544C298.194 279.829 297.909 280.122 297.624 280.407L297.649 280.381C297.356 280.657 297.055 280.941 296.762 281.217L296.803 281.183C296.266 281.51 295.729 281.829 295.192 282.157L295.241 282.123C294.948 282.407 294.656 282.692 294.371 282.976L294.404 282.951C293.582 283.537 292.769 284.123 291.947 284.718L291.98 284.693C291.679 284.969 291.386 285.244 291.085 285.52L291.126 285.486C290.589 285.805 290.052 286.124 289.507 286.435L289.54 286.409Z" fill="#FFFBF3"/>
<path d="M277.893 303.483C276.079 304.25 274.258 305.018 272.444 305.794C256.609 311.511 240.302 313.021 223.702 311.891C223.108 311.701 222.514 311.511 221.929 311.322C222.083 307.441 225.044 309.054 226.792 308.726C238.024 306.596 249.378 305.078 260.521 302.508C270.622 300.171 279.512 294.583 288.043 288.494C288.694 288.029 289.06 287.123 289.556 286.425L289.507 286.459C290.044 286.14 290.581 285.821 291.126 285.511L291.085 285.545C291.386 285.269 291.679 284.993 291.98 284.717L291.947 284.743C292.769 284.157 293.582 283.57 294.403 282.975L294.371 283.001C294.664 282.717 294.957 282.432 295.241 282.147L295.192 282.182C295.729 281.854 296.266 281.535 296.803 281.207L296.762 281.242C297.055 280.966 297.356 280.681 297.649 280.405L297.624 280.431C297.909 280.147 298.194 279.853 298.478 279.569L298.47 279.681C301.731 277.904 305.001 276.137 308.254 274.351C309.556 273.636 310.849 272.894 312.98 272.713C311.711 275.007 310.898 277.853 309.108 279.508C302.732 285.416 296.071 290.97 289.418 296.532C287.417 298.205 285.099 299.438 282.928 300.87C281.236 301.723 279.56 302.603 277.893 303.483Z" fill="#361E12"/>
<path d="M309.149 230.812C309.605 240.342 307.962 249.319 302.887 257.391C302.204 255.209 301.016 254.648 299.471 256.451C298.056 258.107 296.6 259.823 295.689 261.789C295.356 262.505 296.519 264.014 296.998 265.161C291.468 272.603 284.603 278.45 276.34 281.857C269.207 284.789 261.684 286.677 254.25 288.721C252.144 289.299 249.777 288.807 247.532 288.807C247.476 288.186 247.41 287.566 247.354 286.945C248.484 286.462 249.606 285.953 250.753 285.504C261.375 281.322 272.241 277.657 281.301 270.042C292.566 260.573 300.886 249.19 302.48 233.391C302.765 230.579 303.676 227.828 304.343 224.888C305.367 225.293 306.27 225.655 307.173 226.017C307.832 227.613 308.491 229.208 309.149 230.812Z" fill="#8B5723"/>
<path d="M144.263 192.729C142.938 194.101 141.62 195.472 140.294 196.843C140.302 194.868 139.839 192.721 140.4 190.944C146.801 170.868 160.684 158.415 178.195 149.714C183.888 146.885 189.85 146.325 195.99 146.997C196.82 147.092 197.625 147.515 199.74 148.222C194.559 150.792 190.565 152.991 186.409 154.785C171.981 161.02 159.602 170.092 150.314 183.536C146.28 184.373 144.353 187.296 144.263 192.729Z" fill="#FDFAF2"/>
<path d="M265.019 148.943C279.406 151.815 289.809 161.715 299.585 172.495C302.212 175.393 304.985 178.799 303.757 184.266C296.941 177.876 290.898 171.719 284.359 166.208C277.845 160.723 270.842 155.886 264.051 150.772C264.376 150.159 264.693 149.547 265.019 148.943Z" fill="#FFF9EF"/>
<path d="M184.605 206.5C191.576 210.484 198.489 214.581 205.532 218.401C209.607 220.609 213.787 222.704 218.114 224.231C222.262 225.688 223.645 224.213 223.018 219.97C226.223 221.16 229.436 222.351 232.64 223.549C233.364 224.653 233.949 226.542 234.844 226.723C237.463 227.249 242.774 223.109 244.092 220.031C244.913 220.548 246.418 221.066 246.418 221.592C246.418 222.704 245.921 224.455 245.141 224.834C237.691 228.439 230.786 233.605 221.66 228.318C212.096 222.773 201.71 218.841 191.811 213.908C188.762 212.381 185.191 210.933 184.605 206.5Z" fill="#895622"/>
<path d="M235.121 210.656C233.836 210.906 232.559 211.156 231.274 211.398C231.599 202.421 232.071 193.452 232.152 184.474C232.168 182.344 230.875 180.197 230.184 178.058C230.143 173.488 230.021 168.917 230.151 164.355C230.176 163.467 231.16 162.604 231.705 161.733C232.339 162.501 233.396 163.182 233.535 164.036C235.804 178.257 238.301 192.477 235.942 206.991C235.739 208.25 235.365 209.475 235.064 210.717L235.121 210.656Z" fill="#F5F2EE"/>
<path d="M200.18 249.974C200.929 257.39 204.873 263.211 208.631 269.144C209.802 270.999 210.672 273.06 211.681 275.026C208.379 270.93 204.621 267.152 201.856 262.677C195.422 252.276 189.396 241.583 183.385 230.898C182.328 229.018 182.165 226.577 181.588 224.396C182.637 224.93 183.678 225.465 184.727 226C186.248 230.018 187.948 233.873 192.234 235.425C189.892 235.486 188.769 236.71 190.421 238.737C191.527 240.091 193.503 240.634 195.089 241.54C196.789 244.351 198.48 247.162 200.18 249.974Z" fill="#8A5723"/>
<path d="M230.184 178.059C230.875 180.197 232.177 182.345 232.152 184.475C232.071 193.452 231.607 202.421 231.274 211.398C230.729 212.838 230.184 214.279 229.631 215.719C229.167 215.702 228.712 215.676 228.248 215.658C227.817 214.02 226.996 212.381 227.004 210.751C227.093 201.524 227.256 192.297 227.703 183.078C227.801 181.37 229.322 179.732 230.184 178.059Z" fill="#372119"/>
<path d="M193.169 225.058C194.886 225.446 196.797 225.446 198.293 226.274C204.857 229.921 211.363 233.707 217.748 237.709C218.976 238.476 219.537 240.425 220.407 241.831C218.854 241.857 217.04 242.443 215.78 241.814C209.582 238.675 203.458 235.354 197.472 231.784C195.504 230.611 194.04 228.498 192.34 226.817C192.608 226.23 192.885 225.644 193.169 225.058Z" fill="#3B2111"/>
<path d="M168.411 269.815C169.354 270.307 170.379 270.669 171.217 271.307C177.439 276.059 183.652 280.828 189.785 285.709C190.476 286.261 190.647 287.537 191.062 288.477C190.11 288.71 189.028 289.391 188.223 289.116C181.18 286.735 174.73 283.156 169.826 277.18C168.403 275.447 167.988 272.782 167.109 270.548C167.549 270.307 167.98 270.066 168.411 269.815Z" fill="#FFF9EF"/>
<path d="M309.15 230.81C308.491 229.215 307.832 227.62 307.173 226.016C306.881 223.842 306.588 221.678 306.303 219.505C306.14 215.313 305.856 211.122 305.888 206.94C305.896 205.224 306.588 203.516 306.97 201.809C308.239 203.697 310.256 205.431 310.646 207.5C312.11 215.339 313.355 223.316 309.15 230.81Z" fill="#351C12"/>
<path d="M144.988 220.997C145.558 223.196 146.249 225.369 146.639 227.603C146.786 228.422 146.225 229.379 145.981 230.276C145.167 229.957 143.955 229.88 143.614 229.267C140.661 223.946 138.018 218.419 138.498 212.011C138.71 209.148 139.986 206.768 143.386 207.173C143.923 211.778 144.452 216.392 144.988 220.997Z" fill="#391F11"/>
<path d="M257.852 149.316C255.347 149.014 253.411 148.911 251.525 148.532C248.084 147.85 244.652 147.091 241.269 146.169C240.504 145.962 239.52 145.065 239.382 144.323C239.244 143.599 239.829 142.374 240.455 141.874C244.424 138.666 255.868 143.004 257.852 149.316Z" fill="#8E5A24"/>
<path d="M251.566 289.901C249.329 296.05 244.71 296.775 240.277 297.516C238 297.896 234.421 299.517 233.738 295.886C233.006 292.023 236.975 292.428 239.212 291.919C243.278 290.988 247.443 290.548 251.566 289.901Z" fill="#FFF9EF"/>
<path d="M236.789 244.583C239.855 243.307 242.93 242.03 245.996 240.763C246.955 241.754 248.794 242.91 248.663 243.703C248.476 244.911 247.086 246.316 245.898 246.86C242.832 248.257 239.627 249.361 236.399 250.275C235.309 250.585 233.991 249.956 232.779 249.766C233.381 248.653 233.885 247.455 234.626 246.463C235.179 245.696 236.049 245.195 236.789 244.583Z" fill="#FEF6E7"/>
<path d="M322.706 228.871C326.439 232.95 324.536 243.678 320.014 245.299C319.396 245.524 317.525 244.187 317.591 243.877C318.64 238.694 319.25 233.269 322.706 228.871Z" fill="#FEF8EB"/>
<path d="M230.217 275.171C227.322 275.093 225.939 273.549 226.118 270.462C226.248 268.237 226.354 266.012 226.476 263.779C231.811 263.028 229.111 259.312 228.867 256.509C229.916 257.992 231.811 259.45 231.852 260.959C231.958 265.4 231.323 269.867 230.982 274.326L231.014 274.291C230.738 274.593 230.461 274.895 230.185 275.197C230.185 275.197 230.217 275.171 230.217 275.171Z" fill="#FAF5EB"/>
<path d="M261.926 202.861C261.324 205.319 262.772 209.398 258.689 209.286C255.078 209.191 254.997 205.379 254.452 202.534C253.508 197.592 257.119 199.024 259.429 198.661L259.397 198.627C259.722 199.188 260.047 199.739 260.373 200.3L260.316 200.222C260.576 200.541 260.836 200.869 261.096 201.188L261.072 201.154C261.357 201.732 261.641 202.318 261.926 202.896V202.861Z" fill="#FEF8EB"/>
<path d="M278.56 312.029C277.047 312.477 275.526 312.934 274.013 313.382C273.908 312.348 273.493 311.209 273.769 310.304C274.387 308.225 275.371 306.311 278.023 307.087C278.787 306.932 279.82 307.053 280.268 306.57C281.325 305.423 282.106 303.983 282.992 302.663C285.603 304.914 285.042 308.579 281.74 310.528C280.723 311.123 279.617 311.537 278.56 312.029Z" fill="#351C12"/>
<path d="M306.961 201.807C306.579 203.514 305.888 205.222 305.879 206.938C305.855 211.129 306.14 215.32 306.294 219.503C305.977 219.244 305.432 219.037 305.375 218.735C304.131 211.948 302.935 205.153 301.731 198.366C302.032 198.098 302.333 197.831 302.634 197.572C304.082 198.978 305.522 200.392 306.961 201.807Z" fill="#895622"/>
<path d="M244.09 220.031C242.773 223.11 237.47 227.249 234.843 226.723C233.948 226.542 233.363 224.662 232.639 223.55C234.997 222.23 237.348 220.902 239.706 219.583C240.682 219.574 241.666 219.574 242.642 219.565C243.122 219.721 243.602 219.876 244.09 220.031Z" fill="#361E12"/>
<path d="M184.728 225.991C183.679 225.456 182.638 224.921 181.589 224.387C182.492 222.722 183.24 219.825 184.33 219.678C186.127 219.436 188.209 220.834 189.966 221.912C190.194 222.049 189.551 224.93 188.673 225.62C187.762 226.336 186.07 225.922 184.728 225.991Z" fill="#391F10"/>
<path d="M208.094 248.559C204.043 247.438 202.433 244.368 201.067 241.169C200.774 240.487 201.115 239.004 201.652 238.581C202.148 238.185 203.669 238.366 204.092 238.883C206.199 241.488 208.826 243.945 208.094 248.559Z" fill="#FEF6E7"/>
<path d="M296.998 265.159C296.518 264.012 295.347 262.503 295.688 261.787C296.607 259.821 298.063 258.105 299.47 256.449C301.016 254.638 302.203 255.207 302.886 257.389C300.926 259.976 298.958 262.572 296.998 265.159Z" fill="#381F11"/>
<path d="M144.99 220.998C144.453 216.384 143.917 211.779 143.38 207.165C147.536 210.373 148.528 218.859 144.99 220.998Z" fill="#8A5723"/>
<path d="M150.585 237.892C149.243 238.953 147.934 240.117 147.869 240.031C146.437 238.41 145.047 236.719 143.916 234.848C143.745 234.563 144.933 233.356 145.486 232.571C147.023 234.175 148.56 235.779 150.585 237.892Z" fill="#FEF6E7"/>
<path d="M144.266 192.728C144.355 187.295 146.283 184.372 150.325 183.526C149.292 186.217 148.414 188.985 147.137 191.529C146.771 192.271 145.25 192.349 144.266 192.728Z" fill="#463026"/>
<path d="M253.787 214.114C252.217 214.313 250.639 214.709 249.077 214.64C248.321 214.606 247.182 213.847 246.995 213.174C246.825 212.562 247.54 211.355 248.175 210.88C251.103 208.664 253.64 209.69 254.624 213.33L254.608 213.286C254.323 213.571 254.039 213.864 253.746 214.149L253.787 214.114Z" fill="#FEF4E1"/>
<path d="M259.332 241.098C258.397 242.228 257.47 243.358 256.543 244.479C255.624 243.927 254.705 243.383 253.777 242.849C255.005 241.15 256.234 239.46 257.462 237.761C258.08 238.865 258.706 239.986 259.332 241.098Z" fill="#FEF4E1"/>
<path d="M240.269 178.075C240.741 180.404 241.318 182.715 241.603 185.069C241.668 185.621 240.757 186.302 240.294 186.932C239.635 186.363 238.464 185.854 238.399 185.216C238.171 182.922 238.309 180.593 238.309 178.274C238.968 178.205 239.619 178.144 240.269 178.075Z" fill="#FEF6E7"/>
<path d="M232.77 242.633C232.754 243.082 232.738 243.53 232.721 243.987C232.168 244.815 231.502 245.583 231.103 246.488C230.672 247.48 230.493 248.601 230.078 250.145C227.646 248.446 227.394 246.549 228.232 244.212C229.135 241.65 230.818 241.754 232.77 242.633Z" fill="#543C29"/>
<path d="M228.868 256.5C229.104 259.312 231.804 263.029 226.477 263.77C224.435 259.165 225.33 256.431 228.868 256.5Z" fill="#463026"/>
<path d="M195.089 241.528C193.503 240.623 191.519 240.08 190.421 238.726C188.77 236.699 189.892 235.474 192.235 235.414C193.186 237.449 194.138 239.493 195.089 241.528Z" fill="#3B2111"/>
<path d="M197.66 195.944C198.676 196.048 199.693 196.16 201.092 196.307C200.848 197.436 200.929 198.644 200.417 199.144C199.246 200.265 197.774 201.032 196.432 201.938C196.619 200.498 196.822 199.058 196.993 197.609C197.025 197.35 196.92 197.083 196.871 196.815L196.895 196.867C197.172 196.574 197.448 196.281 197.717 195.996L197.66 195.944Z" fill="#FEF4E1"/>
<path d="M235.064 210.717C235.723 210.657 236.569 210.294 237.016 210.596C238.008 211.26 238.797 212.261 239.676 213.123C238.919 213.959 238.163 214.796 237.407 215.632C236.626 214.675 235.723 213.796 235.113 212.718C234.828 212.217 235.105 211.346 235.129 210.648C235.121 210.657 235.064 210.717 235.064 210.717Z" fill="#FEF2DA"/>
<path d="M213.521 144.271C211.821 144.598 210.121 144.978 208.405 145.142C208.275 145.15 208.015 143.624 207.812 142.813C209.544 142.451 211.284 142.098 213.017 141.735C213.196 142.589 213.358 143.426 213.521 144.271Z" fill="#FEF8EB"/>
<path d="M219.432 314.376C219.928 314.842 220.79 315.256 220.847 315.782C221.026 317.386 220.977 319.033 220.806 320.645C220.774 320.93 219.749 321.094 219.18 321.318C218.732 319.938 218.293 318.55 217.846 317.17C218.366 316.23 218.903 315.299 219.432 314.376Z" fill="#351C12"/>
<path d="M282.984 302.665C282.089 303.984 281.317 305.424 280.259 306.571C279.812 307.054 278.779 306.933 278.015 307.089C277.974 305.89 277.933 304.683 277.893 303.484C279.568 302.604 281.243 301.733 282.919 300.854C282.935 301.457 282.96 302.061 282.984 302.665Z" fill="#DD9F25"/>
<path d="M212.412 276.009C213.25 277.113 214.088 278.216 214.925 279.329C214.088 278.216 213.25 277.113 212.412 276.009Z" fill="#8A5723"/>
<path d="M242.642 219.564C241.666 219.573 240.682 219.573 239.706 219.581C240.682 219.573 241.658 219.573 242.642 219.564Z" fill="#895622"/>
<path d="M217.081 281.336C217.375 281.621 217.677 281.898 217.97 282.184C217.677 281.907 217.383 281.621 217.081 281.336Z" fill="#8A5723"/>
<path d="M223.692 311.882C240.292 313.003 256.599 311.494 272.435 305.785C270.751 311.089 268.262 315.082 262.553 316.85C251.402 320.299 240.17 322.576 228.54 322.507C229.776 317.6 229.597 317.315 225.36 317.393C224.798 315.556 224.245 313.719 223.692 311.882Z" fill="#EDAC1F"/>
<path d="M152.944 286.907C154.107 289.262 155.002 290.607 155.368 292.099C155.482 292.573 154.205 293.435 153.562 294.117C152.643 292.858 151.521 291.702 150.927 290.288C150.724 289.788 151.846 288.666 152.944 286.907Z" fill="#381F11"/>
<path d="M225.361 317.392C229.598 317.315 229.777 317.599 228.541 322.506C224.165 323.119 225.556 319.704 225.361 317.392Z" fill="#3B2111"/>
<path d="M260.373 200.308C260.048 199.747 259.723 199.195 259.397 198.635C259.723 199.187 260.048 199.747 260.373 200.308Z" fill="#F2B11E"/>
<path d="M261.928 202.904C261.644 202.326 261.359 201.74 261.074 201.162C261.367 201.749 261.652 202.326 261.928 202.904Z" fill="#F2B11E"/>
<path d="M261.108 201.198C260.847 200.878 260.586 200.55 260.325 200.229C260.578 200.55 260.847 200.878 261.108 201.198Z" fill="#F2B11E"/>
<path d="M197.711 195.997C197.433 196.291 197.156 196.577 196.887 196.871C196.928 196.516 196.968 196.17 197.001 195.815C197.237 195.876 197.474 195.937 197.711 195.997Z" fill="#F2B11E"/>
<path d="M253.756 214.143C254.041 213.858 254.327 213.564 254.621 213.278C254.335 213.572 254.041 213.858 253.756 214.143Z" fill="#F2B11E"/>
<path d="M230.184 275.2C230.461 274.897 230.738 274.595 231.016 274.292C230.738 274.595 230.461 274.897 230.184 275.2Z" fill="#F2B11E"/>
<path d="M294.387 282.949C293.565 283.536 292.752 284.122 291.931 284.717C292.744 284.131 293.565 283.544 294.387 282.949Z" fill="#F2B11E"/>
<path d="M291.103 285.486C290.566 285.805 290.029 286.124 289.484 286.435C290.029 286.124 290.566 285.805 291.103 285.486Z" fill="#F2B11E"/>
<path d="M296.794 281.191C296.257 281.519 295.72 281.838 295.184 282.166C295.712 281.838 296.249 281.51 296.794 281.191Z" fill="#F2B11E"/>
<path d="M298.474 279.543C298.188 279.828 297.903 280.122 297.617 280.408C297.895 280.122 298.18 279.828 298.474 279.543Z" fill="#F2B11E"/>
<path d="M297.644 280.38C297.35 280.657 297.049 280.942 296.755 281.219C297.049 280.942 297.342 280.665 297.644 280.38Z" fill="#F2B11E"/>
<path d="M295.226 282.121C294.933 282.407 294.639 282.692 294.354 282.977C294.639 282.701 294.933 282.407 295.226 282.121Z" fill="#F2B11E"/>
<path d="M291.958 284.693C291.656 284.97 291.362 285.247 291.061 285.524C291.362 285.247 291.664 284.97 291.958 284.693Z" fill="#F2B11E"/>
</g>
<defs>
<filter id="filter0_df_10_6682" x="79" y="81" width="291.979" height="287.936" filterUnits="userSpaceOnUse" color-interpolation-filters="sRGB">
<feFlood flood-opacity="0" result="BackgroundImageFix"/>
<feColorMatrix in="SourceAlpha" type="matrix" values="0 0 0 0 0 0 0 0 0 0 0 0 0 0 0 0 0 0 127 0" result="hardAlpha"/>
<feOffset dx="6" dy="4"/>
<feGaussianBlur stdDeviation="2"/>
<feComposite in2="hardAlpha" operator="out"/>
<feColorMatrix type="matrix" values="0 0 0 0 0 0 0 0 0 0 0 0 0 0 0 0 0 0 0.25 0"/>
<feBlend mode="normal" in2="BackgroundImageFix" result="effect1_dropShadow_10_6682"/>
<feBlend mode="normal" in="SourceGraphic" in2="effect1_dropShadow_10_6682" result="shape"/>
<feGaussianBlur stdDeviation="18.5" result="effect2_foregroundBlur_10_6682"/>
</filter>
</defs>
</svg>
