<svg width="281" height="242" viewBox="0 0 281 242" fill="none" xmlns="http://www.w3.org/2000/svg">
<g filter="url(#filter0_d_9_5896)">
<path d="M213.756 73.7494C202.599 66.2535 199.698 52.1261 206.42 38.3537C211.698 27.5405 219.844 20.1033 230.517 15.5917C237.98 12.4371 245.243 11.957 252.243 14.5065C254.85 15.4568 257.102 16.9659 258.904 19.0466C262.28 22.9378 264.942 27.3439 266.934 32.2584C269.408 38.3588 268.875 44.6956 266.192 51.2564C263.985 56.6554 260.518 61.2958 256.787 65.7727C255.967 66.7561 255.213 67.7946 254.427 68.8074C254.243 68.8497 253.991 68.8284 253.881 68.9457C250.615 72.4196 246.722 74.6945 242.494 76.2875C237.746 78.0764 233.089 79.6657 228.063 79.2053C223.013 78.7404 218.694 77.2148 214.951 74.1739C214.642 73.9188 214.158 73.8848 213.756 73.7494ZM232.14 77.4128C232.174 77.3955 232.208 77.3818 232.243 77.3646C232.209 77.3853 232.173 77.4082 232.139 77.429C231.999 76.9775 231.855 76.5266 231.715 76.075C232.251 75.9563 232.858 75.6527 233.301 75.7787C233.643 75.8774 233.779 76.5153 234.172 77.2058C236.217 76.4664 238.604 75.6435 240.973 74.7384C247.623 72.2 253.155 67.8728 257.679 62.0661C260.488 58.4583 262.732 54.5105 264.454 50.3291C264.968 49.0829 265.193 47.7457 265.55 46.4476C265.734 45.836 265.996 45.2253 266.091 44.6127C266.58 41.4507 266.382 38.4078 265.816 35.4122C265.065 31.4382 263.254 28.0507 261.116 24.9384C257.796 20.112 253.254 16.835 247.29 15.7759C239.344 14.3644 231.73 16.7106 224.44 21.3815C214.578 27.6995 208.125 36.5029 205.741 47.8706C203.678 57.7025 207.967 67.6714 215.758 71.6062C217.875 72.6771 220.234 73.4642 222.628 73.8484C224.376 74.1296 226.367 73.6396 228.242 73.3092C235.197 72.0832 241.696 69.2612 247.697 64.8068C248.651 64.0976 249.625 63.4381 251.126 63.8132C250.615 64.6159 250.299 65.4851 249.705 65.9753C248.254 67.1723 246.668 68.1827 245.152 69.2977C244.631 69.6793 244.163 70.142 243.673 70.5678C242.971 70.7968 242.24 70.9457 241.569 71.2705C237.296 73.3432 232.958 75.0232 228.403 75.5847C226.709 75.7928 225.015 76.0278 223.321 76.2487C223.219 76.2129 223.116 76.1735 223.014 76.1377C223.01 76.1779 222.996 76.2519 222.999 76.2513C223.105 76.2596 223.212 76.2623 223.32 76.2685C225.261 76.7412 227.175 77.3084 229.154 77.6417C230.084 77.7975 231.139 77.5027 232.14 77.4128Z" fill="#341D17"/>
<path d="M213.755 73.7497C214.158 73.8852 214.642 73.9191 214.952 74.1721C218.695 77.213 223.015 78.7386 228.064 79.2035C233.092 79.6654 237.747 78.0746 242.495 76.2857C246.722 74.6949 250.617 72.4178 253.882 68.9439C253.992 68.8266 254.244 68.8479 254.428 68.8056C253.875 69.422 253.355 70.0784 252.761 70.6491C246.436 76.7397 239.145 80.3166 231.107 80.5933C225.447 80.788 220.001 79.6707 215.928 75.6435C215.243 74.968 214.481 74.3784 213.755 73.7497Z" fill="#77615F"/>
<path d="M243.672 70.5667C244.163 70.1423 244.633 69.6775 245.15 69.2965C246.665 68.1836 248.251 67.1733 249.704 65.9742C250.296 65.486 250.614 64.6147 251.124 63.812C249.624 63.437 248.65 64.0965 247.696 64.8056C241.695 69.2636 235.198 72.0835 228.241 73.3081C226.366 73.6384 224.377 74.1263 222.627 73.8472C220.233 73.463 217.875 72.6739 215.757 71.605C207.967 67.6682 203.676 57.7014 205.739 47.8695C208.124 36.5017 214.577 27.6984 224.439 21.3804C231.733 16.7088 239.342 14.3632 247.288 15.7748C253.251 16.8325 257.794 20.1109 261.114 24.9372C263.254 28.0475 265.063 31.4371 265.815 35.411C266.381 38.4067 266.581 41.451 266.09 44.6115C265.996 45.2256 265.734 45.8363 265.549 46.4464C265.39 46.4876 265.229 46.5309 265.069 46.5721C265.177 46.216 265.312 45.8617 265.39 45.5024C265.644 44.3273 264.977 43.5715 263.971 43.8711C263.838 43.777 263.705 43.6829 263.572 43.5888C263.706 42.7902 263.911 41.9853 263.961 41.192C264.124 38.5496 264.289 35.9065 264.323 33.2781C264.332 32.5409 263.893 31.8556 263.661 31.1487C263.267 31.7274 263.165 32.186 263.054 32.6409C262.775 33.7797 262.491 34.9156 262.21 36.0529C262.164 35.6618 262.086 35.2753 262.082 34.8797C262.073 33.0002 261.722 31.2663 260.637 29.8516C260.404 29.548 260.075 29.3308 259.791 29.0746C259.581 29.1576 259.373 29.242 259.164 29.325C259.304 29.7462 259.564 30.1497 259.563 30.589C259.547 33.5926 259.727 36.6014 259.367 39.6137C258.647 45.6383 256.394 51.3743 253.535 56.9337C253.277 57.4364 253.101 57.9753 252.886 58.4947C253.003 58.5653 253.119 58.6323 253.235 58.7029C253.623 58.2788 254.055 57.8891 254.387 57.4275C258.102 52.2985 260.306 46.6594 261.456 40.6702C261.533 40.27 261.711 39.8772 261.84 39.4811C261.889 39.7254 262.009 39.9719 261.975 40.2158C261.546 43.4322 260.936 46.6548 259.392 49.651C257.688 52.9561 255.715 56.138 253.898 59.3916C253.615 59.8975 252.677 60.3929 253.467 61.0788C253.516 61.4622 253.566 61.847 253.615 62.2304C253.706 62.5217 253.795 62.8116 253.885 63.1051C252.874 65.0835 251.652 67.0149 249.737 68.0758C247.817 69.1359 245.703 69.753 243.672 70.5667ZM237.578 41.2286C237.382 42.0568 237.189 42.8844 236.993 43.7127C236.093 44.342 235.189 44.972 234.289 45.6012C230.899 47.5014 227.512 49.401 223.813 51.4727C223.922 50.2811 224.002 49.3893 224.084 48.5024C224.149 48.5364 224.228 48.5536 224.278 48.6029C224.551 48.8879 224.818 49.1778 225.084 49.4677C225.163 48.9672 225.297 48.4631 225.296 47.9743C225.294 47.7567 225.022 47.5805 224.829 47.3282C224.515 47.6649 224.288 47.9102 224.059 48.1539C223.935 48.0027 223.726 47.8732 223.7 47.6942C223.303 44.7591 223.502 41.6919 222.422 38.9035C221.821 37.3497 221.903 35.4401 221.69 33.6853C221.653 33.3854 221.676 33.0686 221.67 32.7627C226.795 32.6706 231.817 32.5786 236.837 32.4958C236.937 32.4927 237.025 32.6025 237.116 32.6601C236.724 33.3152 235.693 34.0107 236.933 34.5889C237.648 34.9216 238.474 35.5345 239.224 34.6181C240.071 33.5813 238.912 33.2767 238.513 32.714C239.168 32.6207 239.825 32.5289 240.707 32.403C240.155 33.9079 239.709 35.1231 239.263 36.3383C238.291 35.9872 237.561 36.4715 237.44 37.5959C237.414 37.84 237.525 38.2241 237.689 38.2818C237.868 38.3475 238.261 38.1777 238.421 37.9882C238.751 37.5965 238.986 37.1233 239.261 36.6851C239.314 36.9944 239.318 37.3327 239.437 37.6046C239.535 37.8304 239.738 38.0538 239.956 38.1263C240.06 38.16 240.391 37.861 240.484 37.6593C241.124 36.2642 241.808 34.8767 242.32 33.4454C242.993 31.5619 242.512 30.7722 240.686 30.5078C239.939 30.4008 239.171 30.355 238.404 30.3608C232.931 30.4107 227.458 30.4804 221.982 30.5522C221.579 30.558 221.12 30.5138 220.772 30.7018C220.371 30.9195 219.829 31.3553 219.761 31.7217C219.593 32.6266 219.544 33.5802 219.661 34.4539C220.244 38.81 220.88 43.1506 221.527 47.4892C221.768 49.1101 222.059 50.7161 222.377 52.3153C222.507 52.9723 222.759 53.5933 223.668 53.2784C224.728 53.8644 225.759 53.1851 226.698 52.6502C229.745 50.9154 232.679 48.8884 235.79 47.3416C238.757 45.8651 239.054 43.2236 239.794 40.7009C239.869 40.4384 239.599 40.0171 239.363 39.8321C239.253 39.746 238.839 40.0484 238.561 40.1729C238.431 40.271 238.3 40.3712 238.17 40.4692C237.971 40.7232 237.774 40.9752 237.578 41.2286ZM243.232 50.1668C242.503 51.0686 242.901 51.7528 244.294 51.9931C244.742 52.3946 245.195 52.7933 245.642 53.1969C246.262 53.7566 246.871 53.6543 247.47 52.9219C248.142 54.1749 247.42 55.1538 246.061 55.1908C243.789 55.2509 241.507 55.3575 239.227 55.5976C238.174 55.7081 237.108 56.18 236.048 56.4882C235.109 56.4573 234.166 56.4271 233.227 56.3963C232.601 56.302 231.976 56.2092 231.349 56.1149C230.155 56.9647 228.991 56.7609 227.83 56.4852C228.085 56.1259 228.514 55.7581 228.546 55.4074C228.577 55.0659 228.095 54.4211 228.02 54.4569C227.436 54.7311 226.718 55.0363 226.406 55.5404C226.219 55.844 226.682 56.5211 226.853 57.031C227.433 57.2448 227.985 57.6086 228.598 57.6484C232.084 57.8752 235.572 58.0964 239.082 58.1653C240.59 58.1944 242.152 57.8561 243.691 57.6829C243.81 57.6744 243.929 57.6659 244.046 57.656C244.45 57.6233 244.854 57.5906 245.259 57.5594C245.547 57.4865 245.836 57.4115 246.123 57.3386C246.243 57.3104 246.362 57.2786 246.482 57.2503C249.181 56.6408 249.781 55.9353 249.49 53.3242C248.841 47.5046 248.957 41.4672 247.099 35.9808C246.828 35.176 246.717 34.2261 245.635 34.2564C244.505 34.289 244.209 35.263 243.947 36.1379C242.988 39.3345 242.055 42.5385 241.136 45.7434C241.034 46.1003 241.086 46.483 241.066 46.8528C240.486 47.2083 240.122 47.6278 240.483 48.2889C240.812 48.8917 241.264 49.1442 242.116 48.799C241.872 48.4352 241.67 48.2026 241.546 47.9264C241.435 47.6729 241.406 47.3731 241.342 47.0927C241.659 46.7751 241.975 46.461 242.292 46.1433C242.274 46.4341 242.205 46.742 242.251 47.0151C242.312 47.3711 242.465 47.7006 242.58 48.041C242.867 47.7612 243.266 47.5222 243.419 47.1913C243.877 46.2058 244.29 45.195 244.613 44.1712C244.739 43.7722 244.719 43.1816 244.501 42.9325C244.357 42.7655 243.74 43.0514 243.335 43.1342C243.958 41.3567 244.581 39.5793 245.204 37.8018C245.394 37.8083 245.585 37.8127 245.775 37.8192C245.885 38.4604 245.995 39.1051 246.105 39.7463C245.742 39.7229 245.377 39.6981 245.016 39.6727C245.129 40.2722 245.24 40.8704 245.353 41.4699C245.656 41.3209 245.957 41.174 246.259 41.0251C246.488 42.511 246.79 43.9793 246.934 45.4868C247.156 47.8414 247.275 50.2194 247.439 52.5888C246.56 51.7592 245.739 50.8525 244.774 50.1412C244.454 49.8973 243.76 50.1427 243.232 50.1668ZM215.481 64.029C214.708 64.8392 214.956 65.5646 215.521 66.0954C216.788 67.2827 218.496 67.5197 220.222 67.6445C220.421 67.6582 220.68 67.3568 220.914 67.2014C220.773 66.9893 220.683 66.6852 220.479 66.5867C219.926 66.3161 219.324 66.1331 218.742 65.9144C219.002 64.6454 216.999 63.4903 215.481 64.029ZM251.015 24.0272C251.536 24.313 252.055 24.5974 252.574 24.8853C252.315 25.0581 252.057 25.2324 251.762 25.4281C252.256 26.0886 252.653 26.7819 253.193 27.3229C256.226 30.3639 256.965 34.4027 256.701 38.8852C256.489 42.4904 255.074 45.9063 253.815 49.3423C253.679 49.7129 253.56 50.0873 253.434 50.4594C253.578 50.548 253.723 50.6344 253.866 50.723C254.32 50.1435 254.902 49.6143 255.205 48.9745C256.271 46.7178 257.391 44.4596 258.209 42.1307C259.157 39.4325 259.3 36.6903 258.836 34.0215C258.682 33.0852 258.528 32.1455 258.374 31.2092C257.685 28.5568 256.107 26.6418 253.992 25.1725C253.249 22.8408 251.303 21.8354 249.34 20.9118C248.819 20.6669 248.045 20.9008 247.388 20.9142C246.796 21.0506 246.203 21.1891 245.612 21.3255C245.608 21.4477 245.604 21.5698 245.598 21.6905C247.285 22.5099 248.971 23.3314 250.663 24.1374C250.742 24.1723 250.896 24.066 251.015 24.0272ZM234.135 42.0447C234.342 41.6714 234.547 41.3002 234.753 40.9269C234.897 41.0493 235.026 41.2656 235.19 41.2753C235.54 41.2956 235.909 41.2089 236.271 41.1665C236.246 40.8322 236.221 40.4978 236.196 40.1634C235.837 40.2447 235.463 40.284 235.122 40.4298C234.967 40.495 234.875 40.7715 234.753 40.9537C234.548 40.6716 234.365 40.3693 234.139 40.1074C231.531 37.0848 228.005 35.3645 224.525 33.5853C224.316 33.479 223.957 33.6386 223.666 33.6747C223.741 33.9602 223.726 34.3577 223.909 34.5117C224.854 35.3019 225.85 36.0305 226.828 36.7822C227.009 37.283 227.05 37.9481 227.4 38.2559C229.265 39.9052 231.194 41.4831 233.139 43.0387C233.482 43.314 233.996 43.3744 234.433 43.5335C234.53 43.4167 234.628 43.3034 234.725 43.1866C234.529 42.8065 234.333 42.4263 234.135 42.0447ZM211.86 58.3071C210.882 53.6715 211.457 48.9688 213.045 44.206C213.502 42.8369 213.841 41.4404 214.344 39.6735C213.766 40.1018 213.512 40.2379 213.326 40.4377C211.943 41.911 210.856 43.5452 210.308 45.4832C208.619 51.4504 208.46 57.1052 211.433 62.0962C211.695 62.5386 212.247 62.7739 212.665 63.1045C212.641 62.5342 212.616 61.9661 212.592 61.3958C212.711 61.0787 213 60.6717 212.92 60.4568C212.634 59.7083 212.221 59.0197 211.86 58.3071ZM227.683 22.9477C227.747 23.1335 227.813 23.3172 227.876 23.5016C230.336 22.6004 232.777 21.5959 235.259 20.8263C237.749 20.0533 240.278 19.5174 243.015 18.8222C242.101 17.5959 240.819 17.7432 239.671 17.9416C235.405 18.6725 231.198 19.7099 227.683 22.9477ZM229.339 54.1525C229.408 54.3214 229.477 54.4903 229.542 54.6599C230.243 54.5008 230.988 54.4742 231.635 54.1612C233.603 53.2097 235.545 52.181 237.464 51.1032C237.855 50.8839 238.093 50.3189 238.403 49.9115C237.929 49.9023 237.401 49.7231 236.99 49.9125C234.85 50.8951 232.732 51.943 230.63 53.0327C230.153 53.2828 229.769 53.7741 229.339 54.1525ZM233.848 67.9867C233.814 68.1395 233.778 68.2909 233.744 68.4438C234.396 68.5885 235.046 68.9246 235.702 68.8455C237.963 68.5733 240.026 67.5036 241.955 66.0813C242.173 65.92 242.25 65.5268 242.393 65.2425C242.109 65.1932 241.804 65.025 241.547 65.1117C239.271 65.883 237.002 66.6939 234.735 67.5098C234.427 67.6206 234.143 67.8249 233.848 67.9867ZM226.314 24.859C224.572 24.3215 221.338 26.5541 221.216 28.1142C221.198 28.3605 221.336 28.716 221.52 28.7987C221.707 28.8842 222.095 28.7814 222.293 28.6185C223.172 27.895 224.025 27.1374 224.867 26.364C225.331 25.9379 225.746 25.4569 226.314 24.859ZM254.915 49.8617C254.22 51.0337 253.472 52.1818 252.845 53.3871C252.501 54.049 251.613 55.0062 252.582 55.4597C253.491 55.8872 253.87 54.6938 254.249 54.0428C254.993 52.776 255.77 51.4616 254.915 49.8617ZM256.321 21.3479C256.557 22.9716 257.584 24.0297 258.477 25.1654C258.53 25.2338 259.192 24.9732 259.269 24.7764C259.835 23.3401 257.942 21.0626 256.321 21.3479ZM237.348 54.2081C236.512 53.2525 235.463 53.5212 234.482 53.6304C234.288 53.6515 233.941 54.016 233.925 54.2101C233.908 54.4204 234.154 54.7517 234.356 54.7915C235.314 54.9723 236.295 55.0665 237.348 54.2081ZM223.462 67.2794C222.604 67.4508 221.955 67.5823 221.305 67.7103C221.358 67.9857 221.375 68.493 221.471 68.4941C222.094 68.5142 222.736 68.4377 223.371 68.3357C223.399 68.3339 223.418 67.8002 223.462 67.2794ZM228.872 34.181C228.756 34.3605 228.637 34.5385 228.52 34.7179C229.013 35.1037 229.48 35.5266 230.013 35.8493C230.162 35.9387 230.505 35.723 230.761 35.6455C230.723 35.4226 230.76 35.0727 230.63 34.9977C230.07 34.6818 229.462 34.4465 228.872 34.181ZM216.285 35.4643C216.072 35.3658 215.858 35.2693 215.648 35.1722C215.375 35.6796 215.098 36.1877 214.825 36.6951C215.038 36.7774 215.415 36.9641 215.44 36.9291C215.75 36.4574 216.011 35.9576 216.285 35.4643Z" fill="#F2B11E"/>
<path d="M253.623 62.2267C253.575 61.8433 253.524 61.4585 253.476 61.0751C253.636 60.9534 253.796 60.8317 253.955 60.7121C254.457 60.8748 254.959 61.0375 255.462 61.1982C255.993 61.5286 256.439 62.457 257.192 61.2277C259.556 58.2369 261.341 54.9589 262.861 51.5068C263.639 49.739 263.295 48.4304 262.507 47.1159C262.71 46.5201 262.915 45.9222 263.119 45.3264C263.382 45.5152 263.646 45.7055 263.909 45.8944C263.209 46.4497 263.417 47.0221 263.733 47.5273C263.871 47.7472 264.197 47.8294 264.437 47.9763C264.647 47.5113 264.857 47.0426 265.068 46.5776C265.227 46.5364 265.388 46.4931 265.547 46.4518C265.19 47.7465 264.963 49.0858 264.451 50.3334C262.729 54.5148 260.484 58.4626 257.676 62.0704C253.153 67.8785 247.621 72.2057 240.97 74.7427C238.601 75.6477 236.213 76.4707 234.169 77.2101C233.776 76.5196 233.64 75.8817 233.297 75.783C232.855 75.657 232.248 75.9606 231.712 76.0793C231.852 76.5309 231.996 76.9818 232.136 77.4333L232.135 77.4156C231.136 77.507 230.079 77.8039 229.149 77.6446C227.17 77.3112 225.254 76.7427 223.315 76.2713L223.316 76.2516C225.008 76.0293 226.704 75.7957 228.398 75.5875C232.951 75.0246 237.291 73.3461 241.564 71.2733C242.235 70.9486 242.964 70.8018 243.668 70.5707C245.699 69.757 247.817 69.1392 249.744 68.0742C251.66 67.0148 252.883 65.0834 253.891 63.1035C254.275 63.2175 254.659 63.3351 255.042 63.4491C255.11 63.2648 255.283 62.9709 255.228 62.9173C254.922 62.6065 254.58 62.3185 254.203 62.0979C254.085 62.0224 253.822 62.1761 253.623 62.2267ZM234.354 74.8222C234.508 75.3996 234.517 75.8744 234.663 75.9036C235.082 75.9877 235.556 75.888 236.009 75.8602C235.994 75.581 236.07 75.1059 235.945 75.0585C235.556 74.9063 235.089 74.9135 234.354 74.8222Z" fill="#845121"/>
<path d="M223.32 76.2675C223.212 76.2648 223.104 76.2621 222.998 76.2503C222.995 76.2509 223.006 76.1753 223.013 76.1364C223.115 76.1723 223.218 76.2118 223.32 76.2477C223.32 76.2477 223.32 76.2675 223.32 76.2675Z" fill="#845121"/>
<path d="M232.141 77.4274C232.176 77.4063 232.212 77.3832 232.246 77.3621C232.212 77.3796 232.177 77.3935 232.142 77.4109C232.139 77.4116 232.141 77.4274 232.141 77.4274Z" fill="#845121"/>
<path d="M223.665 53.2773C222.757 53.5922 222.504 52.9712 222.374 52.3142C222.057 50.7185 221.765 49.109 221.524 47.488C220.878 43.1495 220.241 38.8089 219.659 34.4528C219.542 33.5791 219.594 32.6249 219.758 31.7206C219.826 31.3542 220.367 30.917 220.769 30.7007C221.117 30.5127 221.576 30.5569 221.98 30.5511C227.455 30.4793 232.931 30.411 238.402 30.3597C239.171 30.3518 239.939 30.3976 240.683 30.5067C242.509 30.7711 242.991 31.5608 242.317 33.4443C241.806 34.8755 241.12 36.2617 240.482 37.6582C240.391 37.8578 240.057 38.1589 239.954 38.1252C239.734 38.0548 239.532 37.8293 239.434 37.6035C239.316 37.3316 239.312 36.9933 239.259 36.684L239.259 36.6981C239.256 36.5773 239.252 36.4551 239.25 36.3322L239.263 36.3351C239.709 35.1199 240.154 33.9047 240.706 32.3998C239.824 32.5257 239.167 32.6175 238.512 32.7108L238.525 32.7173C238.344 32.6947 238.162 32.6707 237.982 32.6481L237.994 32.6475C237.874 32.6616 237.752 32.6743 237.631 32.6884L237.659 32.6866C237.475 32.6774 237.292 32.6696 237.107 32.6603L237.121 32.6577C237.026 32.6008 236.94 32.4924 236.841 32.4934C231.821 32.5761 226.802 32.666 221.675 32.7603C221.681 33.0662 221.657 33.383 221.695 33.6829C221.909 35.4356 221.826 37.3472 222.427 38.9011C223.507 41.6895 223.307 44.7567 223.705 47.6917C223.73 47.8707 223.939 48.0003 224.063 48.1515L224.082 48.1461C224.022 48.1969 223.961 48.2478 223.903 48.3001C223.97 48.3694 224.035 48.4372 224.103 48.5044L224.087 48.5021C224.007 49.3904 223.926 50.2786 223.818 51.4738C227.515 49.4006 230.903 47.5025 234.294 45.6023C235.32 46.1449 235.354 46.7505 234.208 47.5768C233.009 48.4399 231.72 49.1705 230.427 49.8552C228.186 51.0394 225.918 52.1392 223.665 53.2773Z" fill="#391F10"/>
<path d="M246.128 57.3393C245.84 57.4122 245.551 57.4872 245.263 57.5601C244.86 57.5927 244.456 57.6254 244.05 57.6567C243.931 57.6651 243.812 57.6736 243.695 57.6836C243.074 57.6169 242.458 57.4973 241.829 57.4928C239.809 57.476 237.776 57.5262 236.049 56.486C237.108 56.1778 238.173 55.708 239.228 55.5954C241.51 55.3567 243.791 55.2501 246.062 55.1886C247.42 55.1516 248.142 54.1728 247.471 52.9197L247.47 52.9324C247.462 52.8108 247.453 52.6892 247.445 52.5676L247.446 52.5818C247.284 50.2138 247.167 47.8337 246.941 45.4798C246.799 43.9737 246.497 42.5053 246.267 41.0215C246.216 40.5958 246.165 40.1664 246.112 39.7392C246.002 39.098 245.892 38.4533 245.783 37.8121C245.593 37.8057 245.401 37.8013 245.211 37.7948C244.588 39.5722 243.965 41.3497 243.344 43.125C242.996 44.1288 242.648 45.1325 242.296 46.137C241.979 46.4546 241.662 46.7687 241.346 47.0863C241.254 47.0075 241.162 46.9288 241.068 46.8486C241.089 46.4787 241.037 46.096 241.139 45.7391C242.057 42.5342 242.99 39.3302 243.949 36.1336C244.212 35.2588 244.509 34.2826 245.638 34.2522C246.718 34.2239 246.826 35.1723 247.101 35.9765C248.959 41.4629 248.845 47.4982 249.492 53.3199C249.783 55.9345 249.183 56.6366 246.484 57.246C246.369 57.2807 246.249 57.309 246.128 57.3393Z" fill="#381F11"/>
<path d="M261.845 39.4781C261.715 39.8742 261.538 40.267 261.461 40.6672C260.31 46.6564 258.107 52.2955 254.391 57.4245C254.058 57.8846 253.624 58.2765 253.239 58.6999C253.123 58.6294 253.007 58.5623 252.891 58.4917C253.105 57.9688 253.282 57.4334 253.54 56.9307C256.398 51.3678 258.651 45.6353 259.371 39.6107C259.732 36.5984 259.551 33.5897 259.568 30.586C259.571 30.1482 259.308 29.7432 259.168 29.322C259.378 29.239 259.586 29.1546 259.796 29.0716C260.08 29.3278 260.411 29.5464 260.641 29.8486C261.725 31.2619 262.075 32.9958 262.087 34.8767C262.089 35.2744 262.171 35.6603 262.214 36.05L262.192 36.0292C262.195 36.15 262.2 36.2723 262.203 36.3931L262.202 36.3825C262.202 36.5039 262.202 36.629 262.201 36.7504L262.202 36.7342C262.163 36.9273 262.122 37.1189 262.084 37.312L262.086 37.2936C262.087 37.4165 262.089 37.5394 262.092 37.6603L262.093 37.6475C262.051 37.9571 262.012 38.2646 261.972 38.5756L261.973 38.5629C261.971 38.6865 261.971 38.8079 261.968 38.9315L261.969 38.9153C261.929 39.1069 261.888 39.2985 261.844 39.4908L261.845 39.4781Z" fill="#FFFBF3"/>
<path d="M263.12 45.3239C262.917 45.9197 262.712 46.5176 262.51 47.1149C260.526 52.1534 257.552 56.6139 253.958 60.711C253.798 60.8328 253.638 60.9545 253.479 61.0741C252.686 60.3888 253.626 59.8928 253.91 59.3869C255.727 56.1333 257.698 52.95 259.403 49.6463C260.948 46.6501 261.556 43.426 261.986 40.2111C262.019 39.9657 261.9 39.7207 261.852 39.4764L261.85 39.4948C261.89 39.3031 261.931 39.1115 261.975 38.9192L261.974 38.9354C261.976 38.8119 261.977 38.6904 261.979 38.5668L261.978 38.5795C262.019 38.2699 262.059 37.9625 262.099 37.6515L262.097 37.6642C262.096 37.5413 262.095 37.4183 262.092 37.2975L262.089 37.3159C262.128 37.1228 262.169 36.9312 262.208 36.7381L262.207 36.7543C262.207 36.6329 262.208 36.5079 262.208 36.3864L262.209 36.397C262.206 36.2762 262.201 36.1539 262.198 36.0331L262.22 36.0539C262.502 34.9165 262.787 33.7785 263.065 32.6419C263.175 32.1869 263.279 31.7298 263.671 31.1496C263.902 31.8586 264.343 32.5418 264.333 33.2791C264.3 35.9075 264.134 38.5505 263.972 41.193C263.923 41.9877 263.717 42.7911 263.582 43.5897C263.422 44.1684 263.27 44.7472 263.12 45.3239Z" fill="#361E12"/>
<path d="M253.994 25.1706C256.111 26.6378 257.686 28.5548 258.376 31.2073C257.774 31.0208 257.415 31.2341 257.486 31.9328C257.552 32.5734 257.623 33.2346 257.856 33.7968C257.941 34.0019 258.497 33.9526 258.837 34.0195C259.301 36.6848 259.157 39.4292 258.211 42.1287C257.393 44.4576 256.274 46.7137 255.207 48.9725C254.904 49.6124 254.321 50.1416 253.868 50.7211C253.724 50.6325 253.579 50.546 253.436 50.4575C253.562 50.0853 253.68 49.711 253.817 49.3404C255.074 45.9029 256.491 42.4884 256.703 38.8833C256.967 34.4008 256.229 30.3599 253.194 27.321C252.655 26.78 252.254 26.0873 251.764 25.4261C252.057 25.229 252.316 25.0562 252.576 24.8834C253.048 24.9786 253.52 25.0739 253.994 25.1706Z" fill="#8B5723"/>
<path d="M212.589 61.3999C212.613 61.9702 212.638 62.5383 212.661 63.1086C212.243 62.7781 211.693 62.5406 211.429 62.1003C208.457 57.1093 208.616 51.4545 210.304 45.4873C210.854 43.5472 211.939 41.9151 213.323 40.4418C213.51 40.2435 213.763 40.1059 214.34 39.6776C213.84 41.4424 213.5 42.8389 213.042 44.2101C211.451 48.9715 210.878 53.6756 211.858 58.3091C211.221 59.4896 211.453 60.4733 212.589 61.3999Z" fill="#FDFAF2"/>
<path d="M227.682 22.9469C231.199 19.7105 235.404 18.6717 239.67 17.9408C240.816 17.7446 242.1 17.5951 243.014 18.8214C240.279 19.5181 237.75 20.054 235.258 20.8256C232.776 21.5951 230.333 22.5982 227.875 23.5008C227.81 23.315 227.744 23.1313 227.682 22.9469Z" fill="#FFF9EF"/>
<path d="M223.666 53.2764C225.921 52.1397 228.188 51.0364 230.423 49.8535C231.715 49.1689 233.005 48.4382 234.203 47.5751C235.351 46.7468 235.317 46.1446 234.289 45.6007C235.189 44.9714 236.091 44.34 236.993 43.7122C237.374 43.7089 237.894 43.8718 238.113 43.671C238.754 43.0824 238.947 41.0231 238.559 40.1709C238.835 40.0449 239.249 39.7426 239.361 39.8301C239.597 40.0151 239.869 40.4343 239.792 40.6989C239.053 43.2215 238.755 45.8631 235.788 47.3396C232.678 48.8864 229.744 50.9134 226.696 52.6482C225.755 53.1816 224.726 53.8624 223.666 53.2764Z" fill="#895622"/>
<path d="M234.754 40.928C234.547 41.3013 234.342 41.6725 234.134 42.0444C232.292 40.4674 230.482 38.8541 228.591 37.3402C228.142 36.9817 227.424 36.9585 226.83 36.7812C225.85 36.0316 224.855 35.303 223.912 34.5107C223.728 34.3567 223.743 33.9593 223.668 33.6738C223.96 33.6376 224.318 33.478 224.527 33.5843C228.007 35.3635 231.534 37.0839 234.141 40.1064C234.367 40.3683 234.552 40.6685 234.755 40.9527L234.754 40.928Z" fill="#F5F2EE"/>
<path d="M236.05 56.4856C237.777 57.5258 239.811 57.4756 241.83 57.4924C242.461 57.4984 243.075 57.6165 243.696 57.6831C242.159 57.8543 240.597 58.1961 239.087 58.1656C235.578 58.0967 232.088 57.874 228.603 57.6486C227.99 57.6089 227.439 57.245 226.858 57.0312C227.184 56.8493 227.508 56.6695 227.834 56.4876C228.995 56.7633 230.157 56.9656 231.353 56.1173C230.893 56.732 230.926 57.2254 231.69 57.1362C232.201 57.0759 232.716 56.656 233.229 56.3972C234.17 56.426 235.109 56.4568 236.05 56.4856Z" fill="#8A5723"/>
<path d="M226.831 36.7811C227.425 36.9584 228.144 36.9795 228.592 37.3401C230.483 38.854 232.295 40.4652 234.135 42.0443C234.331 42.4245 234.527 42.8046 234.721 43.1869C234.624 43.3037 234.526 43.417 234.429 43.5338C233.994 43.3726 233.48 43.3121 233.135 43.039C231.193 41.4813 229.265 39.9048 227.396 38.2562C227.053 37.947 227.012 37.2819 226.831 36.7811Z" fill="#372119"/>
<path d="M229.339 54.1521C229.769 53.7736 230.155 53.2802 230.633 53.0316C232.734 51.944 234.853 50.894 236.993 49.9113C237.405 49.722 237.932 49.9012 238.407 49.9103C238.098 50.3156 237.856 50.8814 237.468 51.1021C235.549 52.1798 233.606 53.2086 231.638 54.1601C230.991 54.4731 230.246 54.4996 229.546 54.6588C229.475 54.492 229.407 54.3231 229.339 54.1521Z" fill="#3B2111"/>
<path d="M233.847 67.9863C234.142 67.8246 234.426 67.6203 234.731 67.5101C236.998 66.6943 239.266 65.8833 241.542 65.1121C241.799 65.0254 242.105 65.1936 242.389 65.2428C242.246 65.5272 242.172 65.9197 241.951 66.0817C240.022 67.504 237.958 68.5737 235.698 68.8458C235.042 68.925 234.392 68.5889 233.74 68.4442C233.777 68.2906 233.813 68.1392 233.847 67.9863Z" fill="#FFF9EF"/>
<path d="M253.994 25.17C253.522 25.0747 253.049 24.9795 252.576 24.8828C252.055 24.597 251.536 24.3126 251.016 24.0246C250.093 23.3696 249.145 22.7461 248.263 22.0421C247.9 21.7546 247.677 21.2922 247.391 20.9096C248.049 20.8961 248.824 20.6637 249.343 20.9071C251.304 21.8329 253.251 22.8383 253.994 25.17Z" fill="#351C12"/>
<path d="M218.742 65.9143C219.325 66.1331 219.926 66.316 220.479 66.5867C220.683 66.6852 220.773 66.9892 220.914 67.2013C220.682 67.3582 220.421 67.6582 220.222 67.6445C218.495 67.5217 216.786 67.2848 215.522 66.0953C214.956 65.5646 214.708 64.8391 215.481 64.029C216.568 64.6562 217.655 65.287 218.742 65.9143Z" fill="#391F11"/>
<path d="M226.314 24.8596C225.744 25.456 225.331 25.9385 224.869 26.3625C224.029 27.1373 223.174 27.897 222.295 28.617C222.096 28.7799 221.707 28.8848 221.521 28.7971C221.34 28.7124 221.198 28.3575 221.218 28.1127C221.338 26.5546 224.572 24.322 226.314 24.8596Z" fill="#8E5A24"/>
<path d="M254.916 49.8613C255.77 51.4613 254.991 52.7742 254.253 54.0418C253.874 54.6928 253.495 55.8861 252.586 55.4587C251.617 55.0052 252.505 54.048 252.848 53.3861C253.472 52.1814 254.22 51.0333 254.916 49.8613Z" fill="#FFF9EF"/>
<path d="M242.301 46.1393C242.649 45.1356 242.999 44.1297 243.349 43.1274C243.754 43.0446 244.37 42.7623 244.513 42.9278C244.731 43.1769 244.749 43.7697 244.625 44.1665C244.302 45.1904 243.889 46.2012 243.431 47.1867C243.277 47.5196 242.877 47.7551 242.592 48.0363C242.477 47.696 242.324 47.3664 242.263 47.0105C242.212 46.7401 242.281 46.4322 242.301 46.1393Z" fill="#FEF6E7"/>
<path d="M256.321 21.3475C257.942 21.0621 259.837 23.3375 259.268 24.7745C259.191 24.9713 258.529 25.2319 258.476 25.1635C257.587 24.0307 256.557 22.9712 256.321 21.3475Z" fill="#FEF8EB"/>
<path d="M247.471 52.9228C246.87 53.6573 246.263 53.7575 245.643 53.1979C245.196 52.7942 244.745 52.3969 244.295 51.994C245.213 50.492 243.878 50.5709 243.233 50.1678C243.76 50.1436 244.453 49.8968 244.782 50.1373C245.747 50.8486 246.568 51.7552 247.446 52.5849L247.446 52.5707C247.454 52.6923 247.462 52.8139 247.47 52.9355C247.47 52.9355 247.471 52.9228 247.471 52.9228Z" fill="#FAF5EB"/>
<path d="M238.514 32.7121C238.915 33.2762 240.074 33.5808 239.225 34.6161C238.476 35.5325 237.649 34.9196 236.934 34.587C235.694 34.0088 236.728 33.3147 237.117 32.6582L237.103 32.6609C237.288 32.6701 237.471 32.6779 237.656 32.6871L237.628 32.6889C237.748 32.6748 237.871 32.6621 237.991 32.648L237.979 32.6486C238.159 32.6712 238.341 32.6952 238.521 32.7178L238.514 32.7121Z" fill="#FEF8EB"/>
<path d="M265.07 46.5732C264.86 47.0382 264.65 47.5068 264.44 47.9719C264.198 47.8271 263.873 47.7449 263.736 47.5229C263.419 47.0177 263.211 46.4453 263.912 45.8899C264.034 45.6668 264.268 45.4202 264.256 45.2244C264.226 44.7608 264.077 44.3197 263.976 43.8714C264.982 43.5718 265.647 44.3262 265.394 45.5027C265.315 45.8641 265.18 46.2185 265.07 46.5732Z" fill="#351C12"/>
<path d="M247.389 20.9118C247.674 21.2945 247.898 21.7569 248.261 22.0444C249.146 22.7477 250.094 23.3712 251.014 24.0269C250.895 24.0657 250.741 24.172 250.665 24.1365C248.972 23.329 247.286 22.5075 245.601 21.6896C245.605 21.5674 245.609 21.4453 245.615 21.3246C246.206 21.1846 246.798 21.0482 247.389 20.9118Z" fill="#895622"/>
<path d="M238.559 40.1717C238.947 41.0238 238.755 43.081 238.113 43.6717C237.893 43.8725 237.376 43.711 236.993 43.7129C237.189 42.8846 237.382 42.057 237.578 41.2287C237.773 40.9753 237.972 40.7213 238.168 40.4679C238.298 40.3699 238.427 40.2718 238.559 40.1717Z" fill="#361E12"/>
<path d="M227.832 56.4862C227.506 56.6681 227.183 56.8479 226.857 57.0298C226.686 56.52 226.221 55.8449 226.41 55.5392C226.722 55.0351 227.44 54.73 228.024 54.4557C228.099 54.4199 228.581 55.0648 228.55 55.4063C228.518 55.7604 228.089 56.1283 227.832 56.4862Z" fill="#391F10"/>
<path d="M237.348 54.2084C236.291 55.0675 235.313 54.9726 234.357 54.7933C234.154 54.7556 233.907 54.4207 233.926 54.2119C233.942 54.0178 234.288 53.6553 234.483 53.6322C235.462 53.5216 236.515 53.2522 237.348 54.2084Z" fill="#FEF6E7"/>
<path d="M258.837 34.0189C258.496 33.952 257.939 34.0034 257.856 33.7961C257.624 33.2319 257.553 32.5707 257.486 31.9321C257.413 31.2321 257.774 31.0202 258.375 31.2067C258.529 32.1429 258.683 33.0827 258.837 34.0189Z" fill="#381F11"/>
<path d="M218.742 65.914C217.653 65.2853 216.566 64.658 215.478 64.0293C216.999 63.49 219.002 64.645 218.742 65.914Z" fill="#8A5723"/>
<path d="M223.463 67.2791C223.417 67.8019 223.4 68.3336 223.368 68.336C222.735 68.4359 222.095 68.5138 221.469 68.4944C221.374 68.4912 221.357 67.9839 221.302 67.7106C221.953 67.5806 222.605 67.4505 223.463 67.2791Z" fill="#FEF6E7"/>
<path d="M212.589 61.3994C211.453 60.4728 211.221 59.489 211.858 58.305C212.221 59.0191 212.632 59.7062 212.914 60.4589C212.998 60.6767 212.707 61.0823 212.589 61.3994Z" fill="#463026"/>
<path d="M239.261 36.6849C238.986 37.123 238.751 37.5963 238.421 37.9879C238.261 38.1775 237.87 38.3452 237.689 38.2816C237.524 38.2239 237.412 37.8383 237.44 37.5957C237.56 36.4713 238.291 35.9869 239.263 36.3381L239.251 36.3351C239.254 36.4559 239.258 36.5782 239.26 36.7011L239.261 36.6849Z" fill="#FEF4E1"/>
<path d="M246.115 39.7402C246.166 40.1695 246.218 40.5968 246.269 41.0225C245.966 41.168 245.665 41.3149 245.364 41.4653C245.251 40.8657 245.14 40.2676 245.028 39.6681C245.387 39.6921 245.752 39.7169 246.115 39.7402Z" fill="#FEF4E1"/>
<path d="M228.872 34.1801C229.462 34.4455 230.07 34.6808 230.628 34.9989C230.758 35.0739 230.719 35.4223 230.759 35.6467C230.505 35.7221 230.16 35.9398 230.011 35.8504C229.478 35.5277 229.011 35.1048 228.518 34.719C228.637 34.5375 228.755 34.3595 228.872 34.1801Z" fill="#FEF6E7"/>
<path d="M241.074 46.8525C241.166 46.9313 241.258 47.0101 241.352 47.0903C241.416 47.3707 241.445 47.6706 241.557 47.924C241.68 48.2002 241.882 48.4328 242.127 48.7966C241.274 49.1418 240.82 48.8914 240.493 48.2865C240.131 47.6275 240.493 47.2101 241.074 46.8525Z" fill="#543C29"/>
<path d="M243.232 50.1659C243.877 50.5726 245.213 50.4937 244.294 51.9922C242.903 51.7533 242.503 51.0677 243.232 50.1659Z" fill="#463026"/>
<path d="M233.227 56.3959C232.714 56.6547 232.198 57.0766 231.688 57.1349C230.924 57.2241 230.891 56.7307 231.351 56.116C231.976 56.2088 232.602 56.3031 233.227 56.3959Z" fill="#3B2111"/>
<path d="M224.06 48.1512C224.287 47.906 224.516 47.6622 224.83 47.3255C225.021 47.5764 225.294 47.7561 225.297 47.9716C225.298 48.4604 225.164 48.968 225.085 49.465C224.817 49.1772 224.552 48.8852 224.279 48.6002C224.23 48.5488 224.152 48.5316 224.085 48.4997L224.101 48.5021C224.095 48.3819 224.088 48.2618 224.082 48.1452L224.06 48.1512Z" fill="#FEF4E1"/>
<path d="M234.756 40.953C234.877 40.7729 234.97 40.4943 235.125 40.4291C235.467 40.2834 235.838 40.2461 236.199 40.1628C236.224 40.4971 236.249 40.8315 236.274 41.1659C235.913 41.2082 235.544 41.295 235.191 41.2732C235.027 41.2635 234.898 41.0472 234.755 40.9248C234.755 40.9283 234.756 40.953 234.756 40.953Z" fill="#FEF2DA"/>
<path d="M216.285 35.4639C216.011 35.9572 215.748 36.4591 215.437 36.9293C215.412 36.9644 215.035 36.7777 214.822 36.6954C215.095 36.188 215.371 35.6799 215.644 35.1724C215.862 35.2682 216.073 35.3654 216.285 35.4639Z" fill="#FEF8EB"/>
<path d="M253.623 62.2268C253.822 62.1762 254.084 62.0225 254.208 62.0953C254.585 62.3159 254.925 62.6024 255.233 62.9147C255.287 62.9704 255.115 63.2622 255.047 63.4464C254.664 63.3324 254.28 63.2149 253.896 63.1009C253.802 62.8102 253.712 62.5168 253.623 62.2268Z" fill="#351C12"/>
<path d="M263.975 43.8741C264.075 44.3245 264.224 44.7634 264.255 45.2271C264.267 45.4229 264.032 45.6694 263.911 45.8926C263.648 45.7038 263.383 45.5135 263.12 45.3246C263.272 44.7459 263.425 44.1685 263.577 43.5897C263.709 43.6859 263.842 43.78 263.975 43.8741Z" fill="#DD9F25"/>
<path d="M244.053 57.6582C244.457 57.6255 244.86 57.5929 245.266 57.5616C244.86 57.5929 244.457 57.6255 244.053 57.6582Z" fill="#8A5723"/>
<path d="M238.167 40.4677C237.972 40.721 237.773 40.9751 237.578 41.2285C237.773 40.9751 237.97 40.7231 238.167 40.4677Z" fill="#895622"/>
<path d="M246.128 57.3389C246.248 57.3105 246.368 57.2786 246.488 57.2503C246.37 57.2801 246.25 57.3084 246.128 57.3389Z" fill="#8A5723"/>
<path d="M253.954 60.7122C257.546 56.6136 260.52 52.1531 262.506 47.116C263.293 48.4326 263.638 49.7391 262.86 51.5069C261.341 54.959 259.555 58.237 257.191 61.2278C256.398 60.0926 256.301 60.0915 255.461 61.1982C254.958 61.0376 254.456 60.8749 253.954 60.7122Z" fill="#EDAC1F"/>
<path d="M234.354 74.8218C235.089 74.9131 235.556 74.9058 235.947 75.0595C236.07 75.109 235.996 75.582 236.011 75.8612C235.557 75.889 235.085 75.9866 234.665 75.9046C234.517 75.8739 234.506 75.3978 234.354 74.8218Z" fill="#381F11"/>
<path d="M255.463 61.1978C256.303 60.091 256.399 60.0922 257.192 61.2273C256.438 62.4587 255.993 61.5317 255.463 61.1978Z" fill="#3B2111"/>
<path d="M237.658 32.6884C237.473 32.6792 237.29 32.6714 237.105 32.6621C237.288 32.6699 237.473 32.6792 237.658 32.6884Z" fill="#F2B11E"/>
<path d="M238.524 32.7182C238.344 32.6956 238.162 32.6715 237.981 32.6489C238.165 32.6709 238.345 32.6935 238.524 32.7182Z" fill="#F2B11E"/>
<path d="M237.996 32.6469C237.875 32.6611 237.753 32.6738 237.632 32.688C237.751 32.6759 237.875 32.6611 237.996 32.6469Z" fill="#F2B11E"/>
<path d="M224.082 48.1466C224.088 48.2671 224.093 48.3862 224.101 48.5046C224.034 48.4351 223.969 48.367 223.9 48.2996C223.961 48.2486 224.021 48.1976 224.082 48.1466Z" fill="#F2B11E"/>
<path d="M239.26 36.6976C239.257 36.5764 239.252 36.4538 239.251 36.3305C239.256 36.4531 239.257 36.5764 239.26 36.6976Z" fill="#F2B11E"/>
<path d="M247.471 52.9367C247.463 52.8147 247.455 52.6928 247.446 52.5709C247.455 52.6928 247.463 52.8147 247.471 52.9367Z" fill="#F2B11E"/>
<path d="M262.089 37.6516C262.048 37.9612 262.008 38.2686 261.968 38.5796C262.008 38.2722 262.049 37.9626 262.089 37.6516Z" fill="#F2B11E"/>
<path d="M261.965 38.9216C261.924 39.1132 261.883 39.3048 261.839 39.4971C261.883 39.3048 261.924 39.1132 261.965 38.9216Z" fill="#F2B11E"/>
<path d="M262.202 36.7381C262.163 36.9312 262.123 37.1228 262.084 37.3159C262.121 37.1249 262.16 36.9318 262.202 36.7381Z" fill="#F2B11E"/>
<path d="M262.192 36.0304C262.195 36.1515 262.199 36.2741 262.202 36.3953C262.198 36.2762 262.193 36.1536 262.192 36.0304Z" fill="#F2B11E"/>
<path d="M262.202 36.3833C262.202 36.5051 262.201 36.6305 262.201 36.7523C262.201 36.6305 262.202 36.5086 262.202 36.3833Z" fill="#F2B11E"/>
<path d="M262.084 37.2972C262.085 37.4204 262.086 37.5437 262.089 37.6649C262.088 37.5451 262.085 37.4204 262.084 37.2972Z" fill="#F2B11E"/>
<path d="M261.969 38.5687C261.967 38.6926 261.967 38.8144 261.965 38.9384C261.967 38.8144 261.969 38.6905 261.969 38.5687Z" fill="#F2B11E"/>
</g>
<g filter="url(#filter1_d_9_5896)">
<path d="M22.7556 223.749C11.5993 216.254 8.69759 202.126 15.4198 188.354C20.6976 177.541 28.844 170.103 39.5171 165.592C46.9798 162.437 54.2434 161.957 61.2426 164.507C63.8497 165.457 66.1022 166.966 67.9042 169.047C71.2797 172.938 73.9419 177.344 75.9343 182.258C78.408 188.359 77.8747 194.696 75.1923 201.256C72.9849 206.655 69.5184 211.296 65.7869 215.773C64.9671 216.756 64.2133 217.795 63.4266 218.807C63.2428 218.85 62.9906 218.828 62.881 218.946C59.6154 222.42 55.7222 224.695 51.4939 226.288C46.7459 228.076 42.0891 229.666 37.0627 229.205C32.0133 228.74 27.6935 227.215 23.951 224.174C23.6424 223.919 23.1578 223.885 22.7556 223.749ZM41.1399 227.413C41.174 227.396 41.2084 227.382 41.2426 227.365C41.2086 227.385 41.173 227.408 41.139 227.429C40.9989 226.977 40.8554 226.527 40.7153 226.075C41.2515 225.956 41.8585 225.653 42.3006 225.779C42.643 225.877 42.7789 226.515 43.1723 227.206C45.2166 226.466 47.6041 225.643 49.9731 224.738C56.6227 222.2 62.1547 217.873 66.6787 212.066C69.4877 208.458 71.7324 204.51 73.4537 200.329C73.9681 199.083 74.1932 197.746 74.5503 196.448C74.7335 195.836 74.9958 195.225 75.0911 194.613C75.5802 191.451 75.3822 188.408 74.8163 185.412C74.0645 181.438 72.2539 178.051 70.1157 174.938C66.7956 170.112 62.2539 166.835 56.2895 165.776C48.3436 164.364 40.7304 166.711 33.4401 171.381C23.5783 177.7 17.1255 186.503 14.7408 197.871C12.6777 207.703 16.9667 217.671 24.7581 221.606C26.8747 222.677 29.2343 223.464 31.6285 223.848C33.3763 224.13 35.3673 223.64 37.2421 223.309C44.1972 222.083 50.6964 219.261 56.6973 214.807C57.6513 214.098 58.6254 213.438 60.1255 213.813C59.6155 214.616 59.2986 215.485 58.7051 215.975C57.2541 217.172 55.6685 218.183 54.1516 219.298C53.6313 219.679 53.1628 220.142 52.6729 220.568C51.9706 220.797 51.2395 220.946 50.5687 221.27C46.2959 223.343 41.9582 225.023 37.4026 225.585C35.709 225.793 34.0152 226.028 32.3205 226.249C32.2185 226.213 32.1164 226.174 32.0144 226.138C32.0095 226.178 31.9959 226.252 31.9994 226.251C32.1052 226.26 32.2124 226.262 32.3198 226.268C34.2605 226.741 36.1747 227.308 38.1535 227.642C39.0836 227.797 40.1387 227.503 41.1399 227.413Z" fill="#341D17"/>
<path d="M22.7553 223.75C23.1575 223.885 23.6421 223.919 23.9524 224.172C27.6949 227.213 32.0146 228.739 37.0641 229.204C42.0923 229.665 46.7473 228.075 51.4953 226.286C55.7219 224.695 59.6168 222.418 62.8823 218.944C62.9919 218.827 63.2441 218.848 63.428 218.806C62.8746 219.422 62.3549 220.078 61.7605 220.649C55.4363 226.74 48.1454 230.317 40.1072 230.593C34.447 230.788 29.001 229.671 24.9283 225.643C24.2425 224.968 23.4806 224.378 22.7553 223.75Z" fill="#77615F"/>
<path d="M52.6715 220.567C53.1632 220.142 53.6334 219.677 54.1502 219.297C55.6654 218.184 57.2511 217.173 58.7037 215.974C59.2956 215.486 59.6141 214.615 60.1241 213.812C58.6241 213.437 57.6499 214.096 56.6959 214.806C50.6952 219.264 44.1976 222.083 37.2408 223.308C35.3659 223.638 33.3766 224.126 31.6271 223.847C29.2329 223.463 26.875 222.674 24.7567 221.605C16.9669 217.668 12.6763 207.701 14.7394 197.87C17.1241 186.502 23.5769 177.698 33.4388 171.38C40.7325 166.709 48.3422 164.363 56.2882 165.775C62.2507 166.832 66.7942 170.111 70.1144 174.937C72.2542 178.048 74.0631 181.437 74.8149 185.411C75.3808 188.407 75.5807 191.451 75.0898 194.612C74.9962 195.226 74.734 195.836 74.549 196.446C74.3897 196.488 74.2287 196.531 74.0694 196.572C74.1767 196.216 74.3122 195.862 74.3896 195.502C74.6444 194.327 73.9772 193.571 72.9715 193.871C72.8383 193.777 72.7051 193.683 72.5719 193.589C72.7064 192.79 72.9109 191.985 72.9615 191.192C73.1237 188.55 73.2894 185.907 73.3225 183.278C73.3322 182.541 72.8935 181.856 72.6608 181.149C72.2669 181.727 72.165 182.186 72.0542 182.641C71.7746 183.78 71.4913 184.916 71.2098 186.053C71.1643 185.662 71.0857 185.275 71.0821 184.88C71.0727 183 70.7218 181.266 69.6366 179.852C69.4044 179.548 69.075 179.331 68.7909 179.075C68.5812 179.158 68.3733 179.242 68.1635 179.325C68.3037 179.746 68.5641 180.15 68.563 180.589C68.5465 183.593 68.7269 186.601 68.3668 189.614C67.6465 195.638 65.3939 201.374 62.535 206.934C62.2775 207.436 62.1009 207.975 61.8865 208.495C62.0026 208.565 62.1186 208.632 62.2347 208.703C62.6228 208.279 63.0549 207.889 63.3866 207.428C67.1025 202.299 69.3058 196.659 70.4564 190.67C70.5332 190.27 70.7106 189.877 70.8404 189.481C70.8886 189.725 71.0089 189.972 70.9745 190.216C70.5463 193.432 69.9358 196.655 68.3915 199.651C66.6882 202.956 64.715 206.138 62.8983 209.392C62.6147 209.897 61.6774 210.393 62.4672 211.079C62.5159 211.462 62.5663 211.847 62.6149 212.23C62.706 212.522 62.7953 212.812 62.8847 213.105C61.8741 215.083 60.652 217.015 58.7372 218.076C56.8172 219.136 54.7031 219.753 52.6715 220.567ZM46.5783 191.229C46.3821 192.057 46.1894 192.884 45.9933 193.713C45.093 194.342 44.1892 194.972 43.2889 195.601C39.8987 197.501 36.512 199.401 32.8133 201.473C32.9215 200.281 33.0019 199.389 33.0844 198.502C33.1494 198.536 33.2275 198.554 33.2776 198.603C33.5509 198.888 33.8175 199.178 34.0841 199.468C34.1626 198.967 34.2971 198.463 34.2955 197.974C34.2944 197.757 34.0217 197.58 33.8291 197.328C33.5153 197.665 33.2879 197.91 33.0587 198.154C32.9347 198.003 32.7259 197.873 32.7005 197.694C32.3028 194.759 32.502 191.692 31.4223 188.904C30.8212 187.35 30.9033 185.44 30.6899 183.685C30.6528 183.385 30.6762 183.069 30.6704 182.763C35.7953 182.671 40.8167 182.579 45.8369 182.496C45.9368 182.493 46.0252 182.603 46.116 182.66C45.7245 183.315 44.6926 184.011 45.9331 184.589C46.6479 184.922 47.4743 185.534 48.224 184.618C49.0709 183.581 47.9117 183.277 47.5129 182.714C48.168 182.621 48.8249 182.529 49.7065 182.403C49.1551 183.908 48.7093 185.123 48.2635 186.338C47.2914 185.987 46.5606 186.472 46.44 187.596C46.4144 187.84 46.5245 188.224 46.6891 188.282C46.8682 188.348 47.2612 188.178 47.4213 187.988C47.7515 187.597 47.986 187.123 48.261 186.685C48.3144 186.994 48.3185 187.333 48.4366 187.605C48.5347 187.83 48.738 188.054 48.9561 188.126C49.0597 188.16 49.3913 187.861 49.4841 187.659C50.1239 186.264 50.8081 184.877 51.3196 183.445C51.993 181.562 51.5118 180.772 49.6858 180.508C48.9392 180.401 48.1713 180.355 47.4044 180.361C41.9314 180.411 36.4576 180.48 30.9822 180.552C30.5787 180.558 30.1198 180.514 29.7718 180.702C29.3709 180.92 28.8289 181.355 28.7607 181.722C28.5932 182.627 28.5442 183.58 28.6612 184.454C29.2438 188.81 29.88 193.151 30.5266 197.489C30.7679 199.11 31.0593 200.716 31.3766 202.315C31.5066 202.972 31.7593 203.593 32.6677 203.278C33.7278 203.864 34.7589 203.185 35.6976 202.65C38.7455 200.915 41.6794 198.888 44.7901 197.342C47.757 195.865 48.0545 193.224 48.7937 190.701C48.8692 190.438 48.5991 190.017 48.3627 189.832C48.2528 189.746 47.8389 190.048 47.5611 190.173C47.4312 190.271 47.2996 190.371 47.1697 190.469C46.9708 190.723 46.7737 190.975 46.5783 191.229ZM52.2324 200.167C51.503 201.069 51.9012 201.753 53.294 201.993C53.7421 202.395 54.1954 202.793 54.6418 203.197C55.2617 203.757 55.8707 203.654 56.4705 202.922C57.1415 204.175 56.4197 205.154 55.0611 205.191C52.789 205.251 50.5072 205.357 48.2272 205.598C47.1745 205.708 46.1077 206.18 45.048 206.488C44.1089 206.457 43.1663 206.427 42.2271 206.396C41.6006 206.302 40.9759 206.209 40.3494 206.115C39.1554 206.965 37.991 206.761 36.8299 206.485C37.0845 206.126 37.5142 205.758 37.5464 205.407C37.5773 205.066 37.0951 204.421 37.0197 204.457C36.4357 204.731 35.7182 205.036 35.4064 205.54C35.219 205.844 35.6819 206.521 35.8531 207.031C36.4334 207.245 36.9848 207.609 37.5979 207.648C41.0844 207.875 44.5724 208.096 48.082 208.165C49.5899 208.194 51.1518 207.856 52.691 207.683C52.8099 207.674 52.9289 207.666 53.0459 207.656C53.4497 207.623 53.8535 207.591 54.2592 207.559C54.5467 207.486 54.8359 207.412 55.1234 207.339C55.243 207.31 55.3625 207.279 55.4821 207.25C58.1812 206.641 58.7807 205.935 58.4899 203.324C57.8413 197.505 57.9569 191.467 56.0989 185.981C55.8276 185.176 55.7171 184.226 54.6355 184.256C53.5048 184.289 53.2094 185.263 52.9472 186.138C51.9878 189.334 51.055 192.539 50.1364 195.743C50.0344 196.1 50.0864 196.483 50.0659 196.853C49.4862 197.208 49.1225 197.628 49.4826 198.289C49.8116 198.892 50.264 199.144 51.1163 198.799C50.8722 198.435 50.6701 198.203 50.5465 197.926C50.4346 197.673 50.4062 197.373 50.3421 197.093C50.6586 196.775 50.9754 196.461 51.2919 196.143C51.2741 196.434 51.2046 196.742 51.2508 197.015C51.312 197.371 51.4648 197.701 51.5796 198.041C51.8666 197.761 52.2664 197.522 52.419 197.191C52.8771 196.206 53.29 195.195 53.6126 194.171C53.7387 193.772 53.7194 193.182 53.5006 192.932C53.3565 192.766 52.7398 193.051 52.3352 193.134C52.958 191.357 53.5809 189.579 54.2038 187.802C54.3938 187.808 54.5854 187.813 54.7753 187.819C54.8851 188.46 54.9951 189.105 55.105 189.746C54.7421 189.723 54.3773 189.698 54.0161 189.673C54.1289 190.272 54.2399 190.87 54.3528 191.47C54.6556 191.321 54.9567 191.174 55.2594 191.025C55.4882 192.511 55.7898 193.979 55.9337 195.487C56.1563 197.841 56.2749 200.219 56.4386 202.589C55.5603 201.759 54.7393 200.853 53.7742 200.141C53.4539 199.897 52.7596 200.143 52.2324 200.167ZM24.481 214.029C23.708 214.839 23.9558 215.565 24.5214 216.095C25.7876 217.283 27.4962 217.52 29.2216 217.645C29.4207 217.658 29.6802 217.357 29.9142 217.201C29.7729 216.989 29.6829 216.685 29.4792 216.587C28.9258 216.316 28.3243 216.133 27.742 215.914C28.0024 214.645 25.9988 213.49 24.481 214.029ZM60.0147 174.027C60.5357 174.313 61.0548 174.597 61.574 174.885C61.3147 175.058 61.0571 175.232 60.7622 175.428C61.2557 176.089 61.6528 176.782 62.1926 177.323C65.2258 180.364 65.9653 184.403 65.7014 188.885C65.4889 192.49 64.0741 195.906 62.815 199.342C62.6786 199.713 62.5599 200.087 62.4341 200.459C62.5776 200.548 62.7227 200.634 62.8661 200.723C63.3196 200.144 63.9022 199.614 64.2051 198.974C65.271 196.718 66.3913 194.46 67.2094 192.131C68.1569 189.433 68.2998 186.69 67.8356 184.021C67.6819 183.085 67.528 182.145 67.3743 181.209C66.6846 178.557 65.1073 176.642 62.9921 175.173C62.2493 172.841 60.3029 171.835 58.3399 170.912C57.8194 170.667 57.0454 170.901 56.3878 170.914C55.7964 171.051 55.2034 171.189 54.612 171.326C54.608 171.448 54.604 171.57 54.5982 171.69C56.2853 172.51 57.9708 173.331 59.6625 174.137C59.7416 174.172 59.8957 174.066 60.0147 174.027ZM43.1354 192.045C43.3418 191.671 43.5467 191.3 43.7532 190.927C43.8967 191.049 44.0259 191.266 44.1897 191.275C44.5401 191.296 44.9094 191.209 45.2706 191.167C45.2456 190.832 45.2207 190.498 45.1958 190.163C44.8367 190.245 44.4631 190.284 44.1216 190.43C43.9671 190.495 43.8748 190.772 43.7529 190.954C43.5481 190.672 43.3652 190.369 43.1387 190.107C40.5313 187.085 37.0052 185.364 33.5252 183.585C33.3158 183.479 32.9574 183.639 32.6662 183.675C32.7412 183.96 32.7256 184.358 32.9094 184.512C33.8541 185.302 34.8499 186.03 35.8276 186.782C36.0089 187.283 36.0498 187.948 36.3999 188.256C38.2648 189.905 40.1945 191.483 42.1387 193.039C42.4818 193.314 42.9959 193.374 43.4328 193.534C43.5301 193.417 43.6276 193.303 43.7249 193.187C43.529 192.806 43.3331 192.426 43.1354 192.045ZM20.86 208.307C19.8815 203.672 20.4566 198.969 22.045 194.206C22.5019 192.837 22.8415 191.44 23.3438 189.674C22.7663 190.102 22.512 190.238 22.3261 190.438C20.9425 191.911 19.8555 193.545 19.3079 195.483C17.619 201.45 17.46 207.105 20.4326 212.096C20.6951 212.539 21.2467 212.774 21.6646 213.104C21.6411 212.534 21.616 211.966 21.5925 211.396C21.7107 211.079 21.9996 210.672 21.9197 210.457C21.6338 209.708 21.2212 209.02 20.86 208.307ZM36.6828 172.948C36.7472 173.134 36.8132 173.317 36.8757 173.502C39.3362 172.6 41.7772 171.596 44.2588 170.826C46.749 170.053 49.2782 169.517 52.0149 168.822C51.1013 167.596 49.8188 167.743 48.6707 167.942C44.4051 168.672 40.198 169.71 36.6828 172.948ZM38.3395 204.153C38.4082 204.321 38.4769 204.49 38.5422 204.66C39.2429 204.501 39.9876 204.474 40.6345 204.161C42.6025 203.21 44.5453 202.181 46.4644 201.103C46.8547 200.884 47.0931 200.319 47.4031 199.911C46.9286 199.902 46.4011 199.723 45.9899 199.912C43.8497 200.895 41.7324 201.943 39.6296 203.033C39.1531 203.283 38.7686 203.774 38.3395 204.153ZM42.8477 217.987C42.8137 218.14 42.7779 218.291 42.744 218.444C43.3961 218.589 44.0461 218.925 44.7019 218.845C46.9626 218.573 49.0262 217.504 50.9549 216.081C51.1728 215.92 51.25 215.527 51.3928 215.242C51.1093 215.193 50.8036 215.025 50.5466 215.112C48.2705 215.883 46.0018 216.694 43.7351 217.51C43.4267 217.621 43.1427 217.825 42.8477 217.987ZM35.3139 174.859C33.5717 174.321 30.338 176.554 30.2161 178.114C30.1977 178.361 30.3361 178.716 30.5196 178.799C30.7068 178.884 31.0945 178.781 31.2929 178.618C32.1724 177.895 33.0254 177.137 33.8671 176.364C34.3306 175.938 34.7455 175.457 35.3139 174.859ZM63.9155 199.862C63.2198 201.034 62.4719 202.182 61.8448 203.387C61.501 204.049 60.613 205.006 61.5818 205.46C62.4913 205.887 62.8698 204.694 63.2492 204.043C63.9925 202.776 64.7701 201.462 63.9155 199.862ZM65.3207 171.348C65.5569 172.972 66.5844 174.03 67.4773 175.165C67.5302 175.234 68.1921 174.973 68.2694 174.776C68.835 173.34 66.9417 171.063 65.3207 171.348ZM46.348 204.208C45.5121 203.252 44.4626 203.521 43.4818 203.63C43.288 203.651 42.9406 204.016 42.9247 204.21C42.9078 204.42 43.1538 204.752 43.3561 204.791C44.3138 204.972 45.295 205.066 46.348 204.208ZM32.4622 217.279C31.6041 217.451 30.9546 217.582 30.3048 217.71C30.3582 217.986 30.3748 218.493 30.4714 218.494C31.094 218.514 31.736 218.438 32.3713 218.336C32.3993 218.334 32.4181 217.8 32.4622 217.279ZM37.8724 184.181C37.7556 184.36 37.6369 184.538 37.5201 184.718C38.013 185.104 38.4799 185.527 39.0133 185.849C39.162 185.939 39.5051 185.723 39.7608 185.646C39.7225 185.423 39.76 185.073 39.6296 184.998C39.0702 184.682 38.4624 184.447 37.8724 184.181ZM25.2848 185.464C25.0724 185.366 24.8583 185.269 24.6477 185.172C24.3747 185.68 24.0982 186.188 23.8251 186.695C24.0384 186.777 24.4154 186.964 24.4398 186.929C24.7499 186.457 25.011 185.958 25.2848 185.464Z" fill="#F2B11E"/>
<path d="M62.6232 212.227C62.5746 211.843 62.5241 211.459 62.4755 211.075C62.6358 210.953 62.796 210.832 62.9547 210.712C63.4567 210.875 63.9587 211.038 64.4624 211.198C64.9928 211.529 65.4392 212.457 66.1915 211.228C68.556 208.237 70.3415 204.959 71.8614 201.507C72.6393 199.739 72.2953 198.43 71.5069 197.116C71.7103 196.52 71.9153 195.922 72.1186 195.326C72.3815 195.515 72.6463 195.705 72.9092 195.894C72.2086 196.45 72.4166 197.022 72.7333 197.527C72.8715 197.747 73.1971 197.829 73.4367 197.976C73.6471 197.511 73.8573 197.043 74.0676 196.578C74.2269 196.536 74.3879 196.493 74.5472 196.452C74.1899 197.746 73.9631 199.086 73.4506 200.333C71.7292 204.515 69.4845 208.463 66.6756 212.07C62.1533 217.879 56.6213 222.206 49.9699 224.743C47.6009 225.648 45.2135 226.471 43.1691 227.21C42.7758 226.52 42.6398 225.882 42.2974 225.783C41.8553 225.657 41.2483 225.961 40.7122 226.079C40.8522 226.531 40.9958 226.982 41.1358 227.433L41.1348 227.416C40.1355 227.507 39.0787 227.804 38.1485 227.645C36.1696 227.311 34.2537 226.743 32.3148 226.271L32.3155 226.252C34.0083 226.029 35.704 225.796 37.3976 225.588C41.9514 225.025 46.2909 223.346 50.5637 221.273C51.2345 220.949 51.964 220.802 52.6679 220.571C54.6995 219.757 56.817 219.139 58.7439 218.074C60.6604 217.015 61.8825 215.083 62.8913 213.104C63.2749 213.218 63.6587 213.335 64.0422 213.449C64.1096 213.265 64.2835 212.971 64.2279 212.917C63.9216 212.606 63.5797 212.319 63.2027 212.098C63.0845 212.022 62.8224 212.176 62.6232 212.227ZM43.3538 224.822C43.5076 225.4 43.5172 225.874 43.6627 225.904C44.0816 225.988 44.5555 225.888 45.0087 225.86C44.9938 225.581 45.0702 225.106 44.9447 225.058C44.5556 224.906 44.089 224.913 43.3538 224.822Z" fill="#845121"/>
<path d="M32.3195 226.267C32.212 226.265 32.1044 226.262 31.9981 226.25C31.9947 226.251 32.0065 226.175 32.0132 226.136C32.1155 226.172 32.2179 226.212 32.3202 226.248C32.3202 226.248 32.3195 226.267 32.3195 226.267Z" fill="#845121"/>
<path d="M41.1415 227.427C41.1759 227.406 41.212 227.383 41.2464 227.362C41.2118 227.38 41.177 227.393 41.1424 227.411C41.1388 227.412 41.1415 227.427 41.1415 227.427Z" fill="#845121"/>
<path d="M32.6653 203.277C31.7569 203.592 31.5042 202.971 31.3743 202.314C31.0571 200.719 30.7655 199.109 30.5242 197.488C29.8776 193.149 29.2414 188.809 28.6588 184.453C28.5418 183.579 28.5943 182.625 28.7583 181.721C28.8265 181.354 29.3666 180.917 29.7694 180.701C30.1175 180.513 30.5763 180.557 30.9798 180.551C36.4552 180.479 41.9308 180.411 47.4021 180.36C48.1706 180.352 48.9385 180.398 49.6835 180.507C51.5094 180.771 51.9906 181.561 51.3172 183.444C50.8057 184.876 50.1197 186.262 49.4817 187.658C49.3906 187.858 49.0573 188.159 48.9537 188.125C48.734 188.055 48.5323 187.829 48.4342 187.604C48.3161 187.332 48.312 186.993 48.2586 186.684L48.2593 186.698C48.2564 186.577 48.2516 186.455 48.2503 186.332L48.2627 186.335C48.7085 185.12 49.1544 183.905 49.7058 182.4C48.8242 182.526 48.1673 182.618 47.5121 182.711L47.5248 182.717C47.3445 182.695 47.1624 182.671 46.9821 182.648L46.9944 182.647C46.874 182.662 46.7518 182.674 46.6314 182.688L46.6594 182.687C46.4745 182.677 46.2915 182.67 46.1067 182.66L46.1206 182.658C46.0263 182.601 45.9397 182.492 45.8414 182.493C40.8213 182.576 35.8016 182.666 30.6749 182.76C30.6808 183.066 30.6574 183.383 30.6945 183.683C30.9095 185.436 30.8257 187.347 31.4268 188.901C32.5066 191.69 32.3074 194.757 32.7051 197.692C32.7305 197.871 32.9393 198 33.0632 198.152L33.0823 198.146C33.0218 198.197 32.9613 198.248 32.9027 198.3C32.9696 198.369 33.0347 198.437 33.1032 198.504L33.0873 198.502C33.0067 199.39 32.9261 200.279 32.818 201.474C36.515 199.401 39.9035 197.503 43.2937 195.602C44.3199 196.145 44.3541 196.751 43.208 197.577C42.0095 198.44 40.7196 199.171 39.4273 199.855C37.1855 201.039 34.9182 202.139 32.6653 203.277Z" fill="#391F10"/>
<path d="M55.1276 207.339C54.8401 207.412 54.5509 207.487 54.2634 207.56C53.8596 207.593 53.4558 207.625 53.0502 207.657C52.9313 207.665 52.8123 207.674 52.6953 207.684C52.0737 207.617 51.4581 207.497 50.8294 207.493C48.8095 207.476 46.7757 207.526 45.0486 206.486C46.1083 206.178 47.1734 205.708 48.2278 205.595C50.5096 205.357 52.7914 205.25 55.0617 205.189C56.4203 205.152 57.1421 204.173 56.4711 202.92L56.47 202.932C56.4617 202.811 56.4535 202.689 56.4452 202.568L56.446 202.582C56.2841 200.214 56.1672 197.834 55.9411 195.48C55.799 193.974 55.4974 192.505 55.267 191.022C55.2161 190.596 55.165 190.166 55.1123 189.739C55.0025 189.098 54.8925 188.453 54.7827 187.812C54.5927 187.806 54.4011 187.801 54.2112 187.795C53.5883 189.572 52.9654 191.35 52.3442 193.125C51.9959 194.129 51.6476 195.133 51.2958 196.137C50.9792 196.455 50.6625 196.769 50.3459 197.086C50.2539 197.008 50.1619 196.929 50.0681 196.849C50.0887 196.479 50.0366 196.096 50.1386 195.739C51.0573 192.534 51.99 189.33 52.9495 186.134C53.2116 185.259 53.5087 184.283 54.6377 184.252C55.7176 184.224 55.8264 185.172 56.1012 185.977C57.9592 191.463 57.8451 197.498 58.4922 203.32C58.7831 205.935 58.1834 206.637 55.4843 207.246C55.3685 207.281 55.2489 207.309 55.1276 207.339Z" fill="#381F11"/>
<path d="M70.845 189.478C70.7152 189.874 70.5378 190.267 70.461 190.667C69.3104 196.656 67.1071 202.296 63.3912 207.425C63.0577 207.885 62.6239 208.276 62.2393 208.7C62.1232 208.629 62.0072 208.562 61.8911 208.492C62.1054 207.969 62.2821 207.433 62.5396 206.931C65.3983 201.368 67.6511 195.635 68.3714 189.611C68.7315 186.598 68.5511 183.59 68.5676 180.586C68.5705 180.148 68.3083 179.743 68.1681 179.322C68.3779 179.239 68.5858 179.155 68.7955 179.072C69.0796 179.328 69.4108 179.546 69.6412 179.849C70.7246 181.262 71.0755 182.996 71.0867 184.877C71.0886 185.274 71.1708 185.66 71.2144 186.05L71.1923 186.029C71.1952 186.15 71.2 186.272 71.203 186.393L71.2024 186.382C71.2019 186.504 71.2016 186.629 71.201 186.75L71.2019 186.734C71.1631 186.927 71.1224 187.119 71.0836 187.312L71.0862 187.294C71.0875 187.417 71.0888 187.539 71.0917 187.66L71.0928 187.648C71.0515 187.957 71.0117 188.265 70.9722 188.576L70.9733 188.563C70.9711 188.686 70.9706 188.808 70.9684 188.932L70.9693 188.915C70.9287 189.107 70.888 189.299 70.8439 189.491L70.845 189.478Z" fill="#FFFBF3"/>
<path d="M72.1203 195.324C71.9169 195.92 71.712 196.518 71.5104 197.115C69.526 202.153 66.552 206.614 62.9582 210.711C62.7979 210.833 62.6377 210.954 62.479 211.074C61.6857 210.389 62.6265 209.893 62.9101 209.387C64.7268 206.133 66.6982 202.95 68.4034 199.646C69.9476 196.65 70.5563 193.426 70.9863 190.211C71.0188 189.966 70.9004 189.721 70.8522 189.476L70.8496 189.495C70.8903 189.303 70.931 189.111 70.9751 188.919L70.9742 188.935C70.9763 188.812 70.9769 188.69 70.979 188.567L70.978 188.58C71.0193 188.27 71.059 187.962 71.0986 187.651L71.0975 187.664C71.0962 187.541 71.0949 187.418 71.0919 187.298L71.0894 187.316C71.1282 187.123 71.1688 186.931 71.2077 186.738L71.2068 186.754C71.2073 186.633 71.2076 186.508 71.2081 186.386L71.2087 186.397C71.2058 186.276 71.201 186.154 71.198 186.033L71.2202 186.054C71.5016 184.917 71.7866 183.779 72.0645 182.642C72.1754 182.187 72.2791 181.73 72.6711 181.15C72.9022 181.859 73.3425 182.542 73.3329 183.279C73.2998 185.907 73.1341 188.551 72.9718 191.193C72.9231 191.988 72.7168 192.791 72.5822 193.59C72.4218 194.168 72.2703 194.747 72.1203 195.324Z" fill="#361E12"/>
<path d="M62.9939 175.171C65.1108 176.638 66.6864 178.555 67.3761 181.207C66.7745 181.021 66.4155 181.234 66.4862 181.933C66.5521 182.573 66.6227 183.235 66.8564 183.797C66.9411 184.002 67.4968 183.953 67.8374 184.02C68.3014 186.685 68.1569 189.429 67.2112 192.129C66.3931 194.458 65.2745 196.714 64.2069 198.973C63.904 199.612 63.3214 200.142 62.8679 200.721C62.7245 200.632 62.5794 200.546 62.4359 200.457C62.5617 200.085 62.6804 199.711 62.8168 199.34C64.0741 195.903 65.4907 192.488 65.7032 188.883C65.9671 184.401 65.2293 180.36 62.1944 177.321C61.6546 176.78 61.2541 176.087 60.7639 175.426C61.0571 175.229 61.3165 175.056 61.5758 174.883C62.0479 174.979 62.52 175.074 62.9939 175.171Z" fill="#8B5723"/>
<path d="M21.589 211.4C21.6125 211.97 21.6377 212.538 21.6612 213.109C21.2432 212.778 20.6933 212.541 20.4292 212.1C17.4565 207.109 17.6155 201.455 19.3045 195.487C19.8537 193.547 20.939 191.915 22.3226 190.442C22.5103 190.243 22.7628 190.106 23.3403 189.678C22.8396 191.442 22.5001 192.839 22.0415 194.21C20.4513 198.971 19.878 203.676 20.8582 208.309C20.2209 209.49 20.4527 210.473 21.589 211.4Z" fill="#FDFAF2"/>
<path d="M36.6819 172.947C40.1989 169.711 44.4041 168.672 48.6698 167.941C49.8162 167.745 51.1004 167.595 52.014 168.821C49.2792 169.518 46.7499 170.054 44.2579 170.826C41.7763 171.595 39.3335 172.598 36.8748 173.501C36.8104 173.315 36.7444 173.131 36.6819 172.947Z" fill="#FFF9EF"/>
<path d="M32.666 203.276C34.9208 202.14 37.1879 201.036 39.4227 199.854C40.715 199.169 42.0049 198.438 43.2034 197.575C44.3511 196.747 44.3172 196.145 43.2891 195.601C44.1894 194.971 45.0913 194.34 45.9935 193.712C46.3742 193.709 46.8938 193.872 47.1131 193.671C47.754 193.082 47.9474 191.023 47.5595 190.171C47.8354 190.045 48.2493 189.743 48.3611 189.83C48.5975 190.015 48.8692 190.434 48.7921 190.699C48.0529 193.222 47.7554 195.863 44.7884 197.34C41.6778 198.886 38.7438 200.913 35.6959 202.648C34.7554 203.182 33.7262 203.862 32.666 203.276Z" fill="#895622"/>
<path d="M43.7538 190.928C43.5473 191.301 43.3424 191.673 43.1341 192.044C41.2923 190.467 39.4819 188.854 37.5908 187.34C37.1415 186.982 36.424 186.958 35.8299 186.781C34.8505 186.032 33.8547 185.303 32.9116 184.511C32.7278 184.357 32.7434 183.959 32.6684 183.674C32.9597 183.638 33.3181 183.478 33.5274 183.584C37.0075 185.363 40.5336 187.084 43.141 190.106C43.3674 190.368 43.552 190.669 43.7551 190.953L43.7538 190.928Z" fill="#F5F2EE"/>
<path d="M45.0497 206.486C46.7767 207.526 48.8105 207.476 50.8304 207.492C51.461 207.498 52.0747 207.616 52.6963 207.683C51.1588 207.854 49.597 208.196 48.0873 208.166C44.5776 208.097 41.0879 207.874 37.6032 207.649C36.9901 207.609 36.4387 207.245 35.8584 207.031C36.184 206.849 36.5079 206.67 36.8335 206.488C37.9947 206.763 39.1572 206.966 40.353 206.117C39.8926 206.732 39.926 207.225 40.6902 207.136C41.2014 207.076 41.7161 206.656 42.2289 206.397C43.1697 206.426 44.1089 206.457 45.0497 206.486Z" fill="#8A5723"/>
<path d="M35.831 186.781C36.4251 186.958 37.1443 186.98 37.5919 187.34C39.483 188.854 41.2951 190.465 43.1352 192.044C43.3311 192.424 43.5271 192.805 43.7213 193.187C43.624 193.304 43.5265 193.417 43.4292 193.534C42.9939 193.373 42.4798 193.312 42.1351 193.039C40.1925 191.481 38.2647 189.905 36.3963 188.256C36.0532 187.947 36.0123 187.282 35.831 186.781Z" fill="#372119"/>
<path d="M38.3395 204.152C38.7687 203.774 39.1548 203.28 39.6331 203.032C41.7342 201.944 43.8532 200.894 45.9934 199.911C46.4046 199.722 46.9321 199.901 47.4066 199.91C47.0982 200.316 46.8564 200.881 46.4679 201.102C44.5488 202.18 42.606 203.209 40.638 204.16C39.9911 204.473 39.2464 204.5 38.5457 204.659C38.4753 204.492 38.4066 204.323 38.3395 204.152Z" fill="#3B2111"/>
<path d="M42.8469 217.986C43.142 217.825 43.426 217.62 43.7308 217.51C45.9975 216.694 48.2662 215.883 50.5424 215.112C50.7993 215.025 51.105 215.194 51.3885 215.243C51.2458 215.527 51.172 215.92 50.9507 216.082C49.0219 217.504 46.9584 218.574 44.6977 218.846C44.0418 218.925 43.3918 218.589 42.7397 218.444C42.7772 218.291 42.8129 218.139 42.8469 217.986Z" fill="#FFF9EF"/>
<path d="M62.9937 175.17C62.5216 175.075 62.0495 174.979 61.5756 174.883C61.0546 174.597 60.5356 174.313 60.0163 174.025C59.0929 173.37 58.1448 172.746 57.2627 172.042C56.8997 171.755 56.6765 171.292 56.3909 170.91C57.0486 170.896 57.8244 170.664 58.3431 170.907C60.3045 171.833 62.2509 172.838 62.9937 175.17Z" fill="#351C12"/>
<path d="M27.7423 215.914C28.3246 216.133 28.926 216.316 29.4795 216.587C29.6832 216.685 29.7732 216.989 29.9144 217.201C29.6823 217.358 29.421 217.658 29.2219 217.645C27.4948 217.522 25.7862 217.285 24.5217 216.095C23.956 215.565 23.7083 214.839 24.4813 214.029C25.5682 214.656 26.6554 215.287 27.7423 215.914Z" fill="#391F11"/>
<path d="M35.3141 174.86C34.7439 175.456 34.3308 175.938 33.869 176.362C33.0291 177.137 32.1744 177.897 31.2948 178.617C31.0964 178.78 30.707 178.885 30.5215 178.797C30.3396 178.712 30.1977 178.358 30.2179 178.113C30.3382 176.555 33.5719 174.322 35.3141 174.86Z" fill="#8E5A24"/>
<path d="M63.9157 199.861C64.7704 201.461 63.9909 202.774 63.253 204.042C62.8735 204.693 62.495 205.886 61.5855 205.459C60.6167 205.005 61.5047 204.048 61.8485 203.386C62.4722 202.181 63.2201 201.033 63.9157 199.861Z" fill="#FFF9EF"/>
<path d="M51.3006 196.139C51.6489 195.136 51.9988 194.13 52.3489 193.127C52.7535 193.045 53.3705 192.762 53.5127 192.928C53.7315 193.177 53.7492 193.77 53.6247 194.167C53.3021 195.19 52.8892 196.201 52.4311 197.187C52.2769 197.52 51.8769 197.755 51.5917 198.036C51.477 197.696 51.3241 197.366 51.2629 197.01C51.2116 196.74 51.2811 196.432 51.3006 196.139Z" fill="#FEF6E7"/>
<path d="M65.321 171.347C66.942 171.062 68.837 173.338 68.2678 174.774C68.1906 174.971 67.5286 175.232 67.4758 175.163C66.5865 174.031 65.5572 172.971 65.321 171.347Z" fill="#FEF8EB"/>
<path d="M56.4714 202.923C55.8699 203.657 55.2626 203.757 54.6427 203.198C54.1963 202.794 53.7449 202.397 53.2949 201.994C54.2134 200.492 52.8781 200.571 52.2333 200.168C52.7605 200.144 53.453 199.897 53.7819 200.137C54.7469 200.849 55.5679 201.755 56.4463 202.585L56.4455 202.571C56.4538 202.692 56.4621 202.814 56.4703 202.935C56.4703 202.935 56.4714 202.923 56.4714 202.923Z" fill="#FAF5EB"/>
<path d="M47.5141 182.712C47.9148 183.276 49.074 183.581 48.2253 184.616C47.4755 185.533 46.6492 184.92 45.9344 184.587C44.6938 184.009 45.7276 183.315 46.1173 182.658L46.1034 182.661C46.2882 182.67 46.4712 182.678 46.6561 182.687L46.6281 182.689C46.7484 182.675 46.8707 182.662 46.991 182.648L46.9788 182.649C47.1591 182.671 47.3412 182.695 47.5215 182.718L47.5141 182.712Z" fill="#FEF8EB"/>
<path d="M74.0705 196.573C73.8601 197.038 73.65 197.507 73.4396 197.972C73.1984 197.827 72.8727 197.745 72.7361 197.523C72.4194 197.018 72.2115 196.445 72.9121 195.89C73.0335 195.667 73.2679 195.42 73.2556 195.224C73.2255 194.761 73.0773 194.32 72.976 193.871C73.9818 193.572 74.6471 194.326 74.3941 195.503C74.3152 195.864 74.1796 196.218 74.0705 196.573Z" fill="#351C12"/>
<path d="M56.3889 170.912C56.6745 171.294 56.8976 171.757 57.2606 172.044C58.1463 172.748 59.0943 173.371 60.0142 174.027C59.8952 174.066 59.7411 174.172 59.6655 174.136C57.972 173.329 56.2865 172.508 54.6012 171.69C54.6052 171.567 54.6092 171.445 54.615 171.325C55.2062 171.185 55.7975 171.048 56.3889 170.912Z" fill="#895622"/>
<path d="M47.5591 190.172C47.947 191.024 47.7552 193.081 47.1127 193.672C46.8934 193.873 46.3757 193.711 45.9931 193.713C46.1892 192.885 46.3819 192.057 46.5781 191.229C46.7734 190.975 46.9723 190.721 47.1676 190.468C47.2976 190.37 47.4275 190.272 47.5591 190.172Z" fill="#361E12"/>
<path d="M36.832 206.486C36.5064 206.668 36.1825 206.848 35.8569 207.03C35.6857 206.52 35.2212 205.845 35.4102 205.539C35.722 205.035 36.4396 204.73 37.0235 204.456C37.0989 204.42 37.5811 205.065 37.5502 205.406C37.5182 205.76 37.0885 206.128 36.832 206.486Z" fill="#391F10"/>
<path d="M46.3475 204.208C45.291 205.067 44.3133 204.973 43.3574 204.793C43.1535 204.756 42.9073 204.421 42.926 204.212C42.942 204.018 43.2877 203.655 43.4831 203.632C44.4621 203.522 45.5151 203.252 46.3475 204.208Z" fill="#FEF6E7"/>
<path d="M67.8367 184.019C67.4961 183.952 66.9388 184.003 66.8557 183.796C66.6236 183.232 66.5531 182.571 66.4855 181.932C66.4129 181.232 66.7738 181.02 67.3754 181.207C67.5291 182.143 67.683 183.083 67.8367 184.019Z" fill="#381F11"/>
<path d="M27.7421 215.914C26.6533 215.285 25.5663 214.658 24.4775 214.029C25.9989 213.49 28.0024 214.645 27.7421 215.914Z" fill="#8A5723"/>
<path d="M32.4628 217.279C32.4171 217.802 32.3999 218.334 32.3684 218.336C31.7347 218.436 31.0946 218.514 30.4686 218.494C30.3736 218.491 30.357 217.984 30.3019 217.711C30.9533 217.581 31.6047 217.451 32.4628 217.279Z" fill="#FEF6E7"/>
<path d="M21.589 211.399C20.4526 210.473 20.2209 209.489 20.858 208.305C21.221 209.019 21.6317 209.706 21.9143 210.459C21.9979 210.677 21.7072 211.082 21.589 211.399Z" fill="#463026"/>
<path d="M48.2607 186.685C47.9857 187.123 47.7512 187.596 47.421 187.988C47.2609 188.177 46.8696 188.345 46.6889 188.282C46.5242 188.224 46.4123 187.838 46.4397 187.596C46.5603 186.471 47.2911 185.987 48.2632 186.338L48.2507 186.335C48.2537 186.456 48.2585 186.578 48.2598 186.701L48.2607 186.685Z" fill="#FEF4E1"/>
<path d="M55.1147 189.74C55.1657 190.17 55.2184 190.597 55.2693 191.023C54.9664 191.168 54.6653 191.315 54.3643 191.465C54.2515 190.866 54.1404 190.268 54.0276 189.668C54.387 189.692 54.7518 189.717 55.1147 189.74Z" fill="#FEF4E1"/>
<path d="M37.8722 184.18C38.4622 184.446 39.07 184.681 39.6278 184.999C39.7582 185.074 39.7189 185.422 39.759 185.647C39.505 185.722 39.1602 185.94 39.0115 185.85C38.478 185.528 38.0112 185.105 37.5183 184.719C37.6368 184.537 37.7554 184.359 37.8722 184.18Z" fill="#FEF6E7"/>
<path d="M50.0745 196.853C50.1665 196.931 50.2584 197.01 50.3523 197.09C50.4165 197.371 50.4448 197.671 50.5567 197.924C50.6803 198.2 50.8824 198.433 51.1266 198.797C50.2743 199.142 49.8202 198.891 49.4929 198.287C49.131 197.628 49.4932 197.21 50.0745 196.853Z" fill="#543C29"/>
<path d="M52.2323 200.166C52.8773 200.573 54.2126 200.494 53.2939 201.992C51.9029 201.753 51.5028 201.068 52.2323 200.166Z" fill="#463026"/>
<path d="M42.227 206.396C41.7142 206.655 41.1978 207.077 40.6883 207.135C39.9241 207.224 39.8907 206.731 40.3511 206.116C40.9758 206.209 41.6023 206.303 42.227 206.396Z" fill="#3B2111"/>
<path d="M33.0596 198.151C33.287 197.906 33.5163 197.662 33.83 197.325C34.0208 197.576 34.2938 197.756 34.2965 197.972C34.2981 198.46 34.1638 198.968 34.085 199.465C33.8168 199.177 33.5519 198.885 33.2786 198.6C33.2302 198.549 33.152 198.532 33.0853 198.5L33.1013 198.502C33.0948 198.382 33.0884 198.262 33.0821 198.145L33.0596 198.151Z" fill="#FEF4E1"/>
<path d="M43.7563 190.953C43.8765 190.773 43.9705 190.494 44.125 190.429C44.4665 190.283 44.8385 190.246 45.1992 190.163C45.2241 190.497 45.249 190.831 45.274 191.166C44.9128 191.208 44.5435 191.295 44.1912 191.273C44.0274 191.263 43.8982 191.047 43.7547 190.925C43.7549 190.928 43.7563 190.953 43.7563 190.953Z" fill="#FEF2DA"/>
<path d="M25.285 185.464C25.0112 185.957 24.7484 186.459 24.4365 186.929C24.4121 186.964 24.0351 186.778 23.8218 186.695C24.0949 186.188 24.3714 185.68 24.6444 185.172C24.862 185.268 25.0726 185.365 25.285 185.464Z" fill="#FEF8EB"/>
<path d="M62.6232 212.227C62.8223 212.176 63.0845 212.022 63.2078 212.095C63.5847 212.316 63.9249 212.602 64.233 212.915C64.2869 212.97 64.1147 213.262 64.0473 213.446C63.6637 213.332 63.28 213.215 62.8964 213.101C62.8019 212.81 62.7124 212.517 62.6232 212.227Z" fill="#351C12"/>
<path d="M72.975 193.874C73.0746 194.324 73.2245 194.763 73.2546 195.227C73.2668 195.423 73.0325 195.669 72.911 195.893C72.6481 195.704 72.3833 195.513 72.1204 195.325C72.272 194.746 72.4254 194.168 72.577 193.59C72.7086 193.686 72.8418 193.78 72.975 193.874Z" fill="#DD9F25"/>
<path d="M53.0527 207.658C53.4565 207.626 53.8603 207.593 54.266 207.562C53.8603 207.593 53.4565 207.626 53.0527 207.658Z" fill="#8A5723"/>
<path d="M47.1674 190.468C46.9721 190.721 46.7732 190.975 46.5779 191.228C46.7732 190.975 46.9704 190.723 47.1674 190.468Z" fill="#895622"/>
<path d="M55.1279 207.339C55.2479 207.311 55.3677 207.279 55.4877 207.25C55.3695 207.28 55.2496 207.308 55.1279 207.339Z" fill="#8A5723"/>
<path d="M62.9537 210.712C66.5457 206.614 69.5197 202.153 71.5059 197.116C72.2927 198.433 72.6383 199.739 71.8604 201.507C70.3405 204.959 68.555 208.237 66.1906 211.228C65.3977 210.093 65.3011 210.092 64.4615 211.198C63.9578 211.038 63.4557 210.875 62.9537 210.712Z" fill="#EDAC1F"/>
<path d="M43.3538 224.822C44.089 224.913 44.5556 224.906 44.9466 225.059C45.0703 225.109 44.9956 225.582 45.0105 225.861C44.5573 225.889 44.085 225.987 43.6646 225.905C43.5172 225.874 43.5058 225.398 43.3538 224.822Z" fill="#381F11"/>
<path d="M64.463 211.198C65.3026 210.091 65.3992 210.092 66.1921 211.227C65.4381 212.459 64.9935 211.532 64.463 211.198Z" fill="#3B2111"/>
<path d="M46.6581 182.688C46.4733 182.679 46.2903 182.671 46.1055 182.662C46.2885 182.67 46.4733 182.679 46.6581 182.688Z" fill="#F2B11E"/>
<path d="M47.5241 182.718C47.3439 182.696 47.1617 182.672 46.9814 182.649C47.1652 182.671 47.3455 182.693 47.5241 182.718Z" fill="#F2B11E"/>
<path d="M46.9959 182.647C46.8752 182.661 46.7526 182.674 46.6318 182.688C46.7509 182.676 46.8752 182.661 46.9959 182.647Z" fill="#F2B11E"/>
<path d="M33.082 198.147C33.0885 198.267 33.0931 198.386 33.1012 198.505C33.0341 198.435 32.9688 198.367 32.9 198.3C32.9607 198.249 33.0213 198.198 33.082 198.147Z" fill="#F2B11E"/>
<path d="M48.26 186.698C48.257 186.576 48.2522 186.454 48.2509 186.331C48.2557 186.453 48.257 186.576 48.26 186.698Z" fill="#F2B11E"/>
<path d="M56.4713 202.937C56.463 202.815 56.4547 202.693 56.4464 202.571C56.4547 202.693 56.463 202.815 56.4713 202.937Z" fill="#F2B11E"/>
<path d="M71.089 187.652C71.0477 187.961 71.0079 188.269 70.9684 188.58C71.0081 188.272 71.0495 187.963 71.089 187.652Z" fill="#F2B11E"/>
<path d="M70.9647 188.922C70.924 189.113 70.8834 189.305 70.8393 189.497C70.8834 189.305 70.924 189.113 70.9647 188.922Z" fill="#F2B11E"/>
<path d="M71.2023 186.738C71.1635 186.931 71.1228 187.123 71.084 187.316C71.1212 187.125 71.16 186.932 71.2023 186.738Z" fill="#F2B11E"/>
<path d="M71.1916 186.03C71.1946 186.152 71.1994 186.274 71.2023 186.395C71.1977 186.276 71.1929 186.154 71.1916 186.03Z" fill="#F2B11E"/>
<path d="M71.2021 186.383C71.2016 186.505 71.2013 186.63 71.2007 186.752C71.2013 186.63 71.2018 186.509 71.2021 186.383Z" fill="#F2B11E"/>
<path d="M71.0836 187.297C71.0849 187.42 71.0862 187.544 71.0892 187.665C71.0881 187.545 71.0849 187.42 71.0836 187.297Z" fill="#F2B11E"/>
<path d="M70.9694 188.569C70.9672 188.693 70.9667 188.814 70.9645 188.938C70.9667 188.814 70.9689 188.69 70.9694 188.569Z" fill="#F2B11E"/>
</g>
<defs>
<filter id="filter0_d_9_5896" x="202.838" y="12.8701" width="75.6885" height="75.7441" filterUnits="userSpaceOnUse" color-interpolation-filters="sRGB">
<feFlood flood-opacity="0" result="BackgroundImageFix"/>
<feColorMatrix in="SourceAlpha" type="matrix" values="0 0 0 0 0 0 0 0 0 0 0 0 0 0 0 0 0 0 127 0" result="hardAlpha"/>
<feOffset dx="6" dy="4"/>
<feGaussianBlur stdDeviation="2"/>
<feComposite in2="hardAlpha" operator="out"/>
<feColorMatrix type="matrix" values="0 0 0 0 0 0 0 0 0 0 0 0 0 0 0 0 0 0 0.25 0"/>
<feBlend mode="normal" in2="BackgroundImageFix" result="effect1_dropShadow_9_5896"/>
<feBlend mode="normal" in="SourceGraphic" in2="effect1_dropShadow_9_5896" result="shape"/>
</filter>
<filter id="filter1_d_9_5896" x="11.8379" y="162.87" width="75.6885" height="75.7441" filterUnits="userSpaceOnUse" color-interpolation-filters="sRGB">
<feFlood flood-opacity="0" result="BackgroundImageFix"/>
<feColorMatrix in="SourceAlpha" type="matrix" values="0 0 0 0 0 0 0 0 0 0 0 0 0 0 0 0 0 0 127 0" result="hardAlpha"/>
<feOffset dx="6" dy="4"/>
<feGaussianBlur stdDeviation="2"/>
<feComposite in2="hardAlpha" operator="out"/>
<feColorMatrix type="matrix" values="0 0 0 0 0 0 0 0 0 0 0 0 0 0 0 0 0 0 0.25 0"/>
<feBlend mode="normal" in2="BackgroundImageFix" result="effect1_dropShadow_9_5896"/>
<feBlend mode="normal" in="SourceGraphic" in2="effect1_dropShadow_9_5896" result="shape"/>
</filter>
</defs>
</svg>
