<svg width="50" height="50" viewBox="0 0 50 50" fill="none" xmlns="http://www.w3.org/2000/svg">
<circle cx="25" cy="25" r="24.5" fill="#CE0031" stroke="#410F08"/>
<path d="M12.6091 20.436H13.5331V22.788C13.5331 22.964 13.5091 23.132 13.4611 23.292C13.4131 23.444 13.3371 23.58 13.2331 23.7C13.1371 23.812 13.0051 23.904 12.8371 23.976C12.6771 24.04 12.4811 24.072 12.2491 24.072H11.5531C11.3211 24.072 11.1211 24.04 10.9531 23.976C10.7931 23.904 10.6611 23.812 10.5571 23.7C10.4611 23.58 10.3891 23.444 10.3411 23.292C10.2931 23.132 10.2691 22.964 10.2691 22.788V16.884C10.2691 16.708 10.2931 16.544 10.3411 16.392C10.3891 16.232 10.4611 16.096 10.5571 15.984C10.6611 15.864 10.7931 15.772 10.9531 15.708C11.1211 15.636 11.3211 15.6 11.5531 15.6H12.2491C12.4811 15.6 12.6771 15.636 12.8371 15.708C13.0051 15.772 13.1371 15.864 13.2331 15.984C13.3371 16.096 13.4131 16.232 13.4611 16.392C13.5091 16.544 13.5331 16.708 13.5331 16.884V18.492H12.6091V16.884C12.6091 16.788 12.5811 16.704 12.5251 16.632C12.4691 16.56 12.3771 16.524 12.2491 16.524H11.5531C11.4251 16.524 11.3331 16.56 11.2771 16.632C11.2211 16.704 11.1931 16.788 11.1931 16.884V22.788C11.1931 22.884 11.2211 22.968 11.2771 23.04C11.3331 23.112 11.4251 23.148 11.5531 23.148H12.2491C12.3771 23.148 12.4691 23.112 12.5251 23.04C12.5811 22.968 12.6091 22.884 12.6091 22.788V20.436ZM17.2941 15.6C17.5261 15.6 17.7221 15.636 17.8821 15.708C18.0501 15.772 18.1821 15.864 18.2781 15.984C18.3821 16.096 18.4581 16.232 18.5061 16.392C18.5541 16.544 18.5781 16.708 18.5781 16.884V22.788C18.5781 22.964 18.5541 23.132 18.5061 23.292C18.4581 23.444 18.3821 23.58 18.2781 23.7C18.1821 23.812 18.0501 23.904 17.8821 23.976C17.7221 24.04 17.5261 24.072 17.2941 24.072H16.5861C16.3541 24.072 16.1541 24.04 15.9861 23.976C15.8261 23.904 15.6941 23.812 15.5901 23.7C15.4941 23.58 15.4221 23.444 15.3741 23.292C15.3261 23.132 15.3021 22.964 15.3021 22.788V16.884C15.3021 16.708 15.3261 16.544 15.3741 16.392C15.4221 16.232 15.4941 16.096 15.5901 15.984C15.6941 15.864 15.8261 15.772 15.9861 15.708C16.1541 15.636 16.3541 15.6 16.5861 15.6H17.2941ZM17.2941 23.148C17.4221 23.148 17.5141 23.112 17.5701 23.04C17.6261 22.968 17.6541 22.884 17.6541 22.788V16.884C17.6541 16.788 17.6261 16.704 17.5701 16.632C17.5141 16.56 17.4221 16.524 17.2941 16.524H16.5861C16.4501 16.524 16.3541 16.56 16.2981 16.632C16.2501 16.704 16.2261 16.788 16.2261 16.884V22.788C16.2261 22.884 16.2501 22.968 16.2981 23.04C16.3541 23.112 16.4501 23.148 16.5861 23.148H17.2941ZM26.0214 15.672V24H25.0974V20.4L25.2174 16.5H24.8814L23.9814 21.984H22.4454L21.5454 16.5H21.2094L21.3294 20.4V24H20.4054V15.672H22.2894L23.1294 21.168H23.2974L24.1374 15.672H26.0214ZM27.9462 15.672H28.8702V24H27.9462V15.672ZM31.7117 24H30.7877V15.672H31.7117V17.544L33.0797 18.972V15.672H34.0037V24H33.0797V20.088L31.7117 18.708V24ZM38.1841 17.472V16.884C38.1841 16.788 38.1561 16.704 38.1001 16.632C38.0441 16.56 37.9521 16.524 37.8241 16.524H37.1281C37.0001 16.524 36.9081 16.56 36.8521 16.632C36.7961 16.704 36.7681 16.788 36.7681 16.884V22.788C36.7681 22.884 36.7961 22.968 36.8521 23.04C36.9081 23.112 37.0001 23.148 37.1281 23.148H37.8241C37.9521 23.148 38.0441 23.112 38.1001 23.04C38.1561 22.968 38.1841 22.884 38.1841 22.788V19.236H37.4761V18.312H39.1081V22.716C39.1081 22.892 39.0841 23.064 39.0361 23.232C38.9881 23.392 38.9121 23.536 38.8081 23.664C38.7121 23.784 38.5801 23.884 38.4121 23.964C38.2521 24.036 38.0561 24.072 37.8241 24.072H37.1281C36.8961 24.072 36.6961 24.04 36.5281 23.976C36.3681 23.904 36.2361 23.812 36.1321 23.7C36.0361 23.58 35.9641 23.444 35.9161 23.292C35.8681 23.132 35.8441 22.964 35.8441 22.788V16.884C35.8441 16.708 35.8681 16.544 35.9161 16.392C35.9641 16.232 36.0361 16.096 36.1321 15.984C36.2361 15.864 36.3681 15.772 36.5281 15.708C36.6961 15.636 36.8961 15.6 37.1281 15.6H37.8241C38.0561 15.6 38.2521 15.636 38.4121 15.708C38.5801 15.772 38.7121 15.864 38.8081 15.984C38.9121 16.096 38.9881 16.232 39.0361 16.392C39.0841 16.544 39.1081 16.708 39.1081 16.884V17.472H38.1841ZM16.8615 27.524C16.7255 27.524 16.6295 27.56 16.5735 27.632C16.5255 27.704 16.5015 27.788 16.5015 27.884V28.952C16.5015 29.056 16.5255 29.144 16.5735 29.216C16.6295 29.28 16.7255 29.312 16.8615 29.312H17.4495C17.6815 29.312 17.8775 29.348 18.0375 29.42C18.2055 29.484 18.3375 29.576 18.4335 29.696C18.5375 29.808 18.6135 29.944 18.6615 30.104C18.7095 30.256 18.7335 30.42 18.7335 30.596V33.788C18.7335 33.964 18.7095 34.132 18.6615 34.292C18.6135 34.444 18.5375 34.58 18.4335 34.7C18.3375 34.812 18.2055 34.904 18.0375 34.976C17.8775 35.04 17.6815 35.072 17.4495 35.072H16.8615C16.6295 35.072 16.4295 35.04 16.2615 34.976C16.1015 34.904 15.9695 34.812 15.8655 34.7C15.7695 34.58 15.6975 34.444 15.6495 34.292C15.6015 34.132 15.5775 33.964 15.5775 33.788V31.304H16.5015V33.788C16.5015 33.884 16.5255 33.968 16.5735 34.04C16.6295 34.112 16.7255 34.148 16.8615 34.148H17.4495C17.5775 34.148 17.6695 34.112 17.7255 34.04C17.7815 33.968 17.8095 33.884 17.8095 33.788V30.596C17.8095 30.5 17.7815 30.416 17.7255 30.344C17.6695 30.272 17.5775 30.236 17.4495 30.236H16.8615C16.6295 30.236 16.4295 30.204 16.2615 30.14C16.1015 30.068 15.9695 29.976 15.8655 29.864C15.7695 29.744 15.6975 29.608 15.6495 29.456C15.6015 29.296 15.5775 29.128 15.5775 28.952V27.884C15.5775 27.708 15.6015 27.544 15.6495 27.392C15.6975 27.232 15.7695 27.096 15.8655 26.984C15.9695 26.864 16.1015 26.772 16.2615 26.708C16.4295 26.636 16.6295 26.6 16.8615 26.6H17.4495C17.6815 26.6 17.8775 26.636 18.0375 26.708C18.2055 26.772 18.3375 26.864 18.4335 26.984C18.5375 27.096 18.6135 27.232 18.6615 27.392C18.7095 27.544 18.7335 27.708 18.7335 27.884V28.472H17.8095V27.884C17.8095 27.788 17.7815 27.704 17.7255 27.632C17.6695 27.56 17.5775 27.524 17.4495 27.524H16.8615ZM22.4267 26.6C22.6587 26.6 22.8547 26.636 23.0147 26.708C23.1827 26.772 23.3147 26.864 23.4107 26.984C23.5147 27.096 23.5907 27.232 23.6387 27.392C23.6867 27.544 23.7107 27.708 23.7107 27.884V33.788C23.7107 33.964 23.6867 34.132 23.6387 34.292C23.5907 34.444 23.5147 34.58 23.4107 34.7C23.3147 34.812 23.1827 34.904 23.0147 34.976C22.8547 35.04 22.6587 35.072 22.4267 35.072H21.7187C21.4867 35.072 21.2867 35.04 21.1187 34.976C20.9587 34.904 20.8267 34.812 20.7227 34.7C20.6267 34.58 20.5547 34.444 20.5067 34.292C20.4587 34.132 20.4347 33.964 20.4347 33.788V27.884C20.4347 27.708 20.4587 27.544 20.5067 27.392C20.5547 27.232 20.6267 27.096 20.7227 26.984C20.8267 26.864 20.9587 26.772 21.1187 26.708C21.2867 26.636 21.4867 26.6 21.7187 26.6H22.4267ZM22.4267 34.148C22.5547 34.148 22.6467 34.112 22.7027 34.04C22.7587 33.968 22.7867 33.884 22.7867 33.788V27.884C22.7867 27.788 22.7587 27.704 22.7027 27.632C22.6467 27.56 22.5547 27.524 22.4267 27.524H21.7187C21.5827 27.524 21.4867 27.56 21.4307 27.632C21.3827 27.704 21.3587 27.788 21.3587 27.884V33.788C21.3587 33.884 21.3827 33.968 21.4307 34.04C21.4867 34.112 21.5827 34.148 21.7187 34.148H22.4267ZM27.4128 26.6C27.6448 26.6 27.8408 26.636 28.0008 26.708C28.1688 26.772 28.3008 26.864 28.3968 26.984C28.5008 27.096 28.5768 27.232 28.6248 27.392C28.6728 27.544 28.6968 27.708 28.6968 27.884V33.788C28.6968 33.964 28.6728 34.132 28.6248 34.292C28.5768 34.444 28.5008 34.58 28.3968 34.7C28.3008 34.812 28.1688 34.904 28.0008 34.976C27.8408 35.04 27.6448 35.072 27.4128 35.072H26.7048C26.4728 35.072 26.2728 35.04 26.1048 34.976C25.9448 34.904 25.8128 34.812 25.7088 34.7C25.6128 34.58 25.5408 34.444 25.4928 34.292C25.4448 34.132 25.4208 33.964 25.4208 33.788V27.884C25.4208 27.708 25.4448 27.544 25.4928 27.392C25.5408 27.232 25.6128 27.096 25.7088 26.984C25.8128 26.864 25.9448 26.772 26.1048 26.708C26.2728 26.636 26.4728 26.6 26.7048 26.6H27.4128ZM27.4128 34.148C27.5408 34.148 27.6328 34.112 27.6888 34.04C27.7448 33.968 27.7728 33.884 27.7728 33.788V27.884C27.7728 27.788 27.7448 27.704 27.6888 27.632C27.6328 27.56 27.5408 27.524 27.4128 27.524H26.7048C26.5688 27.524 26.4728 27.56 26.4168 27.632C26.3688 27.704 26.3448 27.788 26.3448 27.884V33.788C26.3448 33.884 26.3688 33.968 26.4168 34.04C26.4728 34.112 26.5688 34.148 26.7048 34.148H27.4128ZM31.4481 35H30.5241V26.672H31.4481V28.544L32.8161 29.972V26.672H33.7401V35H32.8161V31.088L31.4481 29.708V35Z" fill="#FFCB06"/>
</svg>
